<svg width="274" height="174" viewBox="0 0 274 174" fill="none" xmlns="http://www.w3.org/2000/svg">
<g clip-path="url(#clip0)">
<path opacity="0.1" d="M274 111.65C274.005 116.359 273.453 121.052 272.356 125.624C271.986 127.163 271.558 128.671 271.069 130.15C270.471 131.972 269.778 133.759 268.994 135.505C268.599 136.387 268.181 137.252 267.74 138.101C267.747 142.931 266.783 147.71 264.909 152.136C261.52 160.076 255.478 166.496 247.885 170.228C243.131 172.567 237.935 173.796 232.668 173.827H52.0147C43.9764 173.846 36.0768 171.668 29.119 167.516C28.0907 166.902 27.0888 166.248 26.1133 165.554C23.9952 164.044 22.0053 162.352 20.1649 160.496C17.6734 157.982 15.4784 155.173 13.6256 152.129C9.27253 144.999 6.96652 136.744 6.9746 128.319C2.5662 120.34 -0.00439453 110.783 -0.00439453 100.514C-0.00439453 87.5565 4.08064 75.7367 10.7921 66.7891C12.1913 64.9197 13.724 63.1608 15.3773 61.527C17.0086 59.9103 18.762 58.43 20.6209 57.1C22.1075 56.0339 23.6619 55.072 25.2735 54.2207C25.9458 53.8655 26.6205 53.5344 27.3067 53.2249C27.9093 52.9489 28.5188 52.6922 29.1352 52.4498C29.875 52.1587 30.6241 51.8924 31.3825 51.6508C32.1409 51.4093 32.8892 51.1965 33.6274 51.0126C34.713 50.739 35.8172 50.5167 36.9401 50.3455C37.8706 50.2039 38.8011 50.1056 39.7317 50.0288C40.4715 49.9744 41.2174 49.9424 41.9696 49.9328H42.3767C43.2049 49.9328 44.0284 49.9664 44.845 50.024C44.931 49.8464 45.0241 49.6665 45.1102 49.4889C45.4358 48.8506 45.7732 48.2124 46.1128 47.5861V47.5693C46.171 47.4613 46.2291 47.3534 46.2896 47.2478C46.5641 46.7367 46.8503 46.2304 47.1434 45.7289C47.2783 45.489 47.4109 45.2634 47.5482 45.0355C47.5784 44.9803 47.6086 44.9275 47.6435 44.8723C47.7831 44.6324 47.925 44.3924 48.0693 44.1525C48.7873 42.9703 49.5341 41.8066 50.3095 40.6612C50.377 40.5629 50.4398 40.4669 50.5073 40.3709C50.6282 40.1933 50.7399 40.0182 50.8748 39.843C51.1958 39.3799 51.5262 38.9144 51.8588 38.4561C52.0915 38.1322 52.3241 37.8083 52.5754 37.4963C53.1802 36.6901 53.8013 35.8887 54.4364 35.0969C55.0715 34.305 55.7415 33.5084 56.4185 32.7286C56.5115 32.6206 56.6046 32.515 56.7023 32.4071L57.6956 31.2913C57.7445 31.2385 57.7863 31.1905 57.8329 31.1425C57.9515 31.0106 58.0655 30.8786 58.1934 30.749C58.7262 30.1684 59.2729 29.5949 59.8219 29.0286C62.6262 26.1546 65.6136 23.4772 68.7643 21.0144C68.8876 20.9136 69.0132 20.8176 69.1365 20.7216C69.7274 20.2609 70.3276 19.8074 70.9278 19.3611C74.2297 16.9192 77.6805 14.6991 81.259 12.7146C81.5056 12.5706 81.7569 12.4339 82.0104 12.2971C85.2195 10.5472 88.5194 8.98041 91.895 7.60374C93.7344 6.8535 95.6063 6.15286 97.5108 5.5018C98.7717 5.07709 100.037 4.67158 101.319 4.30207C103.301 3.71499 105.308 3.18551 107.34 2.71362C113.325 1.32837 119.414 0.472647 125.541 0.15578C127.402 0.0550026 129.284 0.00461438 131.187 0.00461438C140.369 -0.00792379 149.515 1.18541 158.405 3.55583C158.497 3.6991 158.622 3.8159 158.77 3.89523C158.918 3.97457 159.083 4.01383 159.249 4.00933H160.031C160.371 4.10291 160.708 4.20129 161.048 4.30207C162.944 4.86674 164.814 5.48181 166.656 6.14726L167.122 6.32002C171.669 7.98785 176.094 9.99263 180.361 12.3187C184.207 14.4113 187.91 16.7715 191.446 19.3827C191.99 19.7858 192.527 20.193 193.056 20.6041C193.698 20.177 194.351 19.7698 195.014 19.3827C197.578 17.8777 200.3 16.6813 203.129 15.8171C209.042 14.0123 215.298 13.7599 221.33 15.0829C229.065 16.7745 236.067 20.9736 241.722 26.9459C244.026 29.3816 246.078 32.0578 247.845 34.9313C247.973 35.1377 248.101 35.3464 248.225 35.5576C249.74 38.1095 251.043 40.7898 252.119 43.5694C252.158 43.6702 252.198 43.7686 252.233 43.8693C253.226 46.4706 254.027 49.1457 254.629 51.8716C254.657 52.0083 254.689 52.1475 254.717 52.2867C255.28 54.9247 255.663 57.6003 255.862 60.2937C255.862 60.3897 255.862 60.4881 255.88 60.5864C255.978 61.9797 256.028 63.3882 256.029 64.8119C256.029 66.0836 255.988 67.3457 255.911 68.5959C255.911 68.7326 255.892 68.8766 255.88 69.0158C255.86 69.3805 255.829 69.7356 255.799 70.1027C257.576 71.5801 259.239 73.1974 260.773 74.9401C261.451 75.7031 262.107 76.4957 262.741 77.3179C264.673 79.8152 266.372 82.4963 267.812 85.325C271.739 92.9985 274 102.006 274 111.65Z" fill="#20385C"/>
<path opacity="0.1" d="M247.713 158.879C247.713 164.333 242.232 169.436 232.668 173.832H52.0145C43.656 173.832 35.8278 170.713 29.1187 165.273C27.4321 163.21 26.5435 161.072 26.5435 158.876C26.5435 153.079 32.7408 147.668 43.4559 143.095L43.7583 142.97C46.7825 141.691 50.1627 140.484 53.8569 139.349C53.95 139.321 54.0454 139.294 54.1384 139.261C57.0696 138.373 60.1876 137.531 63.4926 136.736C63.5973 136.712 63.6996 136.686 63.8043 136.667C65.0791 136.355 66.3796 136.064 67.7079 135.774L68.2197 135.664C77.8856 133.595 88.8729 131.954 100.788 130.841H100.802C102.471 130.681 104.158 130.538 105.862 130.411C107.758 130.255 109.677 130.123 111.617 130.001C113.099 129.903 114.6 129.819 116.105 129.742C116.11 129.739 116.116 129.738 116.122 129.738C116.128 129.738 116.134 129.739 116.14 129.742C122.93 129.389 129.947 129.204 137.121 129.204C154.862 129.204 171.63 130.327 186.488 132.324C186.502 132.321 186.516 132.321 186.53 132.324C188.814 132.631 191.057 132.955 193.244 133.3C193.87 133.401 194.493 133.502 195.105 133.605C197.572 134.016 199.976 134.45 202.316 134.908C229.837 140.304 247.713 149.036 247.713 158.879Z" fill="#20385C"/>
<path d="M202.74 58.3743C202.74 58.3743 200.278 57.3449 192.448 61.0473C184.617 64.7497 183.64 64.2818 181.614 63.7251C179.588 63.1685 178.457 63.0245 176.285 59.9316C176.285 59.9316 174.752 51.3631 173.26 50.0338C171.769 48.7045 165.474 50.792 165.474 50.792C165.474 50.792 157.916 52.5796 156.476 42.1539C156.476 42.1539 157.497 34.3028 156.106 31.8938C156.106 31.8938 158.916 33.1415 163.55 31.1259C168.184 29.1104 171.895 33.2975 171.895 33.2975C171.895 33.2975 173.058 36.4168 172.942 38.2788C172.825 40.1407 173.56 40.839 175.77 39.9392C175.77 39.9392 176.857 38.3459 175.319 35.7113C173.781 33.0767 172.683 31.1163 173.111 29.072C173.539 27.0276 174.775 24.1891 178.741 22.771C182.708 21.3529 188.093 21.0913 190.678 19.9708C193.262 18.8502 193.9 18.1352 193.9 18.1352C193.9 18.1352 192.308 19.7788 196.056 26.7493C199.804 33.7198 197.415 36.7431 197.415 36.7431C197.415 36.7431 195.421 41.6452 186.618 41.2469C186.618 41.2469 178.136 41.566 182.761 45.2756C182.761 45.2756 185.722 44.6541 190.149 43.2025C194.576 41.7508 197.773 47.7423 198.566 51.9101C199.359 56.078 202.74 58.3743 202.74 58.3743Z" fill="#F2C94C"/>
<path d="M191.338 23.4141L191.385 23.3997C191.725 24.729 187.935 30.075 184.694 34.3244L184.657 34.2933C189.226 28.309 191.601 24.4434 191.338 23.4141Z" fill="#20385C"/>
<path d="M184.722 34.2117L184.743 34.2645C182.154 37.6573 178.9 41.7028 176.294 44.7094C176.045 44.9949 175.799 45.2948 175.561 45.602L175.487 45.5396C175.719 45.2324 175.973 44.9301 176.222 44.6446C178.825 41.65 182.131 37.6069 184.722 34.2117Z" fill="#20385C"/>
<path d="M175.55 45.4628L175.601 45.5539C170.86 51.6606 170.546 61.1505 170.534 61.2249L169.534 60.0251C169.545 59.9484 170.776 51.6126 175.55 45.4628Z" fill="#20385C"/>
<path d="M197.252 55.063C197.252 55.063 191.669 52.0637 187.305 53.1435C182.941 54.2232 173.126 49.3283 173.126 49.3283C173.126 49.3283 168.962 47.5839 168.124 45.5947C168.124 45.5947 165.265 42.4754 165.1 40.8654C164.935 39.2553 162.155 35.1978 160.34 35.0419" stroke="#20385C" stroke-miterlimit="10"/>
<path d="M196.431 57.9496C196.431 57.9496 193.616 55.9917 193.944 53.7122" stroke="#20385C" stroke-miterlimit="10"/>
<path d="M192.113 60.4763C192.113 60.4763 188.087 58.9694 187.693 53.0571" stroke="#20385C" stroke-miterlimit="10"/>
<path d="M185.62 62.0071C185.62 62.0071 181.773 58.715 183.05 52.9611" stroke="#20385C" stroke-miterlimit="10"/>
<path d="M177.806 60.3995C177.806 60.3995 175.247 54.8567 177.525 51.2503" stroke="#20385C" stroke-miterlimit="10"/>
<path d="M197.306 51.4087C197.306 51.4087 194.395 52.3685 195.019 53.9425" stroke="#20385C" stroke-miterlimit="10"/>
<path d="M193.793 45.9691C193.793 45.9691 189.896 47.2432 189.806 52.9275" stroke="#20385C" stroke-miterlimit="10"/>
<path d="M188.358 44.6445C188.358 44.6445 184.811 49.1603 185.071 53.2634" stroke="#20385C" stroke-miterlimit="10"/>
<path d="M182.147 46.4153C182.147 46.4153 178.625 49.8898 179.074 51.8214" stroke="#20385C" stroke-miterlimit="10"/>
<path d="M180.023 45.1892C180.023 45.1892 176.72 45.7987 176.257 44.6805" stroke="#20385C" stroke-miterlimit="10"/>
<path d="M175.731 41.0765C175.731 41.0765 177.399 43.356 177.825 42.8449" stroke="#20385C" stroke-miterlimit="10"/>
<path d="M192.276 39.6344C192.276 39.6344 183.948 40.2583 182.063 37.6669" stroke="#20385C" stroke-miterlimit="10"/>
<path d="M173.989 29.5879C173.989 29.5879 177.895 38.238 180.735 39.3393" stroke="#20385C" stroke-miterlimit="10"/>
<path d="M178.078 25.468C178.078 25.468 180.477 33.4247 183.45 35.9081" stroke="#20385C" stroke-miterlimit="10"/>
<path d="M195.78 33.0671C195.78 33.0671 189.447 35.8697 185.646 33.0335" stroke="#20385C" stroke-width="0.75" stroke-miterlimit="10"/>
<path d="M183.717 23.7715C183.717 23.7715 185.164 29.6191 187.114 31.0323" stroke="#20385C" stroke-width="0.75" stroke-miterlimit="10"/>
<path d="M194.823 26.5142C194.823 26.5142 191.264 27.9059 189.938 26.8405" stroke="#20385C" stroke-width="0.75" stroke-miterlimit="10"/>
<path d="M172.682 42.9865C172.682 42.9865 172.682 48.0854 171.337 48.4477" stroke="#20385C" stroke-miterlimit="10"/>
<path d="M161.68 49.5923C161.68 49.5923 167.031 50.0722 169.49 47.2192" stroke="#20385C" stroke-miterlimit="10"/>
<path d="M171.304 36.9639C171.304 36.9639 170.01 42.1347 166.442 43.5288" stroke="#20385C" stroke-miterlimit="10"/>
<path d="M158.475 44.1455C158.475 44.1455 162.257 45.5012 165.512 42.0483" stroke="#20385C" stroke-miterlimit="10"/>
<path d="M167.096 32.5176C167.096 32.5176 166.74 36.9087 164.425 38.965" stroke="#20385C" stroke-miterlimit="10"/>
<path d="M158.619 37.4534C158.619 37.4534 161.757 37.475 162.492 36.4192" stroke="#20385C" stroke-miterlimit="10"/>
<path d="M181.317 54.1273H91.939V100.663H181.317V54.1273Z" fill="#33323D"/>
<path d="M209.442 114.8H64.0977V145.432H209.442V114.8Z" fill="#33323D"/>
<path d="M98.792 122.457H173.321L188.17 174H83.0869L98.792 122.457Z" fill="white"/>
<path d="M59.9565 96.5379V112.444V115.794V145.43H87.7981V117.157H185.741V145.43H213.583V115.794V112.444V96.5379H59.9565Z" fill="#504F60"/>
<path opacity="0.1" d="M213.583 96.5379H59.9565V112.442H213.583V96.5379Z" fill="#33323D"/>
<path opacity="0.8" d="M205.303 106.848C206.565 106.848 207.588 105.794 207.588 104.492C207.588 103.191 206.565 102.136 205.303 102.136C204.042 102.136 203.019 103.191 203.019 104.492C203.019 105.794 204.042 106.848 205.303 106.848Z" fill="#8CCF4D"/>
<path opacity="0.8" d="M195.023 106.848C196.285 106.848 197.308 105.794 197.308 104.492C197.308 103.191 196.285 102.136 195.023 102.136C193.762 102.136 192.739 103.191 192.739 104.492C192.739 105.794 193.762 106.848 195.023 106.848Z" fill="#FA5959"/>
<path d="M178.034 42.9337H95.2236V93.5913H178.034V42.9337Z" fill="white"/>
<path d="M190.631 116.871C190.806 118.831 189.37 120.734 189.789 122.654C189.877 123.064 190.05 123.453 190.112 123.853C190.285 124.993 189.626 126.073 188.996 127.028L183.592 135.229C183.375 135.589 183.115 135.92 182.819 136.213C181.784 137.173 180.235 137.063 178.879 137.346C177.925 137.545 177.024 137.954 176.238 138.545C176.204 138.573 176.181 138.614 176.175 138.658C176.168 138.703 176.178 138.748 176.203 138.785C176.427 139.102 176.724 139.355 177.067 139.523C177.41 139.691 177.788 139.767 178.167 139.745C178.309 139.937 178.167 140.225 177.971 140.359C177.68 140.566 177.273 140.621 177.224 141.13C177.204 141.306 177.238 141.485 177.322 141.641C177.541 141.984 177.88 142.227 178.269 142.317C180.13 142.908 182.161 141.871 183.561 140.46C184.962 139.049 185.967 137.269 187.342 135.832C188.102 135.037 188.97 134.356 189.752 133.586C191.315 132.05 192.543 130.181 193.707 128.307C194.091 127.763 194.38 127.155 194.563 126.51C194.707 125.871 194.642 125.197 194.809 124.564C195.028 123.736 195.616 123.076 196.105 122.38C197.066 121.017 197.706 119.352 197.578 117.672C197.45 115.993 196.445 114.34 194.909 113.768C194.433 113.573 193.909 113.54 193.413 113.675C192.783 113.874 192.32 114.412 191.89 114.925L190.864 116.146C190.608 116.417 190.405 116.735 190.266 117.085C190.2 117.261 190.185 117.453 190.222 117.638C190.26 117.822 190.348 117.992 190.478 118.126" fill="#FBBEBE"/>
<path opacity="0.05" d="M190.631 116.871C190.806 118.831 189.37 120.734 189.789 122.654C189.877 123.064 190.05 123.453 190.112 123.853C190.285 124.993 189.626 126.073 188.996 127.028L183.592 135.229C183.375 135.589 183.115 135.92 182.819 136.213C181.784 137.173 180.235 137.063 178.879 137.346C177.925 137.545 177.024 137.954 176.238 138.545C176.204 138.573 176.181 138.614 176.175 138.658C176.168 138.703 176.178 138.748 176.203 138.785C176.427 139.102 176.724 139.355 177.067 139.523C177.41 139.691 177.788 139.767 178.167 139.745C178.309 139.937 178.167 140.225 177.971 140.359C177.68 140.566 177.273 140.621 177.224 141.13C177.204 141.306 177.238 141.485 177.322 141.641C177.541 141.984 177.88 142.227 178.269 142.317C180.13 142.908 182.161 141.871 183.561 140.46C184.962 139.049 185.967 137.269 187.342 135.832C188.102 135.037 188.97 134.356 189.752 133.586C191.315 132.05 192.543 130.181 193.707 128.307C194.091 127.763 194.38 127.155 194.563 126.51C194.707 125.871 194.642 125.197 194.809 124.564C195.028 123.736 195.616 123.076 196.105 122.38C197.066 121.017 197.706 119.352 197.578 117.672C197.45 115.993 196.445 114.34 194.909 113.768C194.433 113.573 193.909 113.54 193.413 113.675C192.783 113.874 192.32 114.412 191.89 114.925L190.864 116.146C190.608 116.417 190.405 116.735 190.266 117.085C190.2 117.261 190.185 117.453 190.222 117.638C190.26 117.822 190.348 117.992 190.478 118.126" fill="#20385C"/>
<path d="M194.723 167.329C193.542 168.071 192.071 168.119 190.699 167.944C190.466 167.917 190.217 167.901 190.075 168.076C189.871 168.332 190.113 168.707 190.362 168.913C191.172 169.539 192.124 169.943 193.128 170.086C194.023 170.215 194.927 170.277 195.831 170.271C198.297 170.314 200.776 170.358 203.219 169.99C203.36 169.98 203.497 169.938 203.622 169.868C203.779 169.755 203.888 169.583 203.926 169.388C204.096 168.736 203.773 168.03 203.287 167.577C202.8 167.123 202.175 166.869 201.563 166.617L199.418 165.755C198.913 165.551 198.106 165.016 197.557 165.057C196.554 165.141 195.575 166.816 194.723 167.329Z" fill="#20385C"/>
<path opacity="0.05" d="M194.723 167.329C193.542 168.071 192.071 168.119 190.699 167.944C190.466 167.917 190.217 167.901 190.075 168.076C189.871 168.332 190.113 168.707 190.362 168.913C191.172 169.539 192.124 169.943 193.128 170.086C194.023 170.215 194.927 170.277 195.831 170.271C198.297 170.314 200.776 170.358 203.219 169.99C203.36 169.98 203.497 169.938 203.622 169.868C203.779 169.755 203.888 169.583 203.926 169.388C204.096 168.736 203.773 168.03 203.287 167.577C202.8 167.123 202.175 166.869 201.563 166.617L199.418 165.755C198.913 165.551 198.106 165.016 197.557 165.057C196.554 165.141 195.575 166.816 194.723 167.329Z" fill="#20385C"/>
<path d="M196.219 137.948C195.328 139.174 194.402 140.587 194.623 142.106C194.742 142.924 195.186 143.647 195.512 144.403C195.92 145.442 196.221 146.523 196.412 147.627C196.747 149.233 197.082 150.843 197.287 152.472C197.52 154.312 196.426 159.637 196.324 161.492C196.298 161.938 196.25 162.423 195.947 162.744C195.828 162.871 195.67 162.984 195.619 163.14C195.586 163.299 195.611 163.464 195.689 163.606C196.194 164.779 197.224 165.65 198.369 166.149C199.513 166.648 202.298 167.505 203.54 167.55C203.705 167.571 203.873 167.548 204.026 167.483C204.194 167.38 204.326 167.224 204.403 167.039C205.301 165.271 204.438 158.975 204.452 156.976C204.452 155.296 204.845 153.655 204.776 151.99C204.717 150.653 204.371 149.35 204.245 148.016C204.038 145.83 204.427 143.637 204.817 141.478C205.115 139.824 205.413 138.169 205.794 136.532C206.027 135.537 206.297 134.529 206.83 133.653C207.251 132.964 207.823 132.391 208.305 131.733C209.639 129.929 210.232 127.655 209.954 125.404C209.926 125.183 206.855 126.207 206.588 126.327C205.486 126.811 204.472 127.484 203.589 128.319C202.891 129.015 202.321 129.948 201.698 130.73C200.818 131.834 199.951 132.947 199.095 134.068C198.122 135.356 197.164 136.649 196.219 137.948Z" fill="#20385C"/>
<path opacity="0.05" d="M196.219 137.869C195.328 139.095 194.402 140.508 194.623 142.029C194.742 142.845 195.186 143.567 195.512 144.323C195.919 145.363 196.221 146.444 196.412 147.548C196.747 149.153 197.082 150.763 197.287 152.393C197.52 154.233 196.426 159.56 196.324 161.415C196.298 161.859 196.25 162.346 195.947 162.665C195.828 162.792 195.67 162.905 195.619 163.061C195.584 163.224 195.609 163.395 195.689 163.541C196.194 164.712 197.224 165.585 198.369 166.082C199.513 166.578 202.298 167.041 203.54 167.082C203.705 167.103 203.873 167.08 204.026 167.015C204.194 166.912 204.326 166.756 204.403 166.571C205.301 164.803 204.438 158.907 204.452 156.911C204.452 155.231 204.845 153.588 204.776 151.922C204.717 150.586 204.371 149.283 204.245 147.949C204.038 145.763 204.427 143.57 204.817 141.413C205.115 139.757 205.413 138.101 205.794 136.465C206.027 135.469 206.297 134.461 206.83 133.586C207.251 132.899 207.823 132.324 208.305 131.681C209.638 129.875 210.23 127.602 209.954 125.351C209.926 125.128 206.855 126.152 206.588 126.275C205.485 126.758 204.471 127.433 203.589 128.271C202.891 128.969 202.321 129.9 201.698 130.67C200.818 131.774 199.951 132.887 199.095 134.01C198.122 135.29 197.164 136.576 196.219 137.869Z" fill="#20385C"/>
<path d="M186.288 110.951C189.054 110.951 191.296 108.639 191.296 105.785C191.296 102.932 189.054 100.619 186.288 100.619C183.522 100.619 181.279 102.932 181.279 105.785C181.279 108.639 183.522 110.951 186.288 110.951Z" fill="#FBBEBE"/>
<path d="M190.796 105.57C191.259 106.331 191.865 106.99 192.579 107.505C193.294 108.02 194.101 108.382 194.953 108.569L194.577 109.977C193.925 112.408 193.181 114.978 191.373 116.662C191.571 115.839 191.315 114.954 190.864 114.246C190.381 113.557 189.809 112.941 189.163 112.413L186.281 109.826C186.195 109.761 186.122 109.679 186.064 109.586C185.995 109.404 185.995 109.202 186.064 109.02C186.432 107.842 187.481 107.1 188.33 106.309C188.757 105.896 189.14 105.437 189.47 104.938C190.061 104.091 190.417 104.938 190.796 105.57Z" fill="#FBBEBE"/>
<path d="M179.688 100.593L179.577 99.6332C180.368 99.8444 181.117 99.1533 181.622 98.4335C182.126 97.7136 182.596 96.869 183.366 96.5715C184.297 96.2068 185.293 96.7898 186.186 97.2697C187.187 97.8446 188.287 98.2153 189.424 98.3615C189.606 98.3678 189.785 98.3985 189.959 98.4527C190.541 98.6662 190.818 99.4125 190.901 100.101C190.985 100.79 190.962 101.51 191.25 102.119C191.467 102.58 191.841 102.923 192.069 103.376C192.681 104.6 192.09 106.27 192.737 107.47L191.132 105.951C190.983 105.812 190.776 105.668 190.615 105.785C190.455 105.903 190.478 106.081 190.425 106.241C190.269 106.721 189.699 106.856 189.282 106.671C188.866 106.486 188.566 106.078 188.261 105.711C187.551 104.847 186.707 104.089 185.702 103.72C185.267 103.548 184.802 103.473 184.337 103.502C183.872 103.53 183.418 103.661 183.006 103.885C182.257 104.322 181.708 105.339 180.791 105.375C179.533 105.423 179.009 103.007 178.425 102.052C178.638 101.886 178.787 101.648 178.848 101.381C178.908 101.113 178.875 100.831 178.756 100.586C178.858 100.545 179.672 100.437 179.688 100.593Z" fill="#20385C"/>
<path d="M200.565 167.289C199.575 168.199 198.29 168.693 196.963 168.673C196.626 168.673 196.159 168.74 196.156 169.088C196.162 169.192 196.196 169.292 196.254 169.376C196.674 170.096 197.337 170.631 198.115 170.878C198.836 171.104 199.609 171.065 200.362 171.027L202.561 170.909C202.975 170.885 203.391 170.864 203.805 170.811C204.219 170.758 204.666 170.67 205.099 170.605C206.158 170.448 207.23 170.396 208.3 170.449C208.584 170.461 208.912 170.449 209.088 170.228C209.265 170.007 209.17 169.609 209.105 169.29C208.974 168.632 209.105 167.944 208.984 167.284C208.772 166.125 207.807 165.24 206.741 164.82C205.752 164.431 203.998 163.987 203.061 164.632C202.056 165.328 201.451 166.461 200.565 167.289Z" fill="#20385C"/>
<path d="M202.742 128.511C202.938 129.471 203.829 130.19 203.857 131.15C203.877 131.928 203.338 132.59 202.952 133.25C202.583 133.941 202.271 134.664 202.021 135.409C201.287 137.345 200.377 139.205 199.304 140.964C198.787 141.806 198.211 142.723 198.329 143.714C198.41 144.176 198.568 144.621 198.794 145.029L200.341 148.199C200.681 148.832 200.947 149.504 201.132 150.202C201.265 150.804 201.279 151.428 201.365 152.042C201.609 153.986 202.493 155.944 201.972 157.828C201.926 157.991 201.763 158.188 201.64 158.068C202.149 159.051 202.57 160.045 202.521 161.16C202.5 161.746 202.326 162.36 202.537 162.902C202.657 163.114 202.736 163.347 202.77 163.589C202.77 163.747 202.698 163.898 202.682 164.069C202.64 164.517 203.038 164.892 203.454 165.028C203.87 165.165 204.319 165.16 204.738 165.29C205.545 165.53 206.118 166.25 206.809 166.749C207.508 167.249 208.335 167.527 209.186 167.548C209.307 167.561 209.429 167.536 209.535 167.476C209.596 167.421 209.645 167.354 209.679 167.278C209.712 167.202 209.73 167.12 209.731 167.037C209.768 166.639 209.709 166.239 209.561 165.87C209.412 165.501 209.178 165.176 208.879 164.923C208.749 164.837 208.641 164.72 208.565 164.582C208.526 164.459 208.515 164.328 208.535 164.201C208.66 162.456 208.63 160.704 208.444 158.965C208.36 158.414 208.333 157.856 208.363 157.3C208.409 156.837 208.544 156.376 208.493 155.913C208.442 155.45 208.216 155.032 208.081 154.586C207.849 153.794 207.909 152.945 207.883 152.114C207.842 150.675 207.523 149.264 207.204 147.863C207.081 147.313 206.941 146.735 206.562 146.327C206.241 145.981 205.722 145.648 205.843 145.187C205.909 145.017 206.009 144.862 206.136 144.734C206.286 144.54 206.397 144.317 206.46 144.078C206.524 143.839 206.539 143.59 206.506 143.344C206.642 143.382 206.787 143.369 206.914 143.307C207.042 143.246 207.144 143.14 207.204 143.008C209.719 141.787 211.752 139.34 212.648 136.623C212.698 136.423 212.776 136.232 212.88 136.055C213.113 135.719 213.518 135.575 213.876 135.388C215.002 134.805 215.781 133.708 216.496 132.636C216.912 132.012 217.326 131.369 217.505 130.637C217.603 130.164 217.65 129.681 217.645 129.197L217.708 126.697C217.72 126.535 217.704 126.373 217.661 126.217C217.602 126.068 217.513 125.933 217.4 125.821C216.718 125.072 215.822 124.567 214.841 124.381C214.181 124.259 213.506 124.283 212.839 124.225C211.543 124.115 210.263 123.702 208.967 123.798C206.93 123.952 205.117 125.408 204.157 127.268C203.819 127.933 203.466 128.511 202.742 128.511Z" fill="#20385C"/>
<path d="M191.436 112.252C191.466 112.638 191.416 113.025 191.29 113.389C191.132 113.74 190.731 114.011 190.385 113.869C190.489 113.629 190.21 113.344 189.952 113.375C189.824 113.404 189.706 113.465 189.606 113.553C189.506 113.64 189.429 113.751 189.38 113.876C189.206 114.233 189.148 114.638 189.215 115.031C189.296 115.511 189.571 115.99 189.498 116.47C189.44 116.878 189.15 117.286 189.305 117.67C189.406 117.843 189.531 117.998 189.678 118.131C189.882 118.389 189.982 118.719 189.958 119.052C189.933 119.385 189.785 119.695 189.545 119.918L193.449 119.998C193.307 120.672 193.597 121.36 193.932 121.958C194.87 123.6 196.163 124.996 197.711 126.037C199.259 127.078 201.019 127.735 202.854 127.957C202.755 128.017 202.67 128.099 202.605 128.197C202.541 128.295 202.498 128.407 202.48 128.524C202.463 128.642 202.47 128.761 202.503 128.875C202.535 128.989 202.591 129.094 202.668 129.183C202.984 129.507 203.522 129.466 203.919 129.255C204.317 129.044 204.631 128.696 204.994 128.427C205.634 127.956 206.417 127.738 207.2 127.813C207.688 127.861 208.163 128.024 208.653 128.053C210.1 128.132 211.343 127.059 212.727 126.613C213.741 126.291 214.888 126.291 215.751 125.639C216.119 125.358 216.419 124.897 216.312 124.439C216.221 124.176 216.077 123.936 215.891 123.733C215.4 123.081 215.111 122.294 214.762 121.552C214.066 120.083 213.109 118.761 211.941 117.656C211.06 116.86 210.127 116.128 209.149 115.465C208.911 115.282 208.657 115.121 208.391 114.985C208.035 114.866 207.689 114.72 207.353 114.551C206.888 114.253 206.63 113.728 206.278 113.303C205.504 112.372 204.315 111.942 203.361 111.211C202.721 110.731 202.158 110.073 201.393 109.836C201.023 109.721 200.628 109.711 200.255 109.596C199.413 109.332 198.799 108.559 197.971 108.247C197.315 108.007 196.594 108.065 195.901 107.976C195.138 107.879 194.409 107.593 193.777 107.144C193.567 106.969 193.331 106.83 193.079 106.731C192.034 106.402 191.948 108.41 191.85 109.109C191.695 110.176 191.436 111.203 191.436 112.252Z" fill="#F2C94C"/>
<path d="M192.455 118.995C192.63 120.955 191.195 122.855 191.613 124.777C191.702 125.188 191.874 125.576 191.937 125.977C192.111 127.117 191.45 128.196 190.82 129.149L185.416 137.331C185.199 137.691 184.94 138.022 184.644 138.315C183.608 139.275 182.059 139.164 180.703 139.448C179.749 139.648 178.849 140.057 178.062 140.647C178.028 140.675 178.005 140.716 177.999 140.76C177.992 140.805 178.003 140.85 178.027 140.887C178.251 141.204 178.547 141.458 178.89 141.626C179.233 141.793 179.612 141.87 179.991 141.847C180.133 142.041 179.991 142.327 179.795 142.461C179.505 142.67 179.098 142.725 179.049 143.234C179.028 143.411 179.062 143.59 179.146 143.745C179.366 144.088 179.705 144.33 180.093 144.422C181.954 145.012 183.985 143.975 185.386 142.565C186.786 141.154 187.791 139.373 189.168 137.936C189.929 137.142 190.797 136.46 191.576 135.69C193.142 134.154 194.356 132.285 195.531 130.411C195.914 129.867 196.204 129.259 196.387 128.614C196.531 127.976 196.466 127.301 196.633 126.668C196.852 125.84 197.441 125.178 197.929 124.484C198.89 123.122 199.53 121.456 199.402 119.777C199.274 118.097 198.269 116.444 196.734 115.873C196.258 115.676 195.733 115.643 195.238 115.779C194.61 115.978 194.144 116.516 193.714 117.029L192.688 118.251C192.432 118.52 192.23 118.839 192.092 119.189C192.026 119.364 192.01 119.556 192.048 119.74C192.085 119.925 192.173 120.094 192.302 120.228" fill="#FBBEBE"/>
<path d="M195.191 110.939C194.479 110.983 193.697 111.055 193.195 111.578C192.986 111.818 192.816 112.092 192.692 112.389C192.206 113.413 191.732 114.484 191.697 115.623C191.666 116.535 191.929 117.425 192.057 118.327C192.169 119.076 191.885 119.839 191.825 120.597C192.706 120.319 193.87 119.94 194.67 119.47C195.194 119.116 195.751 118.817 196.333 118.577C197.182 118.287 198.608 118.786 199.409 119.196C199.453 118.611 199.029 117.596 199.074 117.01C199.081 116.765 199.123 116.523 199.199 116.29C199.32 116.044 199.462 115.811 199.625 115.592C199.933 115.077 200.076 114.474 200.031 113.871C199.986 113.267 199.757 112.693 199.376 112.233C198.662 111.403 197.54 111.091 196.473 110.963C195.8 110.882 195.121 110.858 194.444 110.889" fill="#F2C94C"/>
<path d="M89.7965 94.1528L85.209 87.2903C85.209 87.2903 85.1229 85.5915 84.8228 85.1956C84.5227 84.7997 84.7577 83.9166 84.7577 83.9166C84.7577 83.9166 85.081 83.4368 84.8019 83.3864C84.5227 83.336 84.7577 82.261 84.7577 82.261L84.7367 80.5406C84.7367 80.5406 84.995 78.885 84.7809 78.489C84.7177 78.3816 84.6861 78.2576 84.6898 78.1319C84.6935 78.0063 84.7324 77.8845 84.8019 77.7812C84.8019 77.7812 85.0578 76.8334 84.8019 76.5815C84.546 76.3295 84.6088 74.861 84.6716 73.6901C84.7344 72.5192 84.2226 71.8593 84.2226 71.6841C84.2226 71.509 82.5291 69.7862 82.5291 69.6302C82.5291 69.4742 81.4566 68.836 80.8122 68.6704C80.1678 68.5048 79.8491 68.3609 79.8701 68.2721C79.891 68.1833 78.8627 67.833 78.8627 67.833C78.8627 67.833 77.9625 67.7658 77.6182 67.3027C77.2739 66.8396 76.2224 66.7052 76.1968 66.7004L76.1758 66.6093C76.1758 66.5757 76.1642 66.5421 76.1572 66.5085C76.2421 66.3689 76.3198 66.2247 76.3899 66.0766L76.4503 65.9422C76.8271 65.9447 77.1953 65.8265 77.5042 65.6039C77.6562 65.4738 77.7805 65.3127 77.869 65.1305C77.9575 64.9483 78.0083 64.7492 78.0183 64.5457C78.0366 64.1378 77.9499 63.7321 77.767 63.37C77.5786 62.9741 77.3018 62.5614 77.3995 62.1295C77.4414 61.9447 77.5484 61.7815 77.6042 61.5992C77.6875 61.2432 77.6324 60.8676 77.4507 60.553C77.2878 60.2339 77.0622 59.9507 76.8807 59.6412C76.6506 59.2449 76.4966 58.8066 76.4271 58.3503C76.4141 58.1075 76.3582 57.8692 76.2619 57.6472C76.1646 57.4908 76.0361 57.3575 75.885 57.2561C75.2138 56.7622 74.4038 56.5093 73.5797 56.5363C72.9957 56.5555 72.4165 56.7186 71.8349 56.6443C71.4884 56.5828 71.1476 56.4913 70.816 56.3707C70.0971 56.15 69.2666 56.0612 68.6408 56.4859C68.0151 56.9106 67.7661 57.7456 67.3404 58.4055C66.9659 58.9813 66.4099 59.466 66.1307 60.0851C66.1307 60.0851 66.1307 60.0611 66.1307 60.0515C66.0605 60.1924 66.0066 60.3414 65.9702 60.4954C65.8904 60.9843 65.923 61.4857 66.0656 61.9591C66.0971 62.214 66.2209 62.4471 66.4122 62.6117C66.6239 62.7533 66.9147 62.7197 67.1613 62.7653L67.1334 62.8901C66.8823 64.1304 67.0924 65.4228 67.722 66.5108C68.3515 67.5989 69.3546 68.4031 70.5322 68.764C70.5322 68.8096 70.5322 68.8528 70.5322 68.8984C70.5317 69.0251 70.5239 69.1517 70.5089 69.2775C70.5089 69.2775 68.3524 68.8192 67.7731 69.1287C67.1939 69.4382 66.0586 69.6806 65.8865 69.8485C65.7143 70.0165 65.2863 69.8941 64.9001 70.9307C64.5139 71.9673 64.4721 73.0254 63.9696 73.5125C63.4671 73.9996 63.2205 74.3284 63.1972 74.6811C63.174 75.0338 63.2624 75.1226 63.0693 75.233C62.8762 75.3433 62.604 75.8064 62.6831 75.984C62.7127 76.1054 62.7064 76.2331 62.6649 76.3507C62.6234 76.4683 62.5487 76.5704 62.4505 76.6439C62.3487 76.7176 62.2675 76.8175 62.2148 76.9337C62.1622 77.0499 62.14 77.1783 62.1504 77.3061C62.1504 77.3061 62.0201 77.786 61.72 77.9036C61.4199 78.0211 61.2268 78.741 61.2268 78.741L60.2544 79.8927L58.3282 77.6948C58.1835 77.5305 57.9817 77.432 57.7668 77.4208C57.5519 77.4095 57.3414 77.4865 57.1813 77.6348L56.2345 78.513C55.8697 78.6045 55.5398 78.8067 55.2877 79.0937C55.0825 79.3132 54.9164 79.5683 54.7969 79.8471L54.2804 80.327C54.1172 80.5355 54.0174 80.7891 53.9934 81.0559C53.9694 81.3226 54.0223 81.5908 54.1455 81.8267L55.3808 83.2352V83.2472C54.9432 83.2869 54.5273 83.4617 54.1874 83.7487C52.3449 85.4283 52.3263 86.9712 52.6008 87.6766C52.8753 88.3821 55.2156 91.0959 55.2156 91.0959C55.2156 91.0959 56.5742 92.9171 58.5353 93.8841L58.5213 93.9009C58.4809 93.9443 58.4429 93.9899 58.4073 94.0376L58.3747 94.0808L58.3445 94.124L58.3096 94.1768C58.3002 94.1906 58.2917 94.2051 58.284 94.22L58.2468 94.2824C58.2382 94.2962 58.2304 94.3107 58.2235 94.3256C58.2073 94.3543 58.1933 94.3831 58.1793 94.4119C58.1742 94.4213 58.1696 94.4309 58.1654 94.4407C58.1468 94.4791 58.1282 94.5175 58.1119 94.5607L58.0933 94.6039C58.0816 94.6327 58.0723 94.6615 58.0607 94.6927C58.0535 94.7115 58.0472 94.7307 58.0421 94.7503L58.0142 94.8366C58.0066 94.857 58.0004 94.8778 57.9956 94.899C57.9956 94.9302 57.9769 94.9614 57.97 94.995C57.963 95.0286 57.9583 95.0334 57.9537 95.055C57.949 95.0766 57.9304 95.1582 57.9211 95.2134C57.9211 95.2326 57.9211 95.2541 57.9095 95.2757C57.8978 95.2973 57.8979 95.3501 57.8909 95.3885C57.8839 95.4269 57.8909 95.4413 57.8909 95.4701L57.8769 95.5781V95.6645C57.8769 95.7052 57.8769 95.746 57.8653 95.7892C57.8536 95.8324 57.8653 95.8396 57.8653 95.866C57.8653 95.9356 57.8653 96.0052 57.8653 96.0796C57.8234 98.6614 57.97 99.0357 57.97 99.0357C58.0656 99.2742 58.2217 99.4818 58.4219 99.6367C58.622 99.7916 58.8588 99.8882 59.1075 99.9163C59.2296 99.9262 59.3523 99.9197 59.4728 99.8971C60.5894 99.698 63.1949 99.2349 64.1254 99.4172C64.6814 99.5228 65.7073 99.3644 66.4378 99.2229L66.6309 99.1845L66.7635 99.6236L67.1869 99.5036L67.5475 99.7172L67.7801 99.8539C68.2035 101.332 69.9203 100.828 69.9203 100.828L70.3274 101.068L74.466 101.178C74.9306 101.467 75.4214 101.708 75.9316 101.898C75.999 101.921 76.0683 101.937 76.1386 101.946C76.5255 101.979 76.914 101.986 77.3018 101.968C77.6182 101.968 77.8624 101.946 77.8624 101.946C77.8624 101.946 77.8206 100.787 77.7601 99.4892C79.0429 99.4565 80.3229 99.3483 81.5939 99.1653C83.8039 98.767 84.7251 96.6938 85.0648 95.5853C85.1664 96.0381 85.2387 96.4974 85.2811 96.9602C85.3714 97.3671 85.4864 97.7678 85.6254 98.1599C85.7439 98.4733 85.9002 98.7699 86.0907 99.0429C87.7191 98.4694 86.7327 97.6032 86.3908 97.2337C86.0488 96.8642 86.6234 96.5499 86.6234 96.5499C86.6234 96.5499 87.0747 96.2403 87.0305 95.9548C86.9863 95.6693 86.9654 95.3597 88.4263 95.3813C89.8872 95.4029 89.7965 94.1528 89.7965 94.1528ZM67.1566 80.0655C67.1753 80.1903 67.3893 81.5508 67.5614 81.9083C67.6128 82.1443 67.6293 82.387 67.6103 82.6281C66.7472 82.5561 65.8469 82.5178 65.8469 82.5178C65.8722 82.5502 65.8883 82.5892 65.8935 82.6305L65.7562 82.5993L65.5608 82.5513L67.152 80.0535L67.1566 80.0655ZM64.0021 85.2388L65.498 85.4787L65.6236 85.4979C65.5813 85.7356 65.5556 85.9762 65.5468 86.2177C65.5468 86.2417 65.5794 86.2681 65.6283 86.2993C65.6074 86.4205 65.5981 86.5434 65.6003 86.6664C65.6236 86.7864 66.3215 87.0504 67.1241 87.2687C67.1125 87.3143 67.1031 87.3575 67.0915 87.3959C66.382 87.012 65.2677 86.832 65.1397 86.5465C65.0118 86.2609 61.2152 84.8932 61.2152 84.8932L60.8383 84.6989L61.8363 84.8932L62.1108 84.8644C62.7327 85.0314 63.3645 85.1564 64.0021 85.2388Z" fill="url(#paint0_linear)"/>
<path d="M84.9159 95.1126C84.9159 95.1126 84.3227 98.8174 81.3054 99.3645C78.2882 99.9115 68.2152 99.8036 68.2152 99.8036C68.2152 99.8036 62.4552 98.947 60.3731 93.9297C58.291 88.9124 56.9511 86.9136 58.7447 86.8272C60.5383 86.7408 70.1577 90.1865 70.709 90.2249C71.2603 90.2633 85.4486 82.597 84.9159 95.1126Z" fill="#65617D"/>
<path opacity="0.05" d="M84.9159 95.1126C84.9159 95.1126 84.3227 98.8174 81.3054 99.3645C78.2882 99.9115 68.2152 99.8036 68.2152 99.8036C68.2152 99.8036 62.4552 98.947 60.3731 93.9297C58.291 88.9124 56.9511 86.9136 58.7447 86.8272C60.5383 86.7408 70.1577 90.1865 70.709 90.2249C71.2603 90.2633 85.4486 82.597 84.9159 95.1126Z" fill="#20385C"/>
<path d="M57.9046 99.2373C57.9981 99.4745 58.1521 99.6812 58.3504 99.8354C58.5486 99.9896 58.7836 100.086 59.0305 100.113C59.1526 100.121 59.2753 100.114 59.3957 100.092C60.5007 99.8948 63.0923 99.4341 64.0065 99.6116C64.5555 99.7148 65.5722 99.5588 66.2956 99.4197C66.7772 99.3261 67.1308 99.2373 67.1308 99.2373C67.1308 99.2373 66.2794 96.3219 66.1747 96.2356C66.07 96.1492 62.3479 93.8361 62.3479 93.8361L59.4027 93.6177C59.0062 93.6789 58.6479 93.8955 58.4024 94.2224C58.093 94.6111 57.8255 95.247 57.8068 96.2907C57.758 98.8606 57.9046 99.2373 57.9046 99.2373Z" fill="#20385C"/>
<path opacity="0.05" d="M57.9048 99.2373C57.9983 99.4746 58.1524 99.6813 58.3506 99.8355C58.5489 99.9897 58.7839 100.086 59.0307 100.113C58.7423 99.7291 58.4751 99.3286 58.2305 98.9134L58.2468 96.7875C58.1883 96.2044 58.263 95.6153 58.465 95.0673C58.667 94.5194 58.9906 94.0279 59.4099 93.6322C59.4099 93.6322 57.8583 93.7402 57.8141 96.3052C57.7699 98.8702 57.9048 99.2373 57.9048 99.2373Z" fill="#20385C"/>
<path opacity="0.1" d="M70.6787 94.5871L73.4215 92.3724L77.7345 87.9886L76.5713 87.9334C76.3968 88.0486 75.9083 88.4133 75.8897 88.85C75.8688 89.3851 74.7265 88.8884 74.1287 89.1931C73.5308 89.4979 70.6229 93.3442 70.1134 93.3178C69.604 93.2914 69.1992 93.0515 68.9851 93.4258L68.9712 93.4498L70.6787 94.5871Z" fill="#20385C"/>
<path opacity="0.1" d="M58.3955 94.2272C58.4932 94.2752 58.5933 94.3232 58.6933 94.3664C60.7754 95.2878 63.346 97.2169 63.539 97.5673C63.6554 97.7808 65.1465 98.7142 66.2957 99.4148C66.7773 99.3213 67.1309 99.2325 67.1309 99.2325C67.1309 99.2325 66.2795 96.3171 66.1748 96.2307C66.0701 96.1444 62.348 93.8313 62.348 93.8313L59.4028 93.6129C59.0024 93.6747 58.641 93.8951 58.3955 94.2272Z" fill="#20385C"/>
<path d="M52.6169 87.9454C52.8915 88.646 55.2085 91.343 55.2085 91.343C55.2085 91.343 56.6741 93.3154 58.7585 94.2224C60.8429 95.1294 63.4111 97.073 63.6019 97.4233C63.7252 97.6488 65.3862 98.6806 66.554 99.3885L66.8169 99.5468L67.3961 99.8947L67.7032 100.075C67.7032 100.075 68.4151 99.4868 69.1246 98.8942C69.8341 98.3015 70.5204 97.7208 70.5204 97.6944C70.5204 97.668 70.8182 96.8834 70.753 96.8402C70.6879 96.797 70.5739 96.5139 70.304 96.1612C70.0192 95.7701 69.6485 95.4543 69.2223 95.2398C68.6057 94.9129 68.114 94.3812 67.8265 93.7305C67.8265 93.7305 67.7334 93.6609 67.5939 93.5673C67.3045 93.3622 66.9813 93.2134 66.6401 93.1282C66.1748 93.0682 65.3001 92.0821 65.3001 92.0821C64.9599 91.8537 64.6763 91.5464 64.4719 91.1847C64.2393 90.7048 60.9522 88.3677 60.6474 88.1517L68.6361 93.445L70.5483 94.7119L73.291 92.4996L77.6041 88.1157L76.1803 88.0486C74.0866 87.955 70.3645 87.8086 69.8993 87.919C69.5181 88.0095 69.1254 88.0362 68.7361 87.9982C68.7361 87.9982 67.6753 88.0462 66.9727 87.6646C66.2702 87.2831 65.1652 87.1032 65.0372 86.82C64.9093 86.5369 61.1499 85.1788 61.1499 85.1788C61.1499 85.1788 56.032 82.3738 54.2012 84.039C52.3704 85.7043 52.3401 87.2399 52.6169 87.9454Z" fill="#65617D"/>
<path d="M69.127 71.857L69.7853 74.1148L70.6368 79.1993L73.761 79.4177L74.6543 77.882L75.557 76.3368C75.557 76.3368 76.1199 74.2828 76.5247 72.2961C76.8806 70.5372 77.1156 68.8288 76.7271 68.6441C76.3805 68.4809 76.1548 67.8882 76.0059 67.25C75.9873 67.1732 75.971 67.0916 75.9571 67.01C75.8529 66.4706 75.7829 65.9248 75.7477 65.376C75.7477 65.376 69.2037 65.0257 70.118 67.809C70.2811 68.2845 70.3645 68.7852 70.3646 69.2895C70.3646 69.4191 70.3646 69.5463 70.3413 69.6662C70.2959 70.0979 70.1647 70.5153 69.9557 70.8923C69.7468 71.2692 69.4646 71.5976 69.127 71.857Z" fill="#EE8E9E"/>
<path d="M67.7686 71.485L68.0012 75.3242L68.5316 78.5898L69.1271 80.1039L69.6599 88.3773C69.6599 88.3773 74.7778 88.9892 76.0294 88.3653C76.1216 88.3288 76.2022 88.2665 76.262 88.1853C77.7671 85.841 77.274 79.0505 77.274 79.0505L77.8462 74.6667L77.4647 72.392L76.5342 72.2912L75.8223 72.2121C75.8223 72.2121 75.6618 72.416 75.4292 72.7327C74.7987 73.5894 73.6402 75.2786 73.7193 75.9816C73.824 76.9414 73.5914 77.9324 73.2285 78.086C72.8655 78.2395 72.5701 78.5035 72.5073 78.2395C72.4169 78.0183 72.3941 77.7738 72.4422 77.5389C72.5073 77.1646 72.1653 76.0248 72.1653 76.0248C72.1653 76.0248 71.593 74.6883 71.6349 74.1196C71.6768 73.551 71.5721 72.8911 71.4023 72.7375C71.2325 72.584 70.9975 72.4304 71.1883 71.7298C71.379 71.0291 70.3508 69.6638 70.3508 69.6638L67.7686 71.485Z" fill="#E3E8F4"/>
<path opacity="0.1" d="M74.5357 81.0637L74.7497 87.6167L75.9757 88.3197C76.0677 88.2816 76.1481 88.2186 76.2083 88.1374C77.7135 85.7931 77.2203 79.0026 77.2203 79.0026L77.7949 74.6188L77.4111 72.3441L76.4805 72.2433C76.8388 70.4845 77.0714 68.7784 76.6829 68.5913C76.3363 68.4281 76.1106 67.8354 75.9641 67.1996L75.3011 71.8354C75.3011 71.8354 75.3569 72.2529 75.3755 72.6848C75.4031 72.9579 75.385 73.2338 75.322 73.5006C75.2361 73.8594 75.2218 74.2325 75.2801 74.5972C74.8963 75.293 74.7055 76.5839 74.6125 77.8292C74.4869 79.4849 74.5357 81.0637 74.5357 81.0637Z" fill="#20385C"/>
<path d="M75.9827 67.0844C75.9827 67.0844 77.0551 67.2212 77.3947 67.6819C77.7344 68.1426 78.6277 68.2098 78.6277 68.2098C78.6277 68.2098 79.6466 68.5601 79.6257 68.6465C79.6048 68.7329 79.9235 68.8672 80.5562 69.0424C81.189 69.2175 82.2568 69.8534 82.2568 70.0022C82.2568 70.1509 83.9341 71.8642 83.9341 72.0393C83.9341 72.2145 84.4435 72.8719 84.3807 74.0333C84.3179 75.1946 84.2528 76.6727 84.5087 76.9126C84.7646 77.1526 84.5087 78.0956 84.5087 78.0956C84.4399 78.1982 84.4014 78.3192 84.3976 78.4439C84.3939 78.5686 84.4252 78.6918 84.4877 78.7986C84.6994 79.1921 84.4435 80.8358 84.4435 80.8358L84.4668 82.5466C84.4668 82.5466 84.2342 83.6192 84.5087 83.6648C84.7832 83.7103 84.4668 84.1902 84.4668 84.1902C84.4668 84.1902 84.2342 85.066 84.5296 85.462C84.8251 85.8579 84.9111 87.5423 84.9111 87.5423L89.4591 94.3592C89.4591 94.3592 89.5242 95.6093 88.0796 95.5877C86.6349 95.5661 86.6535 95.8733 86.6977 96.1564C86.7419 96.4395 86.293 96.7491 86.293 96.7491C86.293 96.7491 85.7207 97.0562 86.0603 97.4281C86.4 97.8 87.377 98.6567 85.7626 99.2253C85.5723 98.9548 85.416 98.6605 85.2973 98.3495C85.1605 97.9628 85.047 97.5678 84.9577 97.1666C84.9577 97.1666 84.8088 95.4989 84.511 95.2806C84.2132 95.0622 84.2551 94.0089 84.2551 94.0089C84.2551 94.0089 84.6808 93.1547 84.0853 92.8091C83.4897 92.4636 74.8637 87.5303 74.8637 87.5303L74.6543 80.975C74.6543 80.975 74.5054 76.1304 75.3988 74.5084C75.3404 74.1437 75.3547 73.7706 75.4406 73.4118C75.5895 73.0183 75.4197 71.7466 75.4197 71.7466L75.9827 67.0844Z" fill="#20385C"/>
<path opacity="0.1" d="M70.4132 69.7238C70.4132 69.7238 68.2777 69.2703 67.703 69.5775C67.1284 69.8846 66.0048 70.1246 65.842 70.2973C65.6791 70.4701 65.2488 70.3429 64.8649 71.3723C64.4811 72.4016 64.4415 73.455 63.9507 73.9373C63.4598 74.4196 63.2086 74.7483 63.1876 75.0987C63.1667 75.449 63.2504 75.5378 63.0597 75.6457C62.8689 75.7537 62.5944 76.2168 62.6758 76.392C62.7573 76.5671 67.0959 80.4255 67.0959 80.4255C67.0959 80.4255 67.3099 81.8939 67.5007 82.2659C67.6914 82.6378 67.289 87.7679 66.8632 88.1182C66.4375 88.4685 69.7223 88.4397 69.7223 88.4397C69.7223 88.4397 69.8712 85.0804 69.9991 84.8981C70.1271 84.7157 69.9131 81.1285 69.9131 81.1285C69.9131 81.1285 69.8921 78.0596 70.169 77.2486C70.4458 76.4376 70.4016 73.7406 70.4016 73.7406C70.4016 73.7406 70.6459 72.1233 70.9436 71.7466C71.2414 71.3699 70.4132 69.7238 70.4132 69.7238Z" fill="#20385C"/>
<path d="M70.3506 69.659C70.3506 69.659 68.215 69.2055 67.6404 69.5102C67.0658 69.815 65.9399 70.0597 65.7794 70.2301C65.6188 70.4004 65.1838 70.2733 64.8023 71.305C64.4208 72.3368 64.3766 73.3854 63.8881 73.8677C63.3995 74.35 63.1436 74.6787 63.1227 75.029C63.1018 75.3793 63.1878 75.4681 62.9948 75.5785C62.8017 75.6889 62.5295 76.1472 62.6132 76.3223C62.697 76.4975 67.0332 80.3558 67.0332 80.3558C67.0332 80.3558 67.2449 81.8243 67.438 82.1962C67.6311 82.5681 67.224 87.6982 66.7983 88.0485C66.3726 88.3988 69.669 88.3677 69.669 88.3677C69.669 88.3677 69.8179 85.0084 69.9435 84.8284C70.0691 84.6485 69.8597 81.0565 69.8597 81.0565C69.8597 81.0565 69.8388 77.99 70.1156 77.1789C70.3925 76.3679 70.3599 73.6709 70.3599 73.6709C70.3599 73.6709 70.6042 72.0537 70.9019 71.677C71.1997 71.3002 70.3506 69.659 70.3506 69.659Z" fill="#20385C"/>
<path opacity="0.1" d="M70.1273 67.8042C70.2904 68.2797 70.3737 68.7803 70.3738 69.2847C71.4177 69.6 72.5337 69.5471 73.5451 69.1342C74.5564 68.7212 75.4053 67.972 75.9571 67.0052C75.8529 66.4658 75.7829 65.92 75.7477 65.3712C75.7477 65.3712 69.213 65.0184 70.1273 67.8042Z" fill="#20385C"/>
<path d="M66.896 64.3394C66.8952 65.6259 67.373 66.8636 68.2309 67.7974C69.0889 68.7311 70.2615 69.2897 71.507 69.3578C72.7525 69.426 73.9759 68.9986 74.9248 68.1637C75.8737 67.3289 76.4759 66.1502 76.607 64.8709C76.7382 63.5916 76.3884 62.3091 75.6297 61.288C74.8711 60.2669 73.7614 59.585 72.5297 59.383C71.2979 59.181 70.0379 59.4742 69.0096 60.2022C67.9813 60.9302 67.2631 62.0375 67.003 63.2957C66.9317 63.6387 66.8958 63.9886 66.896 64.3394Z" fill="#EE8E9E"/>
<path d="M63.772 75.9625L62.6088 76.3344C62.6385 76.4554 62.6322 76.5828 62.5907 76.7001C62.5493 76.8174 62.4745 76.919 62.3762 76.9918C62.275 77.0647 62.1943 77.1639 62.1424 77.2794C62.0905 77.3949 62.0692 77.5225 62.0807 77.6493C62.0807 77.6493 61.9528 78.1292 61.655 78.242C61.3572 78.3547 61.1665 79.0746 61.1665 79.0746L60.1894 80.2359C60.1894 80.2359 59.8265 80.5431 59.8917 80.6966C59.9568 80.8502 59.5078 80.8934 59.5078 80.8934L59.7404 84.7949L61.7597 85.1908L63.0136 85.0589L64.0325 84.6653L64.9258 84.1159L65.3283 83.0433L67.1149 80.2359L63.772 75.9625Z" fill="#20385C"/>
<path d="M59.7984 81.1933C59.7984 81.1933 57.2068 77.3374 55.2713 79.4177C53.3358 81.498 56.0576 84.8765 56.695 84.7661C57.3325 84.6557 60.373 84.4806 60.373 84.4806L59.7984 81.1933Z" fill="#EE8E9E"/>
<path d="M65.9038 79.5259L54.4558 73.4991C54.2796 73.4063 54.0638 73.4785 53.9739 73.6602L49.5098 82.6813C49.4199 82.8631 49.4898 83.0856 49.666 83.1784L61.114 89.2052C61.2903 89.298 61.5061 89.2259 61.596 89.0441L66.06 80.0231C66.15 79.8413 66.0801 79.6187 65.9038 79.5259Z" fill="#20385C"/>
<path d="M64.8389 80.0618L54.6797 74.7134L50.7719 82.6103L60.9311 87.9587L64.8389 80.0618Z" fill="#F2C94C"/>
<path d="M52.3355 78.645C52.4383 78.645 52.5216 78.5591 52.5216 78.4531C52.5216 78.347 52.4383 78.2611 52.3355 78.2611C52.2327 78.2611 52.1494 78.347 52.1494 78.4531C52.1494 78.5591 52.2327 78.645 52.3355 78.645Z" fill="#E6E8EC"/>
<path d="M63.3319 84.5838C63.5027 84.5838 63.6413 84.4409 63.6413 84.2646C63.6413 84.0884 63.5027 83.9455 63.3319 83.9455C63.161 83.9455 63.0225 84.0884 63.0225 84.2646C63.0225 84.4409 63.161 84.5838 63.3319 84.5838Z" fill="#E6E8EC"/>
<path d="M58.1212 82.0043C58.0979 84.8981 63.8998 85.5123 63.8998 85.5123L65.3816 85.7523L66.047 85.8603L66.3238 83.0337C66.3238 83.0337 66.0191 82.9857 65.6399 82.8945C65.0769 82.7601 64.3487 82.5274 64.1975 82.1987C63.9533 81.654 58.1374 79.1105 58.1212 82.0043Z" fill="#EE8E9E"/>
<path opacity="0.1" d="M67.0029 63.2956C67.1363 63.3058 67.2621 63.3635 67.3589 63.4588C67.5217 63.6387 67.531 63.9579 67.745 64.0682C67.825 64.1031 67.9132 64.1131 67.9986 64.097C68.5639 64.0155 68.8896 63.358 69.434 63.1756C69.7504 63.0918 70.0851 63.1214 70.3831 63.2596C70.5042 63.3001 70.6131 63.372 70.6995 63.4684C70.8809 63.7083 70.753 64.0682 70.8367 64.361C70.953 64.7689 71.4253 64.9297 71.8324 64.9824C72.2395 65.0352 72.7001 65.0664 72.9723 65.3832C73.0624 65.5019 73.127 65.639 73.1619 65.7855C73.1968 65.9319 73.2012 66.0843 73.1747 66.2326C73.1502 66.3358 73.1502 66.4436 73.1747 66.5469C73.2864 66.8756 73.8377 66.8252 73.9819 66.5661C74.0889 66.3765 74.0564 66.2206 74.3053 66.1678C74.4831 66.1532 74.6616 66.1854 74.8241 66.2614C75.2572 66.4146 75.7133 66.487 76.171 66.4749C76.4622 65.8344 76.6188 65.1377 76.6306 64.4304C76.6424 63.7231 76.5092 63.0213 76.2396 62.3708C75.97 61.7204 75.5702 61.136 75.0663 60.6561C74.5625 60.1762 73.966 59.8115 73.3159 59.5861C72.6659 59.3606 71.9769 59.2794 71.2943 59.3477C70.6117 59.4161 69.9508 59.6325 69.3549 59.9827C68.7591 60.333 68.2417 60.8092 67.8368 61.3801C67.4319 61.9511 67.1485 62.6038 67.0053 63.2956H67.0029Z" fill="#20385C"/>
<path d="M73.1725 66.415C73.1481 66.3117 73.1481 66.2039 73.1725 66.1006C73.199 65.9527 73.1947 65.8007 73.1598 65.6546C73.1249 65.5086 73.0602 65.3719 72.9701 65.2536C72.6979 64.9345 72.2396 64.9057 71.8302 64.8505C71.4207 64.7953 70.9508 64.637 70.8345 64.229C70.7508 63.9363 70.8787 63.5788 70.6972 63.3388C70.6123 63.2407 70.5028 63.1685 70.3809 63.1301C70.0831 62.9912 69.7485 62.9608 69.4317 63.0437C68.8874 63.2261 68.5617 63.8835 67.9964 63.9651C67.911 63.9823 67.8225 63.9723 67.7428 63.9363C67.5288 63.8259 67.5102 63.5068 67.3566 63.3268C67.0984 63.0461 66.6076 63.2285 66.2935 63.0197C66.103 62.8558 65.98 62.6234 65.9492 62.3695C65.8085 61.8989 65.7767 61.4009 65.8562 60.9154C66.0399 60.102 66.7471 59.5429 67.1961 58.8446C67.6172 58.1968 67.8545 57.3762 68.4849 56.9466C69.1153 56.5171 69.9272 56.6131 70.6414 56.8315C70.9697 56.9523 71.3075 57.0438 71.651 57.105C72.2257 57.177 72.8026 57.0162 73.3795 56.997C74.1972 56.9698 75.0006 57.2229 75.664 57.7169C75.8136 57.8175 75.9405 57.9501 76.0362 58.1056C76.1321 58.3261 76.1888 58.5626 76.2037 58.8038C76.2716 59.2569 76.4241 59.692 76.6527 60.0852C76.8295 60.3947 77.0551 60.673 77.2156 60.9922C77.3951 61.305 77.4501 61.6774 77.3692 62.0311C77.3133 62.2111 77.2063 62.3743 77.1645 62.559C77.0714 62.9861 77.3436 63.3964 77.5297 63.7899C77.7108 64.1501 77.7966 64.5532 77.7786 64.9585C77.7687 65.1605 77.7183 65.3581 77.6306 65.539C77.5429 65.7199 77.4198 65.8801 77.2691 66.0095C76.9532 66.2355 76.5765 66.3539 76.192 66.3478C75.7258 66.3624 75.2608 66.2901 74.8195 66.1342C74.6567 66.0594 74.4785 66.0273 74.3007 66.0406C74.0518 66.0934 74.0844 66.2494 73.9774 66.439C73.8355 66.6933 73.2865 66.7437 73.1725 66.415Z" fill="#20385C"/>
<path opacity="0.1" d="M70.5509 94.7167L73.2937 92.5044L77.6067 88.1205L76.183 88.0533C76.0158 88.2092 75.9092 88.4224 75.8829 88.6532C75.8619 89.1883 74.7197 88.6892 74.1218 88.9963C73.524 89.3035 70.6161 93.1474 70.1066 93.121C69.5971 93.0946 69.1923 92.8547 68.9783 93.2266L68.9644 93.2506C68.8795 93.3515 68.7652 93.4214 68.6387 93.4498L70.5509 94.7167Z" fill="#20385C"/>
<path d="M65.0259 94.5631L66.4031 99.1005L66.6194 99.8204L67.2754 99.6356L68.7224 99.2253L75.1617 97.4017C75.9728 97.3654 76.7666 97.1477 77.488 96.7635C78.7054 96.0599 80.0985 95.7466 81.4893 95.8637C82.3408 95.9452 83.2876 95.5661 84.0739 94.0689C84.0739 94.0689 85.8582 88.6341 81.3544 87.0768C76.8506 85.5195 76.6343 87.9046 76.6343 87.9046L76.5715 87.943C76.397 88.0582 75.9085 88.4229 75.8898 88.8596C75.8689 89.3947 74.7267 88.898 74.1288 89.2027C73.5309 89.5075 70.623 93.3538 70.1136 93.3274C69.6041 93.301 69.1993 93.0611 68.9853 93.4354L68.9713 93.4594C68.8131 93.6825 68.3409 93.7353 68.0269 93.7425C67.9292 93.7478 67.8314 93.7478 67.7337 93.7425L67.6919 93.7545L67.3662 93.8553L65.0259 94.5631Z" fill="#65617D"/>
<path opacity="0.1" d="M65.3818 85.7547L66.0472 85.8627L66.324 83.0361C66.324 83.0361 66.0193 82.9881 65.6401 82.8969C65.7401 83.2928 65.5121 84.8165 65.3818 85.7547Z" fill="#20385C"/>
<path opacity="0.1" d="M82.7595 72.5432C82.7595 72.5432 84.7346 71.9505 84.246 77.7381C83.9069 81.2704 82.4511 84.5898 80.1028 87.1848C80.1028 87.1848 75.8945 89.09 74.0032 88.7828C72.1119 88.4757 70.7324 88.4109 70.7324 88.4109C70.1365 88.1006 69.4844 87.9216 68.8178 87.8854C67.757 87.8422 65.526 87.1656 65.4818 86.9424C65.4376 86.7193 66.0355 83.5016 65.7796 83.2616C65.7796 83.2616 68.755 83.3864 69.0528 83.6072C69.3505 83.8279 69.7762 83.6719 70.095 83.6072C70.4137 83.5424 71.3907 82.669 73.3239 83.4368C73.3239 83.4368 73.9823 83.5016 74.2382 83.3264C74.4468 83.2262 74.6843 83.2107 74.9035 83.2832C75.0689 83.2266 75.2256 83.1458 75.3688 83.0433C75.4316 82.9569 75.9434 83.0433 75.9434 83.0433C75.9738 83.0573 76.0069 83.0644 76.0402 83.0642C76.0736 83.0639 76.1065 83.0562 76.1367 83.0416C76.167 83.027 76.1938 83.0059 76.2154 82.9797C76.237 82.9535 76.253 82.9228 76.2621 82.8897C76.3293 82.7109 76.4306 82.5477 76.5598 82.4098C76.5598 82.4098 77.1321 79.0794 78.2162 77.8292C78.3027 77.7512 78.3693 77.6523 78.4098 77.5414C78.4504 77.4305 78.4638 77.3109 78.4488 77.1934C78.3604 76.8383 80.2099 71.8402 82.7595 72.5432Z" fill="#20385C"/>
<path d="M82.7057 72.0969C82.7057 72.0969 84.6831 71.5066 84.1945 77.2917C83.8562 80.8244 82.4003 84.144 80.0513 86.7385C80.0513 86.7385 75.843 88.646 73.9517 88.3389C72.0604 88.0318 70.6786 87.9598 70.6786 87.9598C70.0836 87.6492 69.4322 87.4703 68.7663 87.4343C67.7032 87.3887 65.4722 86.7145 65.4303 86.4913C65.3885 86.2682 65.9817 83.0505 65.7281 82.8081C65.7281 82.8081 68.7035 82.9353 69.0013 83.1561C69.299 83.3768 69.7224 83.2184 70.0411 83.1561C70.3598 83.0937 71.3369 82.2179 73.2724 82.9833C73.2724 82.9833 73.9308 83.0505 74.1843 82.8753C74.393 82.7759 74.63 82.7596 74.8497 82.8297C75.0145 82.7717 75.171 82.691 75.3149 82.5898C75.3777 82.501 75.8872 82.5898 75.8872 82.5898C75.9177 82.6038 75.9507 82.6109 75.9841 82.6106C76.0174 82.6104 76.0503 82.6027 76.0806 82.5881C76.1108 82.5735 76.1376 82.5524 76.1593 82.5262C76.1809 82.5 76.1968 82.4693 76.2059 82.4362C76.2732 82.2574 76.3744 82.0942 76.5037 81.9563C76.5037 81.9563 77.0783 78.6259 78.1624 77.3757C78.2489 77.2977 78.3154 77.1988 78.356 77.0879C78.3966 76.977 78.41 76.8574 78.395 76.7399C78.3089 76.3943 80.156 71.4034 82.7057 72.0969Z" fill="#20385C"/>
<path opacity="0.1" d="M67.3589 93.8433L70.1644 97.3466L70.183 97.3274C70.204 97.2602 70.4808 96.5163 70.4157 96.4708C70.3505 96.4252 69.8643 95.331 68.8873 94.8703C68.3903 94.6204 67.973 94.2291 67.6846 93.7426L67.3589 93.8433Z" fill="#20385C"/>
<path opacity="0.1" d="M67.396 99.9067L67.7031 100.087C67.7031 100.087 68.415 99.4988 69.1245 98.9062C69.834 98.3135 70.5203 97.7328 70.5203 97.7064C70.5203 97.68 70.8181 96.8954 70.7529 96.8522C70.6878 96.809 70.5738 96.5259 70.304 96.1732C68.401 95.6237 69.6061 96.9866 69.7736 97.049C69.7736 97.049 67.4589 96.4995 67.3309 99.1029C67.3199 99.3726 67.3417 99.6427 67.396 99.9067Z" fill="#20385C"/>
<path d="M69.7432 101.008L70.148 101.248L74.2493 101.356C74.7092 101.644 75.1954 101.886 75.7009 102.076C75.7679 102.097 75.8364 102.112 75.9057 102.122C76.2864 102.154 76.6686 102.161 77.0502 102.143C77.3643 102.143 77.6062 102.122 77.6062 102.122C77.6062 102.122 77.4131 96.7875 77.2666 96.226C77.1968 95.9573 76.8525 96.0148 76.5128 96.1492C76.2582 96.2567 76.0124 96.3851 75.7777 96.5331C75.7777 96.5331 74.0376 96.7083 73.7608 96.8619C73.4839 97.0154 72.6976 96.7731 72.2091 96.8619C71.7206 96.9506 70.8482 96.2692 70.8482 96.2692C68.4684 95.4582 69.8083 96.9698 69.9782 97.037C69.9782 97.037 67.6518 96.4875 67.5332 99.091C67.4145 101.694 69.7432 101.008 69.7432 101.008Z" fill="#20385C"/>
<path d="M75.673 98.9493C75.7172 100.053 76.5523 101.423 77.0502 102.148C77.3642 102.148 77.6062 102.126 77.6062 102.126C77.6062 102.126 77.4131 96.7922 77.2665 96.2307C77.1967 95.962 76.8524 96.0196 76.5128 96.1539C76.101 96.9506 75.6358 98.0567 75.673 98.9493Z" fill="#565387"/>
<path opacity="0.1" d="M75.673 98.9493C75.7172 100.053 76.5523 101.423 77.0502 102.148C77.3642 102.148 77.6062 102.126 77.6062 102.126C77.6062 102.126 77.4131 96.7922 77.2665 96.2307C77.1967 95.962 76.8524 96.0196 76.5128 96.1539C76.101 96.9506 75.6358 98.0567 75.673 98.9493Z" fill="#20385C"/>
<path opacity="0.05" d="M74.9705 99.0957C75.2543 100.161 75.2496 101.356 75.7009 102.081C75.7679 102.101 75.8364 102.116 75.9057 102.126C76.2864 102.158 76.6686 102.165 77.0502 102.148C77.3643 102.148 77.6062 102.126 77.6062 102.126C77.6062 102.126 77.4131 96.7922 77.2666 96.2307C77.1968 95.962 76.8525 96.0196 76.5128 96.1539C76.2582 96.2614 76.0124 96.3898 75.7777 96.5379C75.7777 96.5379 74.6099 97.7304 74.9705 99.0957Z" fill="#20385C"/>
<path opacity="0.1" d="M60.8218 88.2813C60.8218 88.2813 62.8596 88.9628 64.5858 91.3863L60.8218 88.2813Z" fill="#20385C"/>
<g opacity="0.1">
<path opacity="0.1" d="M77.3757 61.9783C77.3757 61.9951 77.3757 62.0095 77.3641 62.0263C77.3445 62.0889 77.3204 62.1498 77.292 62.2087C77.3144 62.1299 77.3424 62.0529 77.3757 61.9783Z" fill="#20385C"/>
<path opacity="0.1" d="M65.8513 60.9154C65.8859 60.7619 65.939 60.6136 66.0095 60.4739C66.0095 60.5099 65.9863 60.5483 65.977 60.5867C65.8994 61.0724 65.9321 61.5701 66.0723 62.0407C66.1032 62.2941 66.2252 62.5262 66.4143 62.691C66.7307 62.8997 67.2215 62.7174 67.4798 62.9981C67.6426 63.1781 67.6519 63.4972 67.8659 63.6076C67.9457 63.6435 68.0341 63.6536 68.1195 63.6364C68.6848 63.5548 69.0105 62.8973 69.5549 62.715C69.8715 62.6309 70.2065 62.6614 70.504 62.8014C70.626 62.8398 70.7354 62.912 70.8204 63.0101C71.0018 63.2501 70.8739 63.6076 70.9576 63.9003C71.0739 64.3082 71.5462 64.469 71.9533 64.5218C72.3604 64.5746 72.821 64.6058 73.0932 64.9249C73.1834 65.0431 73.2481 65.1798 73.283 65.3259C73.3179 65.4719 73.3222 65.624 73.2956 65.7719C73.2712 65.8752 73.2712 65.983 73.2956 66.0862C73.4073 66.415 73.9586 66.3646 74.1028 66.1054C74.2098 65.9159 74.1773 65.7599 74.4262 65.7071C74.604 65.6938 74.7822 65.7259 74.945 65.8007C75.3863 65.9565 75.8513 66.0289 76.3175 66.0142C76.702 66.0203 77.0787 65.902 77.3946 65.6759C77.5327 65.564 77.6455 65.4224 77.7249 65.2608C77.6531 65.5547 77.4896 65.816 77.2597 66.0046C76.9437 66.2307 76.5671 66.349 76.1826 66.343C75.7163 66.3576 75.2514 66.2853 74.81 66.1294C74.6472 66.0546 74.469 66.0225 74.2913 66.0358C74.0424 66.0886 74.0749 66.2446 73.9702 66.4342C73.8237 66.6933 73.2723 66.7437 73.1607 66.415C73.1374 66.3115 73.1374 66.204 73.1607 66.1006C73.1872 65.9527 73.1829 65.8007 73.148 65.6546C73.1131 65.5085 73.0484 65.3718 72.9583 65.2536C72.6861 64.9345 72.2278 64.9057 71.8184 64.8505C71.4089 64.7953 70.939 64.637 70.8227 64.229C70.739 63.9363 70.8669 63.5788 70.6855 63.3388C70.6011 63.2411 70.4925 63.1689 70.3714 63.1301C70.0728 62.9912 69.7374 62.9608 69.4199 63.0437C68.8779 63.2261 68.5499 63.8835 67.9846 63.9651C67.8992 63.9823 67.8107 63.9723 67.731 63.9363C67.517 63.8259 67.4984 63.5068 67.3448 63.3268C67.0866 63.0461 66.5981 63.2285 66.2817 63.0197C66.0912 62.8558 65.9682 62.6234 65.9374 62.3695C65.7991 61.8983 65.7696 61.4004 65.8513 60.9154Z" fill="#20385C"/>
</g>
<path opacity="0.1" d="M77.7065 78.4603C77.3157 79.0026 76.8713 79.5041 76.5271 80.0752C76.1531 80.6381 75.9714 81.3135 76.0106 81.9947C76.3665 81.618 76.5317 81.0949 76.755 80.6222C77.1365 79.8208 77.7042 79.1418 78.1857 78.4075C78.2764 78.266 78.8627 77.4477 78.5672 77.4141C78.3206 77.3781 77.8391 78.2756 77.7065 78.4603Z" fill="#20385C"/>
<path d="M79.7999 129.802C80.0814 130.733 80.3652 131.666 80.7165 132.571C81.3494 134.143 82.1458 135.641 83.0917 137.036C83.7015 137.955 84.3569 138.841 85.0551 139.69C85.9298 140.753 86.9162 141.823 87.214 143.181C87.3931 143.966 87.3326 144.784 87.407 145.581C87.4815 146.377 87.7351 147.232 88.3655 147.711C88.8145 148.055 89.3891 148.158 89.9404 148.246C90.3359 148.311 90.8291 148.333 91.0338 147.98C91.1054 147.836 91.1428 147.677 91.1431 147.515L91.2385 146.341C91.2571 146.087 91.3455 145.763 91.5921 145.751C91.8387 145.739 91.962 146.077 92.1714 146.231C92.4505 146.432 92.8693 146.231 93.0228 145.926C93.1503 145.596 93.1585 145.23 93.0461 144.894C92.8767 144.227 92.572 143.603 92.1522 143.066C91.7324 142.528 91.2069 142.088 90.6104 141.775C90.1961 141.603 89.7988 141.39 89.424 141.139C89.0433 140.798 88.7277 140.386 88.4934 139.925C86.3346 136.259 84.1641 132.573 82.6404 128.583C82.3402 127.87 82.1374 127.117 82.0379 126.347C81.9634 125.562 82.0821 124.772 82.1309 123.985C82.2211 122.572 82.0939 121.152 81.7541 119.779C81.6798 119.419 81.5485 119.073 81.3656 118.757C80.7374 117.776 79.2719 117.629 78.3413 118.306C77.9987 118.578 77.7146 118.92 77.5072 119.311C77.2997 119.703 77.1734 120.134 77.1363 120.578C77.0688 121.375 77.5132 122.2 77.7388 122.942C78.4227 125.231 79.1098 127.517 79.7999 129.802Z" fill="#A1616A"/>
<path opacity="0.05" d="M79.7999 129.802C80.0814 130.733 80.3652 131.666 80.7165 132.571C81.3494 134.143 82.1458 135.641 83.0917 137.036C83.7015 137.955 84.3569 138.841 85.0551 139.69C85.9298 140.753 86.9162 141.823 87.214 143.181C87.3931 143.966 87.3326 144.784 87.407 145.581C87.4815 146.377 87.7351 147.232 88.3655 147.711C88.8145 148.055 89.3891 148.158 89.9404 148.246C90.3359 148.311 90.8291 148.333 91.0338 147.98C91.1054 147.836 91.1428 147.677 91.1431 147.515L91.2385 146.341C91.2571 146.087 91.3455 145.763 91.5921 145.751C91.8387 145.739 91.962 146.077 92.1714 146.231C92.4505 146.432 92.8693 146.231 93.0228 145.926C93.1503 145.596 93.1585 145.23 93.0461 144.894C92.8767 144.227 92.572 143.603 92.1522 143.066C91.7324 142.528 91.2069 142.088 90.6104 141.775C90.1961 141.603 89.7988 141.39 89.424 141.139C89.0433 140.798 88.7277 140.386 88.4934 139.925C86.3346 136.259 84.1641 132.573 82.6404 128.583C82.3402 127.87 82.1374 127.117 82.0379 126.347C81.9634 125.562 82.0821 124.772 82.1309 123.985C82.2211 122.572 82.0939 121.152 81.7541 119.779C81.6798 119.419 81.5485 119.073 81.3656 118.757C80.7374 117.776 79.2719 117.629 78.3413 118.306C77.9987 118.578 77.7146 118.92 77.5072 119.311C77.2997 119.703 77.1734 120.134 77.1363 120.578C77.0688 121.375 77.5132 122.2 77.7388 122.942C78.4227 125.231 79.1098 127.517 79.7999 129.802Z" fill="#20385C"/>
<path d="M66.2379 169.004C66.6588 169.155 67.1063 169.211 67.5499 169.167C67.5825 168.793 68.071 168.709 68.4339 168.728C68.6094 168.722 68.7834 168.764 68.9387 168.848C69.0295 168.908 69.0992 168.995 69.1876 169.057C69.3453 169.146 69.522 169.193 69.7018 169.194L71.5907 169.357C72.4329 169.431 73.3099 169.499 74.0985 169.189C74.2556 169.138 74.3953 169.041 74.501 168.911C74.715 168.594 74.501 168.141 74.2055 167.91C73.9101 167.68 73.5286 167.577 73.2308 167.342C72.5748 166.826 72.4841 165.861 72.1374 165.088C71.8911 164.601 71.5871 164.148 71.2325 163.737C70.9756 163.385 70.6761 163.069 70.3415 162.795C69.5831 162.231 68.7131 162.243 67.8221 162.161C67.194 162.103 66.6031 162.065 66.1518 162.641C65.5935 163.361 65.8168 164.8 65.8517 165.64C65.8953 166.77 66.0244 167.895 66.2379 169.004Z" fill="#514E7F"/>
<path opacity="0.05" d="M66.2379 169.004C66.6588 169.155 67.1063 169.211 67.5499 169.167C67.5825 168.793 68.071 168.709 68.4339 168.728C68.6094 168.722 68.7834 168.764 68.9387 168.848C69.0295 168.908 69.0992 168.995 69.1876 169.057C69.3453 169.146 69.522 169.193 69.7018 169.194L71.5907 169.357C72.4329 169.431 73.3099 169.499 74.0985 169.189C74.2556 169.138 74.3953 169.041 74.501 168.911C74.715 168.594 74.501 168.141 74.2055 167.91C73.9101 167.68 73.5286 167.577 73.2308 167.342C72.5748 166.826 72.4841 165.861 72.1374 165.088C71.8911 164.601 71.5871 164.148 71.2325 163.737C70.9756 163.385 70.6761 163.069 70.3415 162.795C69.5831 162.231 68.7131 162.243 67.8221 162.161C67.194 162.103 66.6031 162.065 66.1518 162.641C65.5935 163.361 65.8168 164.8 65.8517 165.64C65.8953 166.77 66.0244 167.895 66.2379 169.004Z" fill="#20385C"/>
<path d="M67.0007 131.105C66.4238 131.297 66.1725 132.038 66.2795 132.655C66.3865 133.271 66.7448 133.804 67.0402 134.351C67.8824 135.904 68.2453 137.679 68.9525 139.299C69.4806 140.499 70.1947 141.626 70.7158 142.84C71.2369 144.055 71.5603 145.425 71.2439 146.713C71.0904 147.339 70.7926 147.913 70.5949 148.53C70.3991 149.198 70.2713 149.886 70.2133 150.581C69.9572 152.944 69.9112 155.326 70.0761 157.698C70.0775 157.987 70.1361 158.273 70.2482 158.538C70.3669 158.778 70.5716 159.018 70.4809 159.258C70.4413 159.356 70.3553 159.428 70.3134 159.524C70.1924 159.793 70.4344 160.078 70.6554 160.27C70.6159 160.342 70.5628 160.406 70.4993 160.456C70.4358 160.507 70.3631 160.544 70.2855 160.565C70.444 160.669 70.5658 160.823 70.6328 161.005C70.6999 161.186 70.7086 161.384 70.6577 161.571C70.4623 161.602 70.4506 161.911 70.5739 162.075C70.6972 162.238 70.8926 162.339 70.981 162.523C71.0331 162.674 71.0274 162.839 70.9651 162.985C70.9028 163.132 70.7887 163.248 70.646 163.31C70.3554 163.426 70.0384 163.451 69.7341 163.382C69.2183 163.308 68.7088 163.193 68.2104 163.037C67.9498 162.984 67.7165 162.836 67.5532 162.62C67.39 162.404 67.3078 162.135 67.3217 161.861C67.2065 160.884 67.1715 159.9 67.217 158.917C67.2985 154.156 67.217 149.391 67.017 144.633C66.9356 142.713 66.3772 140.854 65.6584 139.088C65.261 138.185 64.8192 137.304 64.3347 136.448C63.2972 134.49 62.3806 132.321 62.6179 130.102C62.6435 129.862 62.7272 129.576 62.9575 129.538C63.0475 129.528 63.1385 129.544 63.2204 129.583C63.6983 129.814 64.1607 130.077 64.6046 130.37C65.3339 130.812 66.1562 131.063 67.0007 131.105Z" fill="#20385C"/>
<path opacity="0.05" d="M67.0007 131.105C66.4238 131.297 66.1725 132.038 66.2795 132.655C66.3865 133.271 66.7448 133.804 67.0402 134.351C67.8824 135.904 68.2453 137.679 68.9525 139.299C69.4806 140.499 70.1947 141.626 70.7158 142.84C71.2369 144.055 71.5603 145.425 71.2439 146.713C71.0904 147.339 70.7926 147.913 70.5949 148.53C70.3991 149.198 70.2713 149.886 70.2133 150.581C69.9572 152.944 69.9112 155.326 70.0761 157.698C70.0775 157.987 70.1361 158.273 70.2482 158.538C70.3669 158.778 70.5716 159.018 70.4809 159.258C70.4413 159.356 70.3553 159.428 70.3134 159.524C70.1924 159.793 70.4344 160.078 70.6554 160.27C70.6159 160.342 70.5628 160.406 70.4993 160.456C70.4358 160.507 70.3631 160.544 70.2855 160.565C70.444 160.669 70.5658 160.823 70.6328 161.005C70.6999 161.186 70.7086 161.384 70.6577 161.571C70.4623 161.602 70.4506 161.911 70.5739 162.075C70.6972 162.238 70.8926 162.339 70.981 162.523C71.0331 162.674 71.0274 162.839 70.9651 162.985C70.9028 163.132 70.7887 163.248 70.646 163.31C70.3554 163.426 70.0384 163.451 69.7341 163.382C69.2183 163.308 68.7088 163.193 68.2104 163.037C67.9498 162.984 67.7165 162.836 67.5532 162.62C67.39 162.404 67.3078 162.135 67.3217 161.861C67.2065 160.884 67.1715 159.9 67.217 158.917C67.2985 154.156 67.217 149.391 67.017 144.633C66.9356 142.713 66.3772 140.854 65.6584 139.088C65.261 138.185 64.8192 137.304 64.3347 136.448C63.2972 134.49 62.3806 132.321 62.6179 130.102C62.6435 129.862 62.7272 129.576 62.9575 129.538C63.0475 129.528 63.1385 129.544 63.2204 129.583C63.6983 129.814 64.1607 130.077 64.6046 130.37C65.3339 130.812 66.1562 131.063 67.0007 131.105Z" fill="#20385C"/>
<path d="M59.2006 125.317C58.8998 125.118 58.5529 125.005 58.1957 124.991C57.7816 125.012 57.428 125.293 57.1046 125.562C56.7215 125.865 56.3578 126.194 56.0159 126.546C55.3079 127.324 54.8146 128.284 54.5872 129.325C54.3597 130.366 54.4065 131.451 54.7225 132.468C55.0644 133.526 55.6902 134.459 56.309 135.373L57.5652 137.235C59.4821 140.074 61.399 142.912 63.4067 145.684C63.4071 145.752 63.4285 145.818 63.4678 145.873C63.5071 145.928 63.5623 145.968 63.6253 145.989C63.6974 146.008 63.7882 146.005 63.8324 146.068C63.8528 146.107 63.8617 146.151 63.858 146.195C63.8535 146.4 63.8157 146.603 63.7463 146.795C63.7137 146.858 63.7054 146.932 63.723 147.001C63.7882 147.157 64.0627 147.068 64.1511 147.215C64.2092 147.311 64.1371 147.435 64.0603 147.517C63.9836 147.599 63.8882 147.69 63.9022 147.803C63.9161 147.915 64.1069 148.043 64.0999 148.182C64.0999 148.263 64.0301 148.326 63.9813 148.39C63.9129 148.494 63.8817 148.618 63.8932 148.743C63.9047 148.867 63.9581 148.984 64.0441 149.072C64.1767 150.425 63.4625 151.711 63.3206 153.06C63.0879 155.191 64.0301 157.271 64.1441 159.409C64.1373 159.649 64.1817 159.889 64.2744 160.109C64.4675 160.479 64.9723 160.702 64.9467 161.122C64.9102 161.295 64.8628 161.465 64.8048 161.631C64.7652 161.871 64.8769 162.111 64.8815 162.351C64.8862 162.591 64.6792 162.886 64.4605 162.79C64.6249 163.356 64.7714 163.927 64.9002 164.503L69.2969 164.877C69.3443 164.47 69.331 164.057 69.2574 163.654C69.1666 163.214 68.9759 162.806 68.8759 162.372C68.8108 162.158 68.7925 161.932 68.8223 161.71C68.8521 161.488 68.9291 161.276 69.048 161.088C68.9334 161.09 68.822 161.049 68.7335 160.974C68.6449 160.899 68.585 160.794 68.5641 160.678C68.5273 160.444 68.5313 160.205 68.5758 159.973C68.6921 158.79 68.2105 157.624 68.2245 156.436C68.2384 155.5 68.5572 154.6 68.7177 153.681C69.062 151.714 68.7037 149.581 69.5528 147.783C70.0669 146.701 70.7788 145.502 70.2019 144.453C69.918 143.935 69.4156 143.58 69.0876 143.09C68.8202 142.627 68.6195 142.127 68.492 141.605C67.8151 139.445 66.7193 137.439 65.7586 135.385C65.4919 134.871 65.2939 134.321 65.17 133.751C65.1021 133.251 65.0772 132.746 65.0956 132.242C65.0956 131.337 65.042 130.432 64.9351 129.533C64.9133 129.139 64.8043 128.756 64.6163 128.412C64.4265 128.153 64.1895 127.933 63.9184 127.767C62.4761 126.747 60.7593 126.164 59.2006 125.317Z" fill="#20385C"/>
<path d="M64.4698 170.667C64.8919 170.816 65.3399 170.871 65.7842 170.828C65.8167 170.454 66.3029 170.37 66.6658 170.389C66.8414 170.383 67.0154 170.424 67.1707 170.509C67.2614 170.569 67.3312 170.658 67.4219 170.718C67.5791 170.808 67.7561 170.855 67.936 170.854L69.8227 171.017C70.6671 171.092 71.5418 171.161 72.3328 170.85C72.4896 170.799 72.6287 170.702 72.7329 170.571C72.9469 170.254 72.7329 169.803 72.4375 169.573C72.142 169.343 71.7605 169.237 71.4651 169.002C70.8067 168.486 70.7183 167.524 70.3694 166.751C70.1252 166.263 69.8219 165.808 69.4667 165.398C69.209 165.046 68.9088 164.73 68.5734 164.457C67.8174 163.891 66.945 163.903 66.0563 163.821C65.4259 163.764 64.835 163.728 64.386 164.301C63.8277 165.021 64.051 166.461 64.0836 167.303C64.1273 168.433 64.2564 169.558 64.4698 170.667Z" fill="#514E7F"/>
<path d="M83.9574 117.464C86.3626 117.464 88.3123 115.453 88.3123 112.972C88.3123 110.491 86.3626 108.48 83.9574 108.48C81.5523 108.48 79.6025 110.491 79.6025 112.972C79.6025 115.453 81.5523 117.464 83.9574 117.464Z" fill="#A1616A"/>
<path d="M79.8492 114.306C79.2257 114.86 78.3301 114.901 77.5112 114.987C75.7602 115.173 74.0558 115.682 72.4794 116.489C72.2612 116.586 72.0636 116.727 71.8978 116.902C71.7563 117.093 71.6556 117.312 71.6023 117.545C71.4525 118.051 71.3965 118.581 71.4372 119.107C71.4942 119.618 71.6367 120.115 71.8582 120.576C72.4626 121.866 73.3953 122.963 74.5568 123.75C74.7615 123.907 74.9937 124.022 75.2407 124.089C75.813 124.211 76.3667 123.87 76.932 123.717C77.4462 123.578 77.9881 123.596 78.4929 123.767C78.9582 123.93 79.4677 124.228 79.9283 124.029C80.2231 123.859 80.4522 123.589 80.5773 123.266C81.0222 122.398 81.4191 121.506 81.7661 120.593C81.8907 120.236 82.0344 119.887 82.1965 119.546C82.7013 118.555 83.5736 117.79 84.0087 116.761C84.0528 116.682 84.0795 116.594 84.0867 116.504C84.094 116.413 84.0816 116.322 84.0505 116.238C83.9699 116.123 83.8582 116.035 83.7295 115.986C83.0863 115.606 82.5001 115.131 81.9894 114.577C81.7033 114.294 81.1775 113.529 80.7658 113.461C80.3028 113.38 80.1632 114.028 79.8492 114.306Z" fill="#A1616A"/>
<path d="M79.9515 123.434C79.4467 123.674 78.8511 123.57 78.3045 123.453C76.8947 123.148 75.4687 122.841 74.1636 122.212C73.7559 122.051 73.4025 121.771 73.147 121.406C72.9882 121.094 72.8917 120.752 72.8632 120.401L72.6305 118.721C72.5468 118.138 72.691 117.598 72.705 117.008C72.7139 116.942 72.71 116.876 72.6936 116.812C72.6772 116.748 72.6487 116.688 72.6096 116.636C72.53 116.567 72.4271 116.533 72.3235 116.542C71.6698 116.554 71.2743 117.262 70.816 117.742C70.5511 118.019 70.2346 118.238 69.8855 118.385C69.4667 118.563 68.9549 118.687 68.7805 119.119C68.7107 119.299 68.72 119.503 68.6455 119.683C68.3524 120.403 67.1032 120.163 66.7845 120.883C66.6937 121.084 66.7007 121.336 66.5518 121.495C66.4029 121.653 66.1238 121.651 65.8935 121.689C64.9839 121.843 64.5442 122.925 63.7672 123.436C63.1135 123.868 62.2714 123.858 61.5665 124.194C61.1757 124.381 60.8291 124.674 60.415 124.796C60.0009 124.919 59.5333 124.854 59.089 124.866C59.0416 124.861 58.9938 124.867 58.9486 124.882C58.9033 124.898 58.8616 124.922 58.8261 124.955C58.7985 124.998 58.7802 125.047 58.7726 125.099C58.765 125.15 58.7681 125.202 58.7819 125.252C58.9973 126.671 59.5674 128.008 60.4358 129.13C61.3043 130.253 62.4412 131.123 63.7346 131.654C63.8848 131.703 64.0274 131.775 64.158 131.865C64.5535 132.17 64.6233 132.825 65.0723 133.041C65.2343 133.1 65.409 133.111 65.5769 133.074C65.7449 133.037 65.8995 132.952 66.0238 132.83C66.2715 132.584 66.5045 132.323 66.7217 132.048C67.1316 131.606 67.6697 131.314 68.2547 131.215C68.7944 131.126 69.3969 131.191 69.8343 130.848C70.0132 130.679 70.1796 130.496 70.3321 130.301C70.6562 129.989 71.0407 129.752 71.4604 129.605C72.6071 129.138 73.819 128.863 75.0499 128.792C76.1968 128.727 77.3762 128.835 78.4603 128.451C78.7418 128.361 79.0012 128.209 79.221 128.007C79.4541 127.747 79.6275 127.436 79.7282 127.098C80.1193 125.919 80.1964 124.654 79.9515 123.434Z" fill="#F2C94C"/>
<path d="M74.338 116.813C74.6591 116.782 74.9824 116.813 75.3058 116.813C75.685 116.813 76.0595 116.717 76.4387 116.715C77.0392 116.725 77.6208 116.933 78.0988 117.308C78.5767 117.683 78.9259 118.206 79.0954 118.8C79.1273 118.895 79.133 118.997 79.1117 119.095C79.0992 119.144 79.0702 119.186 79.03 119.214C78.9899 119.242 78.9413 119.255 78.893 119.249C78.7671 118.894 78.6024 118.555 78.4021 118.239C78.0416 117.731 77.5277 117.361 76.9412 117.188C76.3565 117.017 75.7405 116.994 75.1453 117.121C74.8963 117.169 74.6544 117.236 74.4125 117.305L73.2493 117.636C73.0353 117.696 72.8189 117.756 72.6119 117.836C72.4514 117.898 72.1769 118.126 72.0187 118.136C71.8046 118.136 71.9768 117.944 72.0722 117.814C72.2621 117.547 72.528 117.347 72.8329 117.243C73.3163 117.039 73.8216 116.895 74.338 116.813Z" fill="#F2C94C"/>
<path d="M77.2737 130.306C77.5552 131.237 77.8367 132.17 78.1903 133.075C78.8222 134.648 79.6187 136.145 80.5654 137.54C81.1753 138.459 81.8306 139.345 82.5289 140.194C83.4012 141.257 84.376 142.327 84.6877 143.683C84.8668 144.47 84.8063 145.288 84.8808 146.082C84.9552 146.876 85.2088 147.733 85.8369 148.213C86.2882 148.554 86.8628 148.657 87.4142 148.748C87.8073 148.813 88.3005 148.834 88.5075 148.482C88.5778 148.337 88.6152 148.178 88.6169 148.016L88.7099 146.843C88.7309 146.588 88.8193 146.265 89.0635 146.253C89.3078 146.241 89.4357 146.579 89.6451 146.732C89.9243 146.934 90.343 146.732 90.4966 146.428C90.623 146.098 90.6313 145.732 90.5198 145.396C90.3496 144.728 90.0447 144.106 89.6249 143.568C89.2052 143.03 88.6802 142.59 88.0841 142.277C87.6694 142.104 87.2713 141.891 86.8954 141.641C86.514 141.299 86.1983 140.886 85.9649 140.424C83.8037 136.76 81.6332 133.075 80.1118 129.082C79.8117 128.369 79.6082 127.618 79.507 126.848C79.4348 126.063 79.5512 125.274 79.6023 124.487C79.6925 123.073 79.5653 121.653 79.2255 120.281C79.1513 119.92 79.0192 119.574 78.8347 119.258C78.2089 118.275 76.741 118.131 75.8104 118.807C75.4675 119.079 75.183 119.421 74.9752 119.813C74.7673 120.204 74.6406 120.635 74.6031 121.08C74.5356 121.876 74.9822 122.702 75.2056 123.443C75.8926 125.734 76.582 128.021 77.2737 130.306Z" fill="#A1616A"/>
<path d="M90.292 109.795C90.3269 109.421 90.0012 109.075 89.6313 108.835C89.2417 108.629 88.8677 108.393 88.5124 108.13C88.182 107.835 88.0006 107.451 87.6702 107.156C87.2947 106.861 86.8684 106.642 86.414 106.51C85.4474 106.161 84.4326 105.973 83.4084 105.956C82.3732 105.956 81.3147 106.196 80.5354 106.74C80.3431 106.865 80.177 107.028 80.0468 107.22C79.924 107.451 79.845 107.703 79.8142 107.964C79.6285 108.769 79.3771 109.557 79.0628 110.318C78.7394 111.165 78.3951 112.043 77.6344 112.698C76.8202 113.397 75.5756 113.8 75.0382 114.644C74.9788 114.719 74.9372 114.808 74.9166 114.902C74.896 114.997 74.897 115.095 74.9196 115.189C74.9964 115.403 75.243 115.549 75.4709 115.683C76.7923 116.465 77.9322 117.48 78.5184 118.692C79.1047 119.904 79.0884 121.332 78.2532 122.447C77.9462 122.86 77.5228 123.35 77.8229 123.765C78.2881 124.396 79.8444 124.033 80.2074 124.7C80.3213 124.914 80.2539 125.156 80.2539 125.389C80.2539 126.09 80.9076 126.711 81.7009 127.035C82.4941 127.359 83.413 127.436 84.3063 127.477C84.5435 126.927 84.5668 126.304 84.3715 125.737C84.312 125.615 84.2885 125.477 84.304 125.341C84.3706 125.19 84.474 125.06 84.6041 124.962C85.5579 124.031 85.3555 122.663 84.7832 121.557C84.211 120.451 83.3177 119.441 82.985 118.277C82.8198 117.699 82.8198 117.049 83.2642 116.569C83.5192 116.338 83.7941 116.131 84.0853 115.952C84.6057 115.588 85.0065 115.069 85.2346 114.464C85.5021 113.699 85.4672 112.785 86.2442 112.269C86.9909 111.789 88.0401 111.928 88.866 111.599C89.501 111.34 90.2408 110.344 90.292 109.795Z" fill="#20385C"/>
<path d="M107.75 155H109.588V146.912H116.588V145.087H109.588V138.837H118.088V137H107.75V155ZM120.348 155H122.185V148.162H127.935L131.248 155H133.36L129.81 147.712C130.818 147.304 131.593 146.642 132.135 145.725C132.677 144.808 132.948 143.762 132.948 142.587C132.948 141.179 132.568 139.967 131.81 138.95C131.052 137.933 129.968 137.317 128.56 137.1C128.335 137.058 128.11 137.033 127.885 137.025C127.668 137.008 127.473 137 127.298 137H120.348V155ZM122.185 146.412V138.762H127.248C127.398 138.762 127.573 138.771 127.773 138.787C127.981 138.796 128.177 138.821 128.36 138.862C129.285 139.062 129.964 139.525 130.398 140.25C130.839 140.967 131.06 141.746 131.06 142.587C131.06 143.421 130.839 144.2 130.398 144.925C129.964 145.65 129.285 146.108 128.36 146.3C128.177 146.342 127.981 146.371 127.773 146.387C127.573 146.404 127.398 146.412 127.248 146.412H122.185ZM136.119 155H147.369V153.237H137.957V146.75H145.869V144.987H137.957V138.762H147.369V137H136.119V155ZM150.377 155H161.627V153.237H152.214V146.75H160.127V144.987H152.214V138.762H161.627V137H150.377V155Z" fill="#F2C94C"/>
</g>
<defs>
<linearGradient id="paint0_linear" x1="71.1417" y1="101.992" x2="71.1417" y2="56.186" gradientUnits="userSpaceOnUse">
<stop stop-color="#CA0B0B" stop-opacity="0.25"/>
<stop offset="0.54" stop-color="#808080" stop-opacity="0.12"/>
<stop offset="1" stop-color="#808080" stop-opacity="0.1"/>
</linearGradient>
<clipPath id="clip0">
<rect width="274" height="174" fill="white"/>
</clipPath>
</defs>
</svg>
