<svg width="315" height="226" viewBox="0 0 315 226" fill="none" xmlns="http://www.w3.org/2000/svg">
<g clip-path="url(#clip0)">
<path d="M315 135.96C315 175.448 291.533 189.235 262.584 189.235C233.635 189.235 210.168 175.448 210.168 135.96C210.168 96.4724 262.584 46.2379 262.584 46.2379C262.584 46.2379 315 96.4724 315 135.96Z" fill="#F2F2F2"/>
<path d="M260.675 183.195L261.211 150.147L283.552 109.263L261.296 144.963L261.537 130.104L276.934 100.524L261.6 126.171V126.172L262.035 99.4455L278.523 75.8965L262.103 95.2431L262.374 46.2378L260.67 111.112L260.81 108.436L244.047 82.7689L260.541 113.573L258.979 143.421L258.933 142.629L239.607 115.618L258.874 145.427L258.679 149.16L258.644 149.216L258.66 149.523L254.697 225.25H259.991L260.627 186.135L279.846 156.399L260.675 183.195Z" fill="#20385C"/>
<path d="M28.3491 201.38C28.3491 212.058 22.0029 215.787 14.1745 215.787C6.34617 215.787 0 212.058 0 201.38C0 190.701 14.1745 177.117 14.1745 177.117C14.1745 177.117 28.3491 190.701 28.3491 201.38Z" fill="#F2F2F2"/>
<path d="M13.6585 214.153L13.8034 205.216L19.8449 194.16L13.8262 203.814L13.8914 199.796L18.0553 191.797L13.9088 198.733L14.0261 191.505L18.4849 185.137L14.0447 190.369L14.118 177.117L13.6572 194.66L13.6948 193.936L9.1617 186.996L13.6221 195.326L13.1999 203.397L13.1873 203.183L7.96143 195.879L13.1713 203.94L13.1186 204.949L13.1093 204.964L13.1134 205.047L12.0417 225.526H13.4737L13.6453 214.948L18.8429 206.907L13.6585 214.153Z" fill="#20385C"/>
<path d="M1.99756 225.563H287.363" stroke="#20385C" stroke-width="2" stroke-miterlimit="10"/>
<path d="M287.515 215.955C287.515 223.177 283.223 225.699 277.928 225.699C277.805 225.699 277.683 225.698 277.56 225.695C277.315 225.69 277.072 225.678 276.832 225.662C272.053 225.324 268.34 222.672 268.34 215.955C268.34 209.003 277.221 200.231 277.888 199.582L277.889 199.581C277.915 199.556 277.928 199.544 277.928 199.544C277.928 199.544 287.515 208.732 287.515 215.955Z" fill="#F2C94C"/>
<path d="M277.579 224.594L281.085 219.693L277.57 225.133L277.561 225.695C277.315 225.69 277.072 225.678 276.832 225.662L277.21 218.436L277.207 218.38L277.214 218.369L277.249 217.687L273.725 212.234L277.26 217.175L277.268 217.32L277.554 211.86L274.537 206.225L277.591 210.902L277.888 199.582L277.889 199.544V199.581L277.84 208.507L280.843 204.968L277.827 209.276L277.748 214.164L280.552 209.473L277.736 214.884L277.692 217.601L281.763 211.072L277.677 218.55L277.579 224.594Z" fill="#20385C"/>
<path d="M185.293 51.1448H183.452C183.046 51.1448 182.716 51.4746 182.716 51.8815V77.7385C182.716 78.1454 183.046 78.4752 183.452 78.4752H185.293C185.7 78.4752 186.03 78.1454 186.03 77.7385V51.8815C186.03 51.4746 185.7 51.1448 185.293 51.1448Z" fill="#20385C"/>
<path d="M73.9255 29.7338H73.0319C72.7651 29.7338 72.5488 29.9501 72.5488 30.217V38.2479C72.5488 38.5148 72.7651 38.7311 73.0319 38.7311H73.9255C74.1923 38.7311 74.4086 38.5148 74.4086 38.2479V30.217C74.4086 29.9501 74.1923 29.7338 73.9255 29.7338Z" fill="#20385C"/>
<path d="M74.0334 46.2064H73.026C72.7253 46.2064 72.4814 46.4503 72.4814 46.7511V61.3225C72.4814 61.6234 72.7253 61.8673 73.026 61.8673H74.0334C74.3341 61.8673 74.5779 61.6234 74.5779 61.3225V46.7511C74.5779 46.4503 74.3341 46.2064 74.0334 46.2064Z" fill="#20385C"/>
<path d="M73.992 67.3469H73.0334C72.7472 67.3469 72.5151 67.579 72.5151 67.8652V82.6246C72.5151 82.9109 72.7472 83.143 73.0334 83.143H73.992C74.2782 83.143 74.5102 82.9109 74.5102 82.6246V67.8652C74.5102 67.579 74.2782 67.3469 73.992 67.3469Z" fill="#20385C"/>
<path d="M173.033 0H85.0726C78.7376 0 73.6021 5.13713 73.6021 11.4741V213.988C73.6021 220.325 78.7376 225.462 85.0726 225.462H173.033C179.368 225.462 184.504 220.325 184.504 213.988V11.4741C184.504 5.13713 179.368 0 173.033 0Z" fill="#20385C"/>
<path d="M133.026 6.73293H119.172C118.721 6.73293 118.355 7.09876 118.355 7.55004V9.06152C118.355 9.5128 118.721 9.87863 119.172 9.87863H133.026C133.477 9.87863 133.842 9.5128 133.842 9.06152V7.55004C133.842 7.09876 133.477 6.73293 133.026 6.73293Z" fill="#E6E8EC"/>
<path d="M137.968 10.09C138.953 10.09 139.751 9.29119 139.751 8.30578C139.751 7.32036 138.953 6.52152 137.968 6.52152C136.983 6.52152 136.184 7.32036 136.184 8.30578C136.184 9.29119 136.983 10.09 137.968 10.09Z" fill="#E6E8EC"/>
<path d="M177.655 14.6842V210.78C177.655 213.116 176.727 215.357 175.075 217.009C173.423 218.66 171.183 219.588 168.847 219.588H89.2596C86.9239 219.588 84.6837 218.66 83.0318 217.009C81.3799 215.357 80.4516 213.116 80.4512 210.78V14.6842C80.4511 13.5271 80.6788 12.3812 81.1215 11.3122C81.5641 10.2431 82.2129 9.27175 83.0309 8.45354C83.8488 7.63533 84.8199 6.9863 85.8886 6.54354C86.9574 6.10077 88.1028 5.87293 89.2596 5.87303H101.169V7.40317C101.17 9.32722 101.934 11.1723 103.294 12.5328C104.654 13.8933 106.499 14.6579 108.422 14.6585H148.897C150.821 14.6585 152.666 13.8941 154.026 12.5334C155.386 11.1728 156.15 9.32739 156.15 7.40317V5.87303H168.847C170.004 5.87293 171.149 6.10077 172.218 6.54354C173.287 6.9863 174.258 7.63533 175.076 8.45354C175.894 9.27175 176.543 10.2431 176.985 11.3122C177.428 12.3812 177.656 13.5271 177.655 14.6842Z" fill="white"/>
<path d="M177.71 51.3326H80.3389V163.2H177.71V51.3326Z" fill="#F2F2F2"/>
<path d="M87.4088 178.679L86.8961 178.217C85.0757 176.545 83.8738 175.46 83.8738 174.108C83.8693 173.851 83.9164 173.595 84.0124 173.357C84.1084 173.118 84.2512 172.901 84.4325 172.719C84.6138 172.536 84.8298 172.392 85.0678 172.294C85.3058 172.197 85.5609 172.148 85.8181 172.151C86.1215 172.153 86.421 172.221 86.6957 172.35C86.9704 172.479 87.2137 172.666 87.4088 172.898C87.6038 172.666 87.8472 172.479 88.1219 172.35C88.3966 172.221 88.696 172.153 88.9995 172.151C89.2566 172.148 89.5117 172.197 89.7497 172.294C89.9877 172.392 90.2038 172.536 90.385 172.719C90.5663 172.901 90.7092 173.118 90.8051 173.357C90.9011 173.595 90.9482 173.851 90.9437 174.108C90.9437 175.46 89.7418 176.545 87.9214 178.217L87.4088 178.679Z" fill="#FF6584"/>
<path d="M105.994 176.969L106.985 177.252C107.162 176.739 107.461 176.276 107.857 175.905C108.252 175.533 108.732 175.263 109.256 175.119C109.779 174.974 110.329 174.959 110.86 175.075C111.39 175.191 111.884 175.435 112.299 175.785L110.786 177.252H114.564V173.578L113.041 175.038C112.497 174.561 111.843 174.226 111.137 174.063C110.431 173.901 109.697 173.916 108.998 174.107C108.3 174.298 107.66 174.66 107.136 175.159C106.611 175.659 106.219 176.281 105.994 176.969L105.994 176.969Z" fill="#F2F2F2"/>
<path d="M86.7661 42.9747C89.2508 42.9747 91.2651 40.9598 91.2651 38.4743C91.2651 35.9888 89.2508 33.9739 86.7661 33.9739C84.2814 33.9739 82.2671 35.9888 82.2671 38.4743C82.2671 40.9598 84.2814 42.9747 86.7661 42.9747Z" fill="#F2C94C"/>
<path d="M136.576 35.9026H94.7998V41.0459H136.576V35.9026Z" fill="#F2C94C"/>
<path d="M125.65 186.345H83.874V191.488H125.65V186.345Z" fill="#F2F2F2"/>
<path d="M172.247 197.557H83.874V202.701H172.247V197.557Z" fill="#F2F2F2"/>
<path d="M101.87 178.354L100.763 176.416C101.028 175.78 101.054 175.07 100.837 174.416C100.62 173.763 100.174 173.209 99.5821 172.858C98.9898 172.507 98.2906 172.381 97.6132 172.504C96.9357 172.628 96.3255 172.991 95.8947 173.529C95.464 174.066 95.2417 174.741 95.2688 175.429C95.2959 176.118 95.5704 176.773 96.042 177.275C96.5136 177.777 97.1505 178.092 97.8356 178.161C98.5207 178.231 99.2078 178.051 99.7707 177.654L101.87 178.354Z" fill="#F2F2F2"/>
<path d="M120.786 77.5687H120.785C119.132 77.9072 117.561 78.5683 116.162 79.5141C114.764 80.4599 113.566 81.672 112.635 83.0812C111.705 84.4903 111.062 86.0689 110.742 87.7268C110.421 89.3847 110.431 91.0895 110.769 92.7438L113.422 105.712L116.393 105.104L116.602 103.729L117.224 104.933L135.283 101.237L135.492 99.8624L136.114 101.066L138.609 100.556L135.956 87.588C135.617 85.9337 134.957 84.3623 134.011 82.9635C133.066 81.5647 131.854 80.3659 130.445 79.4355C129.036 78.5051 127.458 77.8614 125.801 77.5411C124.144 77.2208 122.439 77.2302 120.786 77.5687Z" fill="black"/>
<path d="M143.164 117.354L158.589 126.676L156.661 131.176L142.2 124.426L143.164 117.354Z" fill="#9F616A"/>
<path d="M123.561 127.962C123.561 127.962 92.3896 127.962 87.2479 135.998C82.1062 144.035 86.2838 155.286 102.352 157.857C118.42 160.429 167.266 161.715 171.122 152.071C174.979 142.427 172.086 136.963 172.086 136.963C172.086 136.963 155.376 125.39 123.561 127.962Z" fill="#F2C94C"/>
<path d="M151.198 135.677L168.23 142.106C168.23 142.106 175.3 136.963 171.765 131.176C168.23 125.39 152.162 91.9585 152.162 91.9585C152.162 91.9585 147.663 85.5293 153.448 81.9933C159.232 78.4572 161.482 84.2435 161.482 84.2435C161.482 84.2435 161.16 85.5293 163.41 84.5649C165.659 83.6006 169.837 86.8151 167.587 91.9585C165.338 97.1018 163.731 98.3876 168.552 98.0661C170.292 97.9501 171.823 96.7022 173.069 95.1551C175.458 92.1897 174.391 89.8012 174.211 85.9975C173.901 79.4817 173.395 75.2332 171.765 72.671C169.516 69.135 166.302 66.2418 157.947 67.8491C149.591 69.4564 137.38 77.4929 140.272 89.0653C143.164 100.638 149.591 113.496 149.591 113.496C149.591 113.496 154.09 131.498 151.198 135.677Z" fill="#F2C94C"/>
<path opacity="0.1" d="M151.198 135.677C148.422 136.442 144.935 136.815 141.181 136.93C134.632 137.133 127.26 136.554 121.373 135.899C115.013 135.188 110.386 134.391 110.386 134.391C112.536 132.385 115.839 131.591 119.721 131.302C124.542 130.942 130.255 131.353 135.773 131.176C137.807 131.105 139.843 131.258 141.843 131.633C147.93 132.793 151.198 135.677 151.198 135.677Z" fill="#20385C"/>
<path d="M123.401 101.12C128.37 101.12 132.399 97.0902 132.399 92.1192C132.399 87.1482 128.37 83.1184 123.401 83.1184C118.431 83.1184 114.403 87.1482 114.403 92.1192C114.403 97.0902 118.431 101.12 123.401 101.12Z" fill="#9F616A"/>
<path d="M122.276 99.352C122.276 99.352 123.883 105.46 122.276 105.781C120.669 106.103 116.813 107.71 116.813 107.71L121.633 109.639L130.631 117.997L138.344 121.854L142.2 120.568V113.496L136.416 104.495C136.416 104.495 132.56 105.781 131.595 101.602C130.631 97.4232 128.703 95.8159 128.703 95.8159L122.276 99.352Z" fill="#9F616A"/>
<path d="M120.027 108.031H116.17C116.17 108.031 109.422 110.282 105.566 115.425C101.709 120.568 95.6035 125.712 95.6035 125.712C95.6035 125.712 91.4259 131.498 93.6754 139.534C95.9249 147.571 99.1385 153.357 102.031 151.75C104.923 150.142 97.853 138.57 97.853 138.57L99.7812 131.498C99.7812 131.498 109.743 119.925 113.921 120.247C118.099 120.568 118.42 124.104 118.42 124.104L127.418 126.676L130.31 120.568L128.703 114.139L120.027 108.031Z" fill="#9F616A"/>
<path d="M143.164 128.283C142.557 129.326 142.111 130.456 141.844 131.633C141.442 133.371 141.221 135.147 141.182 136.93C134.632 137.133 127.26 136.554 121.373 135.899C120.853 134.51 120.281 132.912 119.721 131.302C118.214 126.949 116.813 122.507 116.813 121.854C116.813 120.568 123.562 122.818 125.168 122.497C126.775 122.175 127.418 117.032 125.168 114.46C122.919 111.889 116.331 107.549 116.331 107.549L118.581 106.906C118.581 106.906 123.562 110.603 133.845 116.711C144.128 122.818 139.951 113.175 139.951 113.175L134.006 104.013H136.577C136.577 104.013 141.558 112.532 144.128 116.389C146.699 120.247 145.735 124.104 143.164 128.283Z" fill="#20385C"/>
<path d="M129.768 79.9762L113.471 83.3123L115.517 93.316L131.814 89.9799L129.768 79.9762Z" fill="black"/>
<path d="M164.856 81.1896C167.518 81.1896 169.676 79.0308 169.676 76.3678C169.676 73.7047 167.518 71.5459 164.856 71.5459C162.194 71.5459 160.036 73.7047 160.036 76.3678C160.036 79.0308 162.194 81.1896 164.856 81.1896Z" fill="#20385C"/>
<path d="M164.856 78.9394C166.276 78.9394 167.427 77.788 167.427 76.3677C167.427 74.9475 166.276 73.7961 164.856 73.7961C163.436 73.7961 162.285 74.9475 162.285 76.3677C162.285 77.788 163.436 78.9394 164.856 78.9394Z" fill="white"/>
<path d="M23.3743 132.026L23.0458 134.563C22.9346 135.422 22.8234 136.281 22.7635 137.145C22.5644 140.019 22.9356 142.904 22.8379 145.783C22.7627 148 22.4096 150.215 22.5802 152.426C22.731 154.382 23.2875 156.281 23.8409 158.162L24.6318 160.852C24.6383 160.933 24.6632 161.011 24.7046 161.08C24.7461 161.149 24.8029 161.208 24.8707 161.251C24.9385 161.295 25.0154 161.322 25.0955 161.331C25.1756 161.34 25.2567 161.331 25.3326 161.303L28.8327 160.986C28.6086 159.958 28.3593 158.886 28.2388 157.841C28.1435 157.015 28.0863 156.184 28.0265 155.354C27.8402 152.767 27.6294 150.181 27.4185 147.596L27.0481 143.054C26.8874 141.084 26.7248 139.103 26.2289 137.189C25.7348 135.252 24.7519 133.475 23.3743 132.026Z" fill="#F2C94C"/>
<path opacity="0.1" d="M23.3743 132.026L23.0458 134.563C22.9346 135.422 22.8234 136.281 22.7635 137.145C22.5644 140.019 22.9356 142.904 22.8379 145.783C22.7627 148 22.4096 150.215 22.5802 152.426C22.731 154.382 23.2875 156.281 23.8409 158.162L24.6318 160.852C24.6383 160.933 24.6632 161.011 24.7046 161.08C24.7461 161.149 24.8029 161.208 24.8707 161.251C24.9385 161.295 25.0154 161.322 25.0955 161.331C25.1756 161.34 25.2567 161.331 25.3326 161.303L28.8327 160.986C28.6086 159.958 28.3593 158.886 28.2388 157.841C28.1435 157.015 28.0863 156.184 28.0265 155.354C27.8402 152.767 27.6294 150.181 27.4185 147.596L27.0481 143.054C26.8874 141.084 26.7248 139.103 26.2289 137.189C25.7348 135.252 24.7519 133.475 23.3743 132.026Z" fill="#20385C"/>
<path d="M29.6096 219.009C29.4035 219.413 29.2241 219.83 29.0727 220.258C28.6708 221.438 28.6101 222.703 28.5529 223.948C28.5254 224.188 28.5477 224.432 28.6184 224.663C28.7901 225.111 29.2853 225.338 29.7482 225.462C31.6868 225.984 33.7309 225.493 35.7303 225.314C37.6929 225.138 39.692 225.265 41.6142 224.832C41.8983 224.779 42.1729 224.683 42.4291 224.549C42.9163 224.232 43.2799 223.757 43.4586 223.204C43.5171 223.063 43.5564 222.914 43.5756 222.762C43.639 222.107 43.0681 221.538 42.4462 221.322C41.8243 221.107 41.1482 221.142 40.4936 221.075C39.1469 220.937 37.8834 220.358 36.8986 219.429C35.9138 218.5 35.2626 217.272 35.0458 215.935C35.0226 215.792 31.8088 215.876 31.4706 216.062C31.0746 216.279 30.835 216.822 30.6119 217.188C30.2516 217.78 29.9174 218.387 29.6096 219.009Z" fill="#20385C"/>
<path opacity="0.1" d="M29.6096 219.009C29.4035 219.413 29.2241 219.83 29.0727 220.258C28.6708 221.438 28.6101 222.703 28.5529 223.948C28.5254 224.188 28.5477 224.432 28.6184 224.663C28.7901 225.111 29.2853 225.338 29.7482 225.462C31.6868 225.984 33.7309 225.493 35.7303 225.314C37.6929 225.138 39.692 225.265 41.6142 224.832C41.8983 224.779 42.1729 224.683 42.4291 224.549C42.9163 224.232 43.2799 223.757 43.4586 223.204C43.5171 223.063 43.5564 222.914 43.5756 222.762C43.639 222.107 43.0681 221.538 42.4462 221.322C41.8243 221.107 41.1482 221.142 40.4936 221.075C39.1469 220.937 37.8834 220.358 36.8986 219.429C35.9138 218.5 35.2626 217.272 35.0458 215.935C35.0226 215.792 31.8088 215.876 31.4706 216.062C31.0746 216.279 30.835 216.822 30.6119 217.188C30.2516 217.78 29.9174 218.387 29.6096 219.009Z" fill="#20385C"/>
<path d="M34.9382 219.314C34.7321 219.718 34.5528 220.135 34.4013 220.562C33.9994 221.742 33.9387 223.007 33.8815 224.253C33.8541 224.493 33.8764 224.736 33.947 224.968C34.1188 225.415 34.6139 225.642 35.0768 225.767C37.0154 226.288 39.0595 225.797 41.0589 225.619C43.0215 225.443 45.0206 225.57 46.9429 225.137C47.2269 225.083 47.5015 224.988 47.7577 224.854C48.245 224.537 48.6085 224.062 48.7872 223.509C48.8457 223.367 48.885 223.219 48.9042 223.067C48.9676 222.412 48.3967 221.842 47.7748 221.627C47.153 221.412 46.4768 221.447 45.8222 221.38C44.4755 221.241 43.212 220.663 42.2272 219.734C41.2424 218.804 40.5912 217.577 40.3744 216.24C40.3512 216.097 37.1374 216.181 36.7992 216.367C36.4032 216.584 36.1636 217.126 35.9406 217.493C35.5802 218.085 35.2461 218.692 34.9382 219.314Z" fill="#20385C"/>
<path d="M48.8363 187.581C48.8778 194.037 47.0009 200.347 44.7996 206.415C43.9281 208.817 43.0033 211.198 42.0252 213.559C41.4462 214.958 40.7937 216.509 41.4142 217.89C39.6285 217.21 37.8002 216.809 35.9151 217.123C36.6327 215.66 36.5652 213.957 36.5972 212.328C36.6595 210.116 36.8975 207.913 37.3088 205.74C37.9403 202.432 39.0237 199.227 40.5285 196.215C40.8335 195.58 41.0438 194.904 41.1525 194.207C41.3479 192.659 41.258 191.088 40.8873 189.573C40.1994 186.215 38.8936 183.014 37.0365 180.133C37.0306 180.197 37.0246 180.262 37.0175 180.326C36.9052 181.286 36.7436 182.24 36.5332 183.183C36.1117 185.183 35.6203 187.183 35.6937 189.193C35.7727 191.325 35.6406 193.46 35.2994 195.566C35.191 196.394 34.9757 197.203 34.6588 197.975C34.4527 198.437 34.1839 198.872 34.0217 199.351C33.8607 199.904 33.7767 200.477 33.7718 201.053C33.5315 205.914 33.7683 212.134 34.7618 216.9C33.0876 216.822 31.4239 217.202 29.9483 217.996C28.7476 214.608 27.9826 209.794 27.4107 206.225C26.763 202.009 26.8947 197.71 27.7991 193.542C28.0804 192.151 28.1858 190.73 28.1129 189.313C27.985 186.49 27.2911 183.729 26.6019 180.99C26.2515 179.599 25.9009 178.208 25.5504 176.817C25.0519 174.835 24.5526 172.853 24.0525 170.87C23.721 169.552 23.3859 168.205 23.4901 166.849C23.5633 166.106 23.7194 165.373 23.9554 164.664C24.7014 162.251 25.8166 159.97 27.2615 157.899C33.0152 158.222 38.8387 157.683 44.5841 157.242C44.8635 157.186 45.1534 157.236 45.3988 157.38C45.5938 157.579 45.71 157.842 45.7256 158.121C46.4456 162.199 47.1651 166.277 47.8843 170.355C48.2345 172.058 48.4401 173.788 48.4988 175.526C48.5095 177.257 48.2288 178.983 48.294 180.714C48.3816 183.045 48.8221 185.249 48.8363 187.581Z" fill="black"/>
<path opacity="0.1" d="M37.0176 180.326C36.9053 181.286 36.7436 182.24 36.5333 183.183C35.2817 181.018 33.9329 178.907 32.7808 176.688C32.4836 176.115 32.2006 175.536 31.9164 174.958C31.6334 174.38 31.3504 173.802 31.0673 173.224C30.9087 172.9 30.7488 172.574 30.6055 172.241C30.3715 171.762 30.1919 171.257 30.0703 170.738C30.4895 170.661 31.522 171.791 31.8323 172.086C32.4687 172.714 33.0696 173.376 33.6322 174.071C34.3128 174.842 34.9377 175.66 35.5019 176.519C36.2229 177.691 36.7358 178.979 37.0176 180.326Z" fill="#20385C"/>
<path d="M41.8123 120.905C41.8123 120.905 38.6151 125.998 39.2072 127.064C39.7992 128.13 29.1421 126.117 29.1421 126.117C29.1421 126.117 34.9443 121.023 34.3523 118.891C33.7602 116.759 41.8123 120.905 41.8123 120.905Z" fill="#EFB7B9"/>
<path d="M38.9703 122.445C42.9595 122.445 46.1934 119.21 46.1934 115.219C46.1934 111.229 42.9595 107.994 38.9703 107.994C34.981 107.994 31.7471 111.229 31.7471 115.219C31.7471 119.21 34.981 122.445 38.9703 122.445Z" fill="#EFB7B9"/>
<path d="M41.9192 126.246C41.1461 125.169 40.0965 124.322 38.8815 123.794C38.1822 123.544 37.4591 123.365 36.7235 123.261L33.8417 122.754C33.1354 122.63 32.3795 122.511 31.7243 122.803C31.3894 122.972 31.0845 123.195 30.8218 123.463C29.8201 124.391 28.8494 125.411 27.5936 125.947C27.2498 126.093 26.8903 126.201 26.547 126.349C25.1419 126.954 24.0913 128.218 23.4944 129.627C22.8683 131.105 22.8501 132.707 22.8996 134.311C22.898 134.865 22.9524 135.418 23.062 135.96C23.2074 136.477 23.3901 136.982 23.6086 137.472C24.0066 138.519 24.3399 139.589 24.6066 140.677C25.3532 143.536 25.9739 146.423 26.4687 149.34C26.5118 149.76 26.6351 150.167 26.8318 150.54C27.1099 150.91 27.4464 151.234 27.8281 151.497C28.1304 151.747 28.4098 152.024 28.663 152.324C28.7865 152.452 28.8771 152.609 28.9268 152.779C29.0203 153.211 28.6393 153.58 28.3301 153.895C27.6877 154.55 27.2234 155.359 26.9811 156.245C26.8302 156.426 26.7537 156.658 26.7669 156.894C26.8287 157.057 26.8518 157.233 26.8342 157.406C26.7748 157.565 26.6822 157.709 26.5625 157.829C26.4248 158.008 26.3268 158.215 26.2751 158.435C26.2235 158.655 26.2193 158.884 26.2628 159.106C28.5018 160.079 30.8979 160.64 33.336 160.762C33.933 160.79 34.5324 160.79 35.1256 160.864C35.5487 160.916 35.9667 161.005 36.39 161.054C37.006 161.112 37.6251 161.128 38.2432 161.101C41.4582 161.038 44.7675 160.954 47.7197 159.679C47.9978 158.165 47.3987 156.621 47.0229 155.128C46.4252 152.753 46.2746 150.29 45.8299 147.881C45.5255 146.233 45.0834 144.611 44.83 142.954C44.5765 141.297 44.517 139.579 44.9724 137.966C45.3759 136.536 45.4978 135.081 45.916 133.656C46.3343 132.23 46.6274 130.685 46.1552 129.277C45.5697 127.531 43.7579 126.149 41.9192 126.246Z" fill="#F2C94C"/>
<path d="M45.4667 111.389C45.8179 110.106 45.1272 108.77 44.3008 107.728C43.4128 106.608 42.2655 105.598 40.8646 105.317C39.7261 105.088 38.5464 105.364 37.3888 105.272C36.3627 105.191 35.3796 104.823 34.3588 104.691C33.4355 104.591 32.5026 104.627 31.5894 104.796C30.7213 104.922 29.8729 105.159 29.0648 105.501C25.99 106.864 24.1884 110.23 23.7704 113.568C23.3523 116.906 24.0854 120.269 24.8141 123.553L25.4728 126.522C26.1584 129.612 26.8463 132.718 27.0297 135.878C27.2131 139.038 26.8709 142.281 25.5714 145.167C29.7728 142.91 33.028 139.223 34.7485 134.774C35.2158 133.552 35.5617 132.284 36.0792 131.083C36.5245 130.049 37.0946 129.07 37.4893 128.016C37.9344 126.825 38.1481 125.56 38.1189 124.289C38.0965 123.334 37.9367 122.383 37.9646 121.428C37.9924 120.473 38.2352 119.476 38.8953 118.785C39.482 118.172 40.3156 117.877 41.0717 117.49C42.2606 116.879 43.2993 116.012 44.1128 114.952C44.5888 114.331 44.6142 114.066 44.7353 113.351C44.853 112.654 45.2817 112.064 45.4667 111.389Z" fill="black"/>
<path d="M45.4766 165.67C45.5498 166.413 45.4149 167.174 45.5773 167.903C45.6994 168.45 45.983 168.948 46.1497 169.483C46.3153 170.104 46.4005 170.743 46.4032 171.386C46.4273 171.925 46.386 172.58 45.9096 172.832C45.7004 172.943 45.4494 172.945 45.2317 173.038C45.0139 173.131 44.8271 173.395 44.9518 173.597C45.0566 173.766 45.2946 173.768 45.4897 173.808C45.6847 173.848 45.8993 174.05 45.7861 174.214C45.7407 174.268 45.6801 174.306 45.6124 174.325C45.4129 174.385 45.2241 174.476 45.0528 174.594C44.9679 174.654 44.9014 174.737 44.8607 174.833C44.8201 174.929 44.8068 175.035 44.8225 175.138C44.8342 175.188 44.8571 175.234 44.8894 175.274C44.9216 175.313 44.9625 175.345 45.0088 175.366C45.0551 175.387 45.1057 175.398 45.1567 175.397C45.2076 175.396 45.2577 175.383 45.303 175.36C45.2156 175.546 45.1679 175.749 45.1629 175.955C45.9251 176.283 46.783 175.854 47.5004 175.437C47.8115 175.265 48.1118 175.074 48.3997 174.865C48.9774 174.419 49.4372 173.838 49.7393 173.173C50.0415 172.509 50.1766 171.781 50.1331 171.052C50.0999 170.685 50.0437 170.321 49.9648 169.961C49.8536 169.335 49.7068 168.717 49.5251 168.108C49.32 167.466 49.0382 166.851 48.7964 166.222C48.2813 164.881 47.9497 163.477 47.4859 162.118C47.4793 162.053 47.4593 161.99 47.4272 161.933C47.3952 161.876 47.3517 161.827 47.2995 161.787C47.2474 161.748 47.1877 161.72 47.1242 161.705C47.0607 161.69 46.9948 161.688 46.9305 161.699C46.4079 161.672 45.884 161.72 45.3751 161.843C45.0676 161.932 44.5631 162.13 44.4253 162.452C44.3011 162.743 44.5093 163.003 44.6413 163.251C45.0738 163.996 45.3575 164.817 45.4766 165.67Z" fill="#EFB7B9"/>
<path opacity="0.1" d="M44.9877 129.37C45.1418 129.527 45.2709 129.707 45.3703 129.903C46.3966 131.769 46.4096 134.002 46.4578 136.131C46.5121 138.528 46.6433 140.922 46.7744 143.315L47.1665 150.474C47.2039 151.158 47.2415 151.843 47.3374 152.521C47.7986 152.637 47.8177 153.233 47.7643 153.706C47.4341 156.627 46.6125 159.635 47.4729 162.446C47.5058 162.591 47.575 162.725 47.6741 162.835C47.2404 162.698 46.7761 162.692 46.3389 162.817C45.91 162.908 45.4977 163.065 45.0703 163.162C44.5265 163.286 43.91 163.339 43.539 163.755C43.1198 162.492 42.786 161.202 42.5398 159.894C42.3361 158.705 42.2806 157.469 41.7965 156.365C41.601 155.919 41.3398 155.505 41.1014 155.081C39.8474 152.847 39.2335 150.319 38.6335 147.829C38.3641 146.647 38.2995 145.429 38.4425 144.226C38.5278 143.677 38.5778 143.123 38.5924 142.568C38.5542 141.982 38.4774 141.399 38.3626 140.824C38.1093 139.135 38.228 137.411 38.7103 135.773C39.1596 134.252 39.5536 132.651 40.4933 131.374C41.4331 130.096 43.4021 129.392 44.9877 129.37Z" fill="#20385C"/>
<path d="M45.3431 129.134C45.4973 129.29 45.6263 129.47 45.7258 129.666C46.7521 131.532 46.7651 133.765 46.8133 135.894C46.8676 138.291 46.9987 140.685 47.1298 143.079L47.5219 150.237C47.5594 150.921 47.597 151.606 47.6928 152.284C48.1541 152.4 48.1732 152.996 48.1197 153.469C47.7895 156.391 46.968 159.398 47.8284 162.209C47.8612 162.354 47.9305 162.488 48.0295 162.598C47.5959 162.461 47.1316 162.455 46.6944 162.58C46.2655 162.671 45.8531 162.828 45.4258 162.925C44.882 163.049 44.2655 163.102 43.8945 163.518C43.4753 162.255 43.1414 160.965 42.8953 159.657C42.6916 158.469 42.6361 157.233 42.152 156.128C41.9564 155.682 41.6952 155.269 41.4569 154.844C40.2029 152.61 39.589 150.083 38.9889 147.592C38.7195 146.411 38.655 145.192 38.798 143.989C38.8832 143.44 38.9333 142.886 38.9478 142.331C38.9096 141.745 38.8329 141.162 38.7181 140.587C38.4648 138.898 38.5834 137.174 39.0657 135.536C39.5151 134.015 39.9091 132.415 40.8488 131.137C41.7885 129.859 43.7575 129.155 45.3431 129.134Z" fill="#F2C94C"/>
<g opacity="0.1">
<path opacity="0.1" d="M44.3006 107.728C43.4126 106.608 42.2653 105.598 40.8644 105.317C39.7259 105.088 38.5462 105.364 37.3886 105.272C36.3626 105.191 35.3794 104.823 34.3586 104.691C33.4353 104.591 32.5024 104.627 31.5892 104.796C30.7211 104.922 29.8727 105.159 29.0647 105.501C28.628 105.696 28.2113 105.932 27.8203 106.207C28.5407 105.934 29.2881 105.739 30.0499 105.625C30.963 105.456 31.8959 105.421 32.8193 105.52C33.84 105.652 34.8232 106.02 35.8492 106.101C37.0068 106.193 38.1865 105.917 39.325 106.146C40.7259 106.427 41.8732 107.437 42.7612 108.557C43.5876 109.6 44.2784 110.935 43.9271 112.218C43.7422 112.894 43.3135 113.483 43.1957 114.18C43.0746 114.895 43.0493 115.16 42.5733 115.781C41.9606 116.579 41.2194 117.269 40.3802 117.824C40.6118 117.713 40.8451 117.606 41.0715 117.49C42.2604 116.879 43.2991 116.012 44.1126 114.952C44.5886 114.331 44.614 114.066 44.7351 113.351C44.8528 112.654 45.2815 112.064 45.4665 111.389C45.8177 110.106 45.127 108.77 44.3006 107.728Z" fill="#20385C"/>
<path opacity="0.1" d="M38.8952 118.785C39.0193 118.657 39.1544 118.54 39.299 118.435C38.6088 118.769 37.8828 119.063 37.3558 119.615C36.6958 120.305 36.4529 121.302 36.4251 122.257C36.3972 123.212 36.557 124.163 36.5795 125.118C36.6086 126.389 36.3949 127.654 35.9498 128.845C35.5551 129.899 34.985 130.878 34.5397 131.912C34.0222 133.113 33.6763 134.381 33.209 135.603C31.7166 139.46 29.0662 142.759 25.6225 145.047C25.605 145.087 25.5892 145.128 25.5713 145.167C29.7727 142.91 33.0279 139.223 34.7484 134.774C35.2157 133.552 35.5616 132.284 36.0791 131.083C36.5244 130.049 37.0945 129.07 37.4891 128.016C37.9342 126.825 38.148 125.56 38.1188 124.289C38.0964 123.334 37.9366 122.383 37.9644 121.428C37.9923 120.473 38.2351 119.476 38.8952 118.785Z" fill="#20385C"/>
</g>
<path d="M197.528 224.984C197.184 225.399 196.595 225.483 196.062 225.537C195.374 225.637 194.676 225.651 193.985 225.577C193.163 225.455 192.671 225.922 191.92 225.563C191.466 225.345 190.767 225.78 190.314 225.563C189.691 225.265 187.542 225.203 187.163 224.622C186.785 224.04 186.823 223.121 187.422 222.778C187.592 222.697 187.767 222.629 187.947 222.573C188.95 222.174 190.981 219.162 192.048 219.008C192.578 218.983 193.104 219.107 193.566 219.365C194.618 219.833 196.476 220.201 196.935 221.387C197.293 222.311 198.271 224.081 197.528 224.984Z" fill="black"/>
<path d="M205.086 224.746C205.429 225.161 206.018 225.244 206.551 225.299C207.239 225.399 207.937 225.412 208.629 225.339C209.45 225.216 210.451 225.922 211.202 225.563C211.656 225.345 212.354 225.459 212.808 225.241C213.431 224.943 216.356 225.608 216.735 225.026C217.114 224.445 217.076 223.526 216.476 223.183C216.307 223.102 216.131 223.033 215.952 222.977C214.949 222.578 211.632 218.923 210.565 218.769C210.035 218.745 209.51 218.869 209.047 219.127C207.995 219.594 206.137 219.963 205.678 221.149C205.32 222.073 204.342 223.843 205.086 224.746Z" fill="black"/>
<path d="M208.409 159.105C208.737 159.737 209.025 160.39 209.268 161.059C212.186 168.779 212.43 177.215 212.55 185.468C212.54 186.809 212.617 188.15 212.78 189.482C212.902 190.327 213.095 191.181 212.97 192.025C212.863 192.755 212.519 193.475 212.656 194.2C212.718 194.525 212.874 194.826 212.935 195.152C212.982 195.508 212.972 195.87 212.906 196.224L212.515 199.135C212.292 200.793 211.778 202.39 211.806 204.063C211.825 205.204 211.844 206.347 211.971 207.481C212.1 208.633 212.34 209.776 212.352 210.935C212.362 211.802 212.243 212.666 212.166 213.53C212.058 214.751 212.033 215.978 212.093 217.202C212.138 218.145 212.246 219.124 212.746 219.925C212.186 220.729 211.632 221.449 210.735 221.842C208.912 222.642 206.821 222.37 204.851 222.084C204.96 221.721 205.129 221.309 204.972 220.963C204.879 220.796 204.765 220.641 204.633 220.503C204.204 219.891 203.905 219.197 203.757 218.464C203.519 217.595 203.28 216.66 203.77 215.826C203.938 215.529 204.013 215.187 203.983 214.847C203.575 209.374 202.358 203.712 203.479 198.341C203.599 197.768 203.741 197.198 203.808 196.616C203.868 195.779 203.878 194.94 203.838 194.102L203.815 192.935C203.756 191.69 203.807 190.414 203.557 189.183C203.378 188.301 203.045 187.415 203.456 186.516C203.546 186.31 203.587 186.086 203.576 185.862C203.566 185.637 203.504 185.418 203.395 185.221C202.53 183.705 201.834 182.098 201.32 180.43C201.213 179.964 201.067 179.507 200.883 179.066C200.632 178.601 200.344 178.157 200.021 177.738C199.045 176.322 198.461 174.68 197.888 173.058C197.949 172.909 197.902 172.703 197.743 172.724C197.585 172.764 197.45 172.865 197.367 173.005C196.582 174.06 196.516 175.468 196.481 176.783C196.421 178.005 196.442 179.23 196.543 180.449C196.61 181.087 196.722 181.721 196.779 182.361C196.854 183.554 196.835 184.752 196.722 185.942L196.321 191.8C196.267 192.285 196.296 192.775 196.408 193.249C196.665 194.07 196.79 194.927 196.779 195.787C196.674 199.326 196.979 202.865 197.69 206.333C197.886 207.291 198.112 208.242 198.279 209.205C198.67 211.475 198.724 213.787 198.776 216.09C198.809 217.506 198.832 218.972 198.274 220.274C198.056 220.676 197.896 221.106 197.799 221.552C197.797 221.782 197.767 222.011 197.708 222.233C197.544 222.655 197.053 222.834 196.612 222.93C195.782 223.111 194.931 223.172 194.084 223.11C193.886 223.107 193.689 223.064 193.508 222.982C193.192 222.819 193.024 222.472 192.784 222.209C192.266 221.643 191.405 221.47 190.933 220.865C190.343 220.108 190.59 219.012 190.942 218.119C191.293 217.226 191.728 216.256 191.426 215.345C191.069 214.272 189.806 213.694 189.466 212.615C190.434 208.263 188.057 203.762 188.261 199.308C188.308 198.271 188.488 197.241 188.492 196.203C188.501 193.528 187.343 190.925 187.533 188.257C188.018 181.477 185.709 174.708 184.731 167.981C184.546 166.977 184.476 165.955 184.525 164.935C184.67 163.251 185.451 161.684 186.391 160.28C187.064 159.274 187.874 158.289 188.989 157.818C189.908 157.43 190.937 157.432 191.934 157.44C194.421 157.459 196.908 157.478 199.395 157.523C201.087 157.499 202.778 157.65 204.439 157.974C205.784 158.282 207.043 158.91 208.409 159.105Z" fill="black"/>
<path d="M168.224 128.195C167.983 127.016 168.438 125.754 168.082 124.604C167.954 124.19 167.638 123.759 167.205 123.771C166.783 123.782 166.498 124.195 166.124 124.391C165.522 124.706 164.791 124.42 164.189 124.104C163.587 123.788 162.916 123.431 162.263 123.62C162.186 124.029 162.462 124.419 162.763 124.707C163.095 124.958 163.371 125.278 163.571 125.644C163.668 126.04 163.706 126.448 163.681 126.855C163.749 127.789 164.341 128.594 164.932 129.321C165.884 130.491 166.895 131.613 167.961 132.681C167.96 132.679 169.579 130.675 169.548 130.325C169.518 129.995 168.974 129.686 168.776 129.419C168.505 129.056 168.316 128.639 168.224 128.195Z" fill="#A1616A"/>
<path d="M216.447 152.883C216.592 153.258 216.7 153.646 216.771 154.041C217.188 156.066 217.452 158.12 217.711 160.172C217.78 160.719 217.85 161.267 217.871 161.819C217.944 163.129 217.675 164.435 217.09 165.608C216.494 166.785 215.482 167.697 214.25 168.167C213.871 168.302 213.341 168.327 213.175 167.96C213.116 167.79 213.118 167.605 213.179 167.436C213.329 166.89 213.633 166.399 213.831 165.868C214.124 165.075 214.173 164.212 213.972 163.391C213.894 163.077 213.729 162.727 213.412 162.664C213.571 163.388 213.437 164.146 213.041 164.772C212.951 164.947 212.795 165.079 212.608 165.139C212.477 165.152 212.345 165.12 212.235 165.049C212.124 164.977 212.041 164.87 211.999 164.745C211.921 164.493 211.904 164.226 211.949 163.965C212.051 162.649 212.252 161.343 212.549 160.057C212.902 158.645 213.463 157.252 213.427 155.797C213.394 154.479 212.869 153.184 213.016 151.874C213.018 151.793 213.045 151.714 213.091 151.648C213.138 151.602 213.194 151.567 213.256 151.547C213.624 151.395 214.002 151.269 214.388 151.172C214.616 151.114 215.395 150.844 215.614 150.965C215.791 151.063 215.846 151.65 215.934 151.849C216.091 152.201 216.299 152.527 216.447 152.883Z" fill="#A1616A"/>
<path d="M190.439 113.826C193.411 113.826 195.821 111.416 195.821 108.443C195.821 105.47 193.411 103.059 190.439 103.059C187.467 103.059 185.057 105.47 185.057 108.443C185.057 111.416 187.467 113.826 190.439 113.826Z" fill="#A1616A"/>
<path d="M195.261 112.339C195.26 112.682 195.288 113.025 195.342 113.363C195.417 113.706 195.522 114.041 195.656 114.365C195.836 114.891 196.09 115.389 196.41 115.844C196.735 116.302 197.222 116.619 197.772 116.731C194.093 118.456 190.166 119.591 186.135 120.096C186.77 119.673 187.299 119.109 187.679 118.447C187.881 118.022 188.018 117.57 188.088 117.105C188.431 115.159 188.257 113.156 187.582 111.299C187.515 111.116 187.45 110.891 187.576 110.743C187.63 110.688 187.695 110.645 187.767 110.618C189.366 109.941 191.092 109.619 192.827 109.675C193.27 109.678 193.713 109.697 194.156 109.729C194.393 109.746 194.919 109.696 195.108 109.871C195.334 110.079 195.22 110.724 195.228 111.006L195.261 112.339Z" fill="#A1616A"/>
<path d="M198.108 116.256C197.317 115.241 196.208 114.52 194.96 114.209C193.711 113.898 192.394 114.014 191.219 114.538C188.657 115.762 187.396 118.699 185.143 120.426C184.631 120.81 184.085 121.146 183.512 121.432C183.173 121.619 182.813 121.761 182.438 121.857C182.017 121.949 181.577 121.937 181.158 122.038C180.359 122.272 179.679 122.801 179.253 123.516C179.042 123.891 178.808 124.252 178.553 124.597C178.318 124.877 178.025 125.103 177.776 125.37C176.88 126.333 176.637 127.716 176.433 129.015C175.732 129.754 174.967 130.428 174.147 131.032C173.889 131.23 173.603 131.389 173.298 131.502C172.51 131.757 171.641 131.432 170.969 130.947C170.297 130.462 169.75 129.822 169.088 129.323C168.479 130.194 167.843 131.067 167.195 131.908C167.097 132.068 166.947 132.19 166.771 132.255C166.65 132.664 166.942 133.089 167.16 133.456L168.334 135.429C168.722 136.147 169.198 136.814 169.75 137.415C170.311 138.018 171.077 138.391 171.898 138.459C172.416 138.455 172.929 138.356 173.413 138.169C175.649 137.417 177.702 136.216 179.829 135.196C180.215 134.975 180.646 134.849 181.09 134.826C181.311 134.82 181.528 134.887 181.708 135.017C181.888 135.146 182.021 135.331 182.085 135.543C182.329 136.775 182.572 138.003 182.907 139.214C183.223 140.356 183.517 141.503 183.789 142.657C183.97 143.363 184.099 144.081 184.176 144.805C184.211 145.217 184.215 145.63 184.219 146.043L184.264 151.034C184.269 151.571 183.963 151.907 183.727 152.389C183.366 153.139 183.311 153.999 183.575 154.788C183.708 155.177 183.915 155.537 184.061 155.921C184.416 156.85 184.402 157.873 184.384 158.867L184.341 161.144C184.331 161.238 184.348 161.334 184.39 161.418C184.529 161.635 184.864 161.508 185.076 161.361L186.141 160.623C187.565 160.82 189.004 160.889 190.441 160.831C194.527 160.772 198.613 160.935 202.69 161.22C204.05 161.315 205.455 161.419 206.741 160.965C207.394 160.734 207.995 160.366 208.661 160.182C208.937 160.139 209.198 160.031 209.423 159.868C209.796 159.523 209.697 158.917 209.545 158.431C209.412 158.007 209.261 157.589 209.092 157.177C208.917 156.798 208.775 156.405 208.667 156.003C208.463 155.094 208.662 154.045 208.096 153.305C206.831 151.649 207.726 149.102 207.195 147.086C207.023 146.434 206.77 145.805 206.608 145.151C206.507 144.739 206.443 144.32 206.38 143.902C206.213 142.996 206.13 142.078 206.133 141.157C206.148 140.697 206.206 140.239 206.264 139.781L206.666 136.607C207.169 137.545 207.518 138.559 207.701 139.608C208.067 141.175 208.517 142.721 209.051 144.239C209.354 145.155 209.657 146.071 209.984 146.978C210.192 147.494 210.351 148.029 210.461 148.574C210.534 149.014 210.536 149.463 210.587 149.906C210.697 150.856 211.029 151.766 211.557 152.564C211.654 152.749 211.815 152.892 212.011 152.967C212.142 152.991 212.278 152.986 212.407 152.951C213.828 152.67 215.203 152.194 216.494 151.536C216.768 151.423 217.007 151.237 217.184 150.997C217.531 150.433 217.143 149.727 216.974 149.085C216.793 148.398 216.835 147.571 216.294 147.11C214.409 145.506 215.345 142.249 214.401 139.96C214.236 139.558 214.043 139.167 213.9 138.757C213.791 138.443 213.712 138.12 213.632 137.798C212.974 135.132 212.269 132.478 211.518 129.837C210.739 127.098 210.823 124.245 209.842 121.572C209.658 121.011 209.417 120.471 209.124 119.959C208.792 119.425 208.349 118.968 207.824 118.62C206.402 117.679 204.966 116.878 203.294 116.537C201.623 116.195 199.814 116.248 198.108 116.256Z" fill="#D0CDE1"/>
<path d="M185.548 109.76C184.824 109.371 185.015 108.312 184.892 107.5C184.639 105.827 182.75 104.835 182.307 103.203C182.816 103.266 183.333 103.193 183.805 102.991C183.896 102.449 183.789 101.893 183.503 101.424C185.057 100.792 186.314 99.5534 187.892 98.9845C189.875 98.269 192.085 98.7081 194.086 99.3734C195.084 99.7053 196.123 100.136 196.727 100.998C197.39 101.945 197.38 103.191 197.344 104.347C197.289 106.159 197.217 108.036 196.41 109.66C195.383 111.727 192.476 113.642 190.074 113.082C189.075 112.849 188.78 112.221 188.359 111.353C188.097 110.812 187.999 110.185 187.409 109.904C186.832 109.629 186.133 110.076 185.548 109.76Z" fill="black"/>
<g opacity="0.1">
<path opacity="0.1" d="M207.372 148.36C207.379 148.503 207.383 148.647 207.384 148.792C207.377 148.649 207.374 148.505 207.372 148.36Z" fill="#20385C"/>
<path opacity="0.1" d="M184.062 153.768C184.416 154.696 184.403 155.719 184.384 156.713C184.379 156.973 184.375 157.232 184.37 157.491C184.347 156.955 184.243 156.426 184.062 155.921C183.915 155.537 183.708 155.177 183.576 154.788C183.348 154.108 183.357 153.371 183.599 152.696C183.732 153.061 183.923 153.404 184.062 153.768Z" fill="#20385C"/>
</g>
<g opacity="0.1">
<path opacity="0.1" d="M183.805 102.208L183.8 102.21C183.751 101.932 183.651 101.665 183.503 101.424C183.595 101.387 183.685 101.347 183.774 101.306C183.845 101.602 183.855 101.908 183.805 102.208Z" fill="#20385C"/>
</g>
<path d="M14.2095 91.2335L12.941 90.0888C8.43649 85.9518 5.46265 83.2667 5.46265 79.9219C5.45149 79.2855 5.56808 78.6533 5.80552 78.0628C6.04297 77.4723 6.39644 76.9354 6.845 76.484C7.29357 76.0325 7.82811 75.6757 8.417 75.4346C9.00588 75.1935 9.63714 75.0731 10.2734 75.0804C11.0243 75.0844 11.7653 75.2518 12.445 75.571C13.1247 75.8903 13.7268 76.3536 14.2095 76.929C14.6922 76.3536 15.2943 75.8903 15.974 75.571C16.6537 75.2518 17.3947 75.0844 18.1456 75.0804C18.7818 75.0731 19.4131 75.1935 20.002 75.4346C20.5908 75.6757 21.1254 76.0325 21.574 76.484C22.0225 76.9354 22.376 77.4723 22.6134 78.0628C22.8509 78.6533 22.9675 79.2855 22.9563 79.9219C22.9563 83.2667 19.9824 85.9518 15.4779 90.0888L14.2095 91.2335Z" fill="#F2C94C"/>
<path d="M16.459 88.3403L15.1905 87.1957C10.686 83.0587 7.71216 80.3736 7.71216 77.0288C7.701 76.3924 7.8176 75.7602 8.05504 75.1697C8.29248 74.5792 8.64595 74.0423 9.09451 73.5909C9.54308 73.1394 10.0776 72.7826 10.6665 72.5415C11.2554 72.3004 11.8867 72.18 12.5229 72.1873C13.2738 72.1913 14.0148 72.3587 14.6945 72.6779C15.3742 72.9972 15.9763 73.4605 16.459 74.0359C16.9417 73.4605 17.5438 72.9971 18.2235 72.6779C18.9032 72.3587 19.6442 72.1913 20.3951 72.1873C21.0313 72.18 21.6626 72.3004 22.2515 72.5415C22.8404 72.7826 23.3749 73.1394 23.8235 73.5909C24.272 74.0423 24.6255 74.5792 24.863 75.1697C25.1004 75.7602 25.217 76.3924 25.2058 77.0288C25.2058 80.3736 22.232 83.0587 17.7275 87.1957L16.459 88.3403Z" stroke="#20385C" stroke-width="2" stroke-miterlimit="10"/>
</g>
<defs>
<clipPath id="clip0">
<rect width="315" height="226" fill="white"/>
</clipPath>
</defs>
</svg>
