<svg width="158" height="28" viewBox="0 0 158 28" fill="none" xmlns="http://www.w3.org/2000/svg">
<g clip-path="url(#clip0)">
<g clip-path="url(#clip1)">
<circle cx="14.5" cy="14.5" r="13.5" fill="#F2C94C"/>
<path d="M9.393 20.982H11.508L12.444 17.472H14.649L13.713 20.982H15.828L16.764 17.472H20.022L20.571 15.429H17.304L17.88 13.314H21.138L21.687 11.28H18.42L19.302 8.04H17.187L16.314 11.28H14.1L14.982 8.04H12.867L11.994 11.28H8.736L8.178 13.314H11.445L10.887 15.429H7.62L7.08 17.472H10.347L9.393 20.982ZM13.002 15.429L13.56 13.314H15.765L15.198 15.429H13.002Z" fill="white"/>
</g>
<path d="M40.058 20.27C41.33 20.27 42.326 19.985 43.046 19.415C43.766 18.845 44.126 18.062 44.126 17.066C44.126 16.31 43.892 15.713 43.424 15.275C42.962 14.837 42.176 14.474 41.066 14.186C40.31 13.994 39.746 13.838 39.374 13.718C39.008 13.598 38.765 13.481 38.645 13.367C38.531 13.253 38.474 13.112 38.474 12.944C38.474 12.662 38.609 12.446 38.879 12.296C39.155 12.146 39.518 12.086 39.968 12.116C40.922 12.188 41.444 12.596 41.534 13.34L44.036 12.89C43.91 12.008 43.478 11.309 42.74 10.793C42.002 10.271 41.06 10.01 39.914 10.01C38.738 10.01 37.799 10.286 37.097 10.838C36.395 11.39 36.044 12.134 36.044 13.07C36.044 13.814 36.287 14.402 36.773 14.834C37.259 15.26 38.096 15.626 39.284 15.932C39.986 16.118 40.502 16.268 40.832 16.382C41.168 16.496 41.384 16.613 41.48 16.733C41.576 16.847 41.624 17 41.624 17.192C41.624 17.498 41.504 17.738 41.264 17.912C41.024 18.08 40.682 18.164 40.238 18.164C39.698 18.164 39.251 18.035 38.897 17.777C38.549 17.519 38.324 17.162 38.222 16.706L35.72 17.084C35.882 18.098 36.338 18.884 37.088 19.442C37.844 19.994 38.834 20.27 40.058 20.27ZM50.6218 20.27C51.5578 20.27 52.4188 20.024 53.2048 19.532C53.9968 19.04 54.5758 18.35 54.9418 17.462L52.4938 16.76C52.1218 17.576 51.4498 17.984 50.4778 17.984C49.8118 17.984 49.2868 17.798 48.9028 17.426C48.5248 17.054 48.2908 16.52 48.2008 15.824H55.0228C55.1248 14.648 55.0048 13.625 54.6628 12.755C54.3208 11.885 53.7928 11.21 53.0788 10.73C52.3648 10.25 51.4978 10.01 50.4778 10.01C49.5178 10.01 48.6688 10.229 47.9308 10.667C47.1928 11.099 46.6138 11.708 46.1938 12.494C45.7738 13.28 45.5638 14.204 45.5638 15.266C45.5638 16.238 45.7768 17.102 46.2028 17.858C46.6348 18.608 47.2288 19.199 47.9848 19.631C48.7468 20.057 49.6258 20.27 50.6218 20.27ZM50.5858 12.134C51.1738 12.134 51.6238 12.281 51.9358 12.575C52.2538 12.869 52.4578 13.346 52.5478 14.006H48.2638C48.5218 12.758 49.2958 12.134 50.5858 12.134ZM57.0549 20H59.5209V15.032C59.5209 13.904 59.9649 13.136 60.8529 12.728C61.1409 12.59 61.4619 12.509 61.8159 12.485C62.1759 12.455 62.4909 12.482 62.7609 12.566V10.28C62.3229 10.226 61.8849 10.238 61.4469 10.316C61.0089 10.388 60.6129 10.532 60.2589 10.748C60.0309 10.88 59.8299 11.039 59.6559 11.225C59.4879 11.411 59.3409 11.618 59.2149 11.846V10.28H57.0549V20ZM67.1009 20H69.5489L73.0769 10.28H70.6289L68.3249 17.012L66.0209 10.28H63.5729L67.1009 20ZM78.3214 20.288C79.0234 20.288 79.6354 20.171 80.1574 19.937C80.6794 19.703 81.1174 19.391 81.4714 19.001V20H83.6314V10.28H81.1654V15.212C81.1654 15.812 81.0964 16.298 80.9584 16.67C80.8264 17.036 80.6554 17.315 80.4454 17.507C80.2354 17.693 80.0104 17.819 79.7704 17.885C79.5304 17.951 79.3054 17.984 79.0954 17.984C78.5734 17.984 78.1684 17.867 77.8804 17.633C77.5984 17.399 77.3944 17.108 77.2684 16.76C77.1424 16.412 77.0674 16.067 77.0434 15.725C77.0194 15.377 77.0074 15.092 77.0074 14.87V10.28H74.5234V15.734C74.5234 15.896 74.5354 16.154 74.5594 16.508C74.5834 16.862 74.6524 17.255 74.7664 17.687C74.8804 18.113 75.0694 18.524 75.3334 18.92C75.6034 19.316 75.9784 19.643 76.4584 19.901C76.9384 20.159 77.5594 20.288 78.3214 20.288ZM89.9447 20.27C91.2167 20.27 92.2127 19.985 92.9327 19.415C93.6527 18.845 94.0127 18.062 94.0127 17.066C94.0127 16.31 93.7787 15.713 93.3107 15.275C92.8487 14.837 92.0627 14.474 90.9527 14.186C90.1967 13.994 89.6327 13.838 89.2607 13.718C88.8947 13.598 88.6517 13.481 88.5317 13.367C88.4177 13.253 88.3607 13.112 88.3607 12.944C88.3607 12.662 88.4957 12.446 88.7657 12.296C89.0417 12.146 89.4047 12.086 89.8547 12.116C90.8087 12.188 91.3307 12.596 91.4207 13.34L93.9227 12.89C93.7967 12.008 93.3647 11.309 92.6267 10.793C91.8887 10.271 90.9467 10.01 89.8007 10.01C88.6247 10.01 87.6857 10.286 86.9837 10.838C86.2817 11.39 85.9307 12.134 85.9307 13.07C85.9307 13.814 86.1737 14.402 86.6597 14.834C87.1457 15.26 87.9827 15.626 89.1707 15.932C89.8727 16.118 90.3887 16.268 90.7187 16.382C91.0547 16.496 91.2707 16.613 91.3667 16.733C91.4627 16.847 91.5107 17 91.5107 17.192C91.5107 17.498 91.3907 17.738 91.1507 17.912C90.9107 18.08 90.5687 18.164 90.1247 18.164C89.5847 18.164 89.1377 18.035 88.7837 17.777C88.4357 17.519 88.2107 17.162 88.1087 16.706L85.6067 17.084C85.7687 18.098 86.2247 18.884 86.9747 19.442C87.7307 19.994 88.7207 20.27 89.9447 20.27ZM96.2065 20H97.5115V18.695H96.2065V20ZM103.835 20.252C105.005 20.252 105.923 19.997 106.589 19.487C107.261 18.977 107.597 18.269 107.597 17.363C107.597 16.865 107.489 16.448 107.273 16.112C107.057 15.77 106.685 15.473 106.157 15.221C105.635 14.963 104.906 14.717 103.97 14.483C103.208 14.291 102.614 14.111 102.188 13.943C101.768 13.769 101.474 13.583 101.306 13.385C101.144 13.181 101.063 12.938 101.063 12.656C101.063 12.152 101.3 11.747 101.774 11.441C102.248 11.129 102.86 10.979 103.61 10.991C104.408 10.997 105.068 11.183 105.59 11.549C106.118 11.909 106.433 12.401 106.535 13.025L107.597 12.827C107.543 12.269 107.339 11.78 106.985 11.36C106.631 10.934 106.166 10.604 105.59 10.37C105.014 10.13 104.366 10.01 103.646 10.01C102.926 10.01 102.29 10.124 101.738 10.352C101.192 10.58 100.766 10.898 100.46 11.306C100.154 11.708 100.001 12.176 100.001 12.71C100.001 13.154 100.103 13.529 100.307 13.835C100.517 14.141 100.874 14.414 101.378 14.654C101.888 14.888 102.593 15.128 103.493 15.374C104.345 15.602 104.987 15.806 105.419 15.986C105.851 16.16 106.139 16.349 106.283 16.553C106.433 16.757 106.508 17.024 106.508 17.354C106.508 17.948 106.271 18.416 105.797 18.758C105.323 19.1 104.684 19.271 103.88 19.271C103.07 19.271 102.386 19.103 101.828 18.767C101.276 18.425 100.922 17.963 100.766 17.381L99.7044 17.561C99.8784 18.407 100.328 19.067 101.054 19.541C101.786 20.015 102.713 20.252 103.835 20.252ZM113.583 20.27C114.543 20.27 115.359 20.054 116.031 19.622C116.703 19.19 117.216 18.587 117.57 17.813C117.93 17.039 118.11 16.142 118.11 15.122C118.11 14.12 117.933 13.235 117.579 12.467C117.231 11.699 116.718 11.099 116.04 10.667C115.368 10.229 114.549 10.01 113.583 10.01C112.641 10.01 111.831 10.226 111.153 10.658C110.475 11.084 109.956 11.681 109.596 12.449C109.236 13.211 109.056 14.102 109.056 15.122C109.056 16.13 109.233 17.021 109.587 17.795C109.941 18.569 110.454 19.175 111.126 19.613C111.804 20.051 112.623 20.27 113.583 20.27ZM113.583 19.262C112.461 19.262 111.609 18.884 111.027 18.128C110.451 17.372 110.163 16.37 110.163 15.122C110.163 14.318 110.286 13.607 110.532 12.989C110.778 12.371 111.153 11.888 111.657 11.54C112.167 11.192 112.809 11.018 113.583 11.018C114.723 11.018 115.578 11.39 116.148 12.134C116.718 12.878 117.003 13.874 117.003 15.122C117.003 16.352 116.718 17.351 116.148 18.119C115.584 18.881 114.729 19.262 113.583 19.262ZM124.059 20.27C125.943 20.27 127.272 19.43 128.046 17.75L127.02 17.399C126.744 18.005 126.351 18.467 125.841 18.785C125.337 19.103 124.743 19.262 124.059 19.262C122.937 19.262 122.091 18.887 121.521 18.137C120.957 17.381 120.669 16.382 120.657 15.14C120.669 13.922 120.951 12.932 121.503 12.17C122.061 11.402 122.913 11.018 124.059 11.018C124.743 11.018 125.349 11.186 125.877 11.522C126.405 11.852 126.792 12.32 127.038 12.926L128.046 12.557C127.764 11.771 127.266 11.15 126.552 10.694C125.838 10.238 125.01 10.01 124.068 10.01C123.102 10.01 122.286 10.223 121.62 10.649C120.954 11.075 120.447 11.672 120.099 12.44C119.751 13.208 119.568 14.108 119.55 15.14C119.568 16.148 119.748 17.039 120.09 17.813C120.438 18.581 120.942 19.184 121.602 19.622C122.268 20.054 123.087 20.27 124.059 20.27ZM129.85 8.318H130.885V6.995H129.85V8.318ZM129.85 20H130.885V10.28H129.85V20ZM136.398 20.27C137.238 20.27 137.985 20.102 138.639 19.766C139.299 19.43 139.815 18.944 140.187 18.308V20H141.132V13.943C141.132 13.595 141.114 13.25 141.078 12.908C141.042 12.56 140.973 12.257 140.871 11.999C140.631 11.375 140.205 10.889 139.593 10.541C138.987 10.187 138.237 10.01 137.343 10.01C136.293 10.01 135.432 10.247 134.76 10.721C134.088 11.195 133.641 11.873 133.419 12.755L134.481 13.052C134.853 11.69 135.795 11.009 137.307 11.009C138.327 11.009 139.047 11.252 139.467 11.738C139.893 12.224 140.103 12.959 140.097 13.943C139.719 13.991 139.269 14.048 138.747 14.114C138.225 14.174 137.688 14.246 137.136 14.33C136.59 14.414 136.08 14.507 135.606 14.609C134.898 14.777 134.295 15.08 133.797 15.518C133.299 15.956 133.05 16.586 133.05 17.408C133.05 17.918 133.173 18.392 133.419 18.83C133.665 19.262 134.037 19.61 134.535 19.874C135.033 20.138 135.654 20.27 136.398 20.27ZM136.452 19.316C135.87 19.316 135.408 19.22 135.066 19.028C134.724 18.836 134.478 18.593 134.328 18.299C134.184 18.005 134.112 17.711 134.112 17.417C134.112 17.021 134.205 16.694 134.391 16.436C134.583 16.178 134.82 15.974 135.102 15.824C135.39 15.674 135.675 15.563 135.957 15.491C136.359 15.389 136.806 15.302 137.298 15.23C137.79 15.152 138.279 15.089 138.765 15.041C139.257 14.987 139.701 14.939 140.097 14.897C140.097 15.113 140.088 15.365 140.07 15.653C140.058 15.935 140.031 16.199 139.989 16.445C139.863 17.315 139.488 18.011 138.864 18.533C138.246 19.055 137.442 19.316 136.452 19.316ZM143.649 20H144.684V6.77H143.649V20Z" fill="#20385C"/>
</g>
<defs>
<clipPath id="clip0">
<rect width="158" height="28" fill="white"/>
</clipPath>
<clipPath id="clip1">
<rect width="27" height="28" fill="white" transform="translate(1)"/>
</clipPath>
</defs>
</svg>
