<svg width="674" height="866" viewBox="0 0 674 866" fill="none" xmlns="http://www.w3.org/2000/svg">
<g clip-path="url(#clip0)">
<g opacity="0.3">
<circle cx="262" cy="310" r="2" fill="white"/>
<circle cx="278" cy="310" r="2" fill="white"/>
<circle cx="294" cy="310" r="2" fill="white"/>
<circle cx="310" cy="310" r="2" fill="white"/>
<circle cx="326" cy="310" r="2" fill="white"/>
<circle cx="262" cy="326" r="2" fill="white"/>
<circle cx="278" cy="326" r="2" fill="white"/>
<circle cx="294" cy="326" r="2" fill="white"/>
<circle cx="310" cy="326" r="2" fill="white"/>
<circle cx="326" cy="326" r="2" fill="white"/>
<circle cx="262" cy="342" r="2" fill="white"/>
<circle cx="278" cy="342" r="2" fill="white"/>
<circle cx="294" cy="342" r="2" fill="white"/>
<circle cx="310" cy="342" r="2" fill="white"/>
<circle cx="326" cy="342" r="2" fill="white"/>
<circle cx="262" cy="358" r="2" fill="white"/>
<circle cx="278" cy="358" r="2" fill="white"/>
<circle cx="294" cy="358" r="2" fill="white"/>
<circle cx="310" cy="358" r="2" fill="white"/>
<circle cx="326" cy="358" r="2" fill="white"/>
<circle cx="262" cy="374" r="2" fill="white"/>
<circle cx="278" cy="374" r="2" fill="white"/>
<circle cx="294" cy="374" r="2" fill="white"/>
<circle cx="310" cy="374" r="2" fill="white"/>
<circle cx="326" cy="374" r="2" fill="white"/>
</g>
<g opacity="0.3">
<circle cx="433" cy="640" r="2" fill="#F2C94C"/>
<circle cx="449" cy="640" r="2" fill="#F2C94C"/>
<circle cx="465" cy="640" r="2" fill="#F2C94C"/>
<circle cx="481" cy="640" r="2" fill="#F2C94C"/>
<circle cx="497" cy="640" r="2" fill="#F2C94C"/>
<circle cx="433" cy="656" r="2" fill="#F2C94C"/>
<circle cx="449" cy="656" r="2" fill="#F2C94C"/>
<circle cx="465" cy="656" r="2" fill="#F2C94C"/>
<circle cx="481" cy="656" r="2" fill="#F2C94C"/>
<circle cx="497" cy="656" r="2" fill="#F2C94C"/>
<circle cx="433" cy="672" r="2" fill="#F2C94C"/>
<circle cx="449" cy="672" r="2" fill="#F2C94C"/>
<circle cx="465" cy="672" r="2" fill="#F2C94C"/>
<circle cx="481" cy="672" r="2" fill="#F2C94C"/>
<circle cx="497" cy="672" r="2" fill="#F2C94C"/>
<circle cx="433" cy="688" r="2" fill="#F2C94C"/>
<circle cx="449" cy="688" r="2" fill="#F2C94C"/>
<circle cx="465" cy="688" r="2" fill="#F2C94C"/>
<circle cx="481" cy="688" r="2" fill="#F2C94C"/>
<circle cx="497" cy="688" r="2" fill="#F2C94C"/>
<circle cx="433" cy="704" r="2" fill="#F2C94C"/>
<circle cx="449" cy="704" r="2" fill="#F2C94C"/>
<circle cx="465" cy="704" r="2" fill="#F2C94C"/>
<circle cx="481" cy="704" r="2" fill="#F2C94C"/>
<circle cx="497" cy="704" r="2" fill="#F2C94C"/>
</g>
<path d="M392 794C352.236 794 320 826.235 320 866C320 905.764 352.236 938 392 938V794Z" fill="#A0DCFF"/>
<path d="M753 433C753 472.764 720.765 505 681 505C641.236 505 609 472.764 609 433H753Z" fill="#C1E5C0"/>
<path d="M180 206C180 166.235 147.764 134 108 134C68.2355 134 36 166.235 36 206H180Z" fill="#FFC3D8"/>
<path opacity="0.3" fill-rule="evenodd" clip-rule="evenodd" d="M203.267 627.563C204.344 628.848 205.487 630.097 206.695 631.305C207.903 632.513 209.151 633.656 210.436 634.732L203.267 627.563ZM219.441 640.912L197.088 618.559C196.05 616.681 195.126 614.758 194.316 612.798L225.202 643.683C223.242 642.873 221.319 641.95 219.441 640.912ZM229.652 645.308C231.018 645.744 232.398 646.126 233.788 646.456L191.544 604.212C191.874 605.601 192.256 606.981 192.691 608.348L229.652 645.308ZM190.82 600.663L237.337 647.18C238.491 647.377 239.65 647.539 240.811 647.665L190.335 597.188C190.461 598.35 190.623 599.509 190.82 600.663ZM190.084 594.113L243.887 647.915C244.911 647.971 245.936 647.999 246.96 648L190 591.039C190.001 592.064 190.029 593.089 190.084 594.113ZM190.064 588.279L249.721 647.935C250.652 647.891 251.581 647.824 252.509 647.735L190.265 585.491C190.176 586.419 190.109 587.348 190.064 588.279ZM190.566 582.966L255.034 647.434C255.892 647.313 256.747 647.172 257.6 647.011L190.989 580.4C190.828 581.253 190.687 582.108 190.566 582.966ZM191.479 578.065L259.935 646.521C260.732 646.336 261.526 646.134 262.317 645.914L192.086 575.683C191.866 576.474 191.664 577.268 191.479 578.065ZM192.737 573.509L264.491 645.263C265.236 645.023 265.977 644.768 266.714 644.497L193.503 571.286C193.232 572.023 192.977 572.764 192.737 573.509ZM194.295 569.253L268.747 643.705C269.445 643.417 270.139 643.114 270.828 642.797L195.202 567.172C194.886 567.861 194.583 568.555 194.295 569.253ZM196.122 565.266L272.734 641.878C273.39 641.546 274.041 641.2 274.686 640.841L197.159 563.314C196.8 563.959 196.454 564.61 196.122 565.266ZM198.196 561.526L276.474 639.804C277.09 639.431 277.701 639.045 278.306 638.647L199.353 559.694C198.955 560.299 198.569 560.91 198.196 561.526ZM200.501 558.017L279.983 637.499C280.562 637.087 281.134 636.664 281.701 636.228L201.772 556.299C201.336 556.865 200.912 557.438 200.501 558.017ZM203.025 554.727L283.273 634.974C283.815 634.526 284.351 634.066 284.881 633.594L204.406 553.119C203.934 553.649 203.474 554.185 203.025 554.727ZM205.762 551.65L286.35 632.238C286.671 631.932 286.989 631.621 287.305 631.305C287.489 631.121 287.671 630.936 287.852 630.751L207.249 550.148C207.063 550.329 206.879 550.511 206.695 550.695C206.379 551.01 206.068 551.329 205.762 551.65ZM208.705 548.779L289.221 629.295C289.698 628.77 290.163 628.239 290.616 627.701L210.299 547.383C209.761 547.837 209.23 548.302 208.705 548.779ZM211.856 546.116L291.884 626.144C292.325 625.582 292.753 625.014 293.17 624.441L213.559 544.83C212.985 545.247 212.418 545.675 211.856 546.116ZM215.222 543.667L294.332 622.778C294.736 622.178 295.127 621.573 295.505 620.962L217.038 542.495C216.427 542.873 215.821 543.264 215.222 543.667ZM218.811 541.442L296.558 619.189C296.922 618.549 297.273 617.904 297.611 617.254L220.746 540.389C220.096 540.726 219.45 541.078 218.811 541.442ZM222.635 539.453L298.547 615.365C298.87 614.682 299.178 613.994 299.473 613.301L224.699 538.527C224.006 538.821 223.318 539.13 222.635 539.453ZM226.714 537.717L300.283 611.286C300.56 610.556 300.822 609.822 301.069 609.083L228.917 536.931C228.178 537.178 227.444 537.44 226.714 537.717ZM231.071 536.26L301.74 606.929C301.967 606.146 302.177 605.36 302.37 604.57L233.43 535.63C232.64 535.823 231.853 536.033 231.071 536.26ZM235.742 535.117L302.883 602.258C303.052 601.415 303.202 600.568 303.333 599.719L238.281 534.667C237.432 534.798 236.585 534.948 235.742 535.117ZM240.778 534.339L303.661 597.222C303.761 596.306 303.839 595.387 303.895 594.467L243.533 534.105C242.613 534.161 241.694 534.238 240.778 534.339ZM246.258 534.005L303.995 591.742C304.008 590.732 303.994 589.722 303.954 588.712L249.288 534.046C248.278 534.005 247.268 533.992 246.258 534.005ZM252.314 534.247L303.753 585.686C303.647 584.546 303.507 583.409 303.332 582.276L255.724 534.668C254.591 534.493 253.454 534.353 252.314 534.247ZM259.194 535.312L302.687 578.806C302.393 577.457 302.05 576.116 301.657 574.786L263.213 536.343C261.884 535.95 260.543 535.607 259.194 535.312ZM267.49 537.795L300.205 570.509C299.502 568.681 298.701 566.881 297.802 565.118L272.882 540.198C271.119 539.299 269.319 538.498 267.49 537.795ZM280.079 544.569L293.43 557.921C291.621 555.388 289.579 552.969 287.305 550.695C285.031 548.421 282.612 546.379 280.079 544.569Z" fill="url(#paint0_linear)"/>
<path opacity="0.3" fill-rule="evenodd" clip-rule="evenodd" d="M487.878 287.174C488.955 288.459 490.097 289.707 491.305 290.915C492.513 292.123 493.762 293.266 495.047 294.343L487.878 287.174ZM504.052 300.522L481.698 278.169C480.66 276.291 479.737 274.368 478.927 272.408L509.812 303.294C507.852 302.484 505.929 301.56 504.052 300.522ZM514.262 304.919C515.629 305.354 517.009 305.736 518.399 306.066L476.154 263.822C476.484 265.212 476.866 266.592 477.302 267.958L514.262 304.919ZM475.43 260.273L521.948 306.79C523.101 306.987 524.26 307.149 525.422 307.275L474.945 256.799C475.071 257.96 475.233 259.119 475.43 260.273ZM474.695 253.723L528.497 307.526C529.521 307.581 530.546 307.609 531.571 307.61L474.61 250.65C474.611 251.674 474.639 252.699 474.695 253.723ZM474.675 247.889L534.331 307.546C535.262 307.501 536.192 307.434 537.12 307.345L474.875 245.101C474.786 246.029 474.719 246.958 474.675 247.889ZM475.176 242.576L539.644 307.044C540.502 306.923 541.358 306.782 542.21 306.621L475.599 240.01C475.438 240.863 475.297 241.718 475.176 242.576ZM476.089 237.675L544.545 306.131C545.342 305.946 546.137 305.744 546.927 305.524L476.696 235.293C476.477 236.084 476.274 236.878 476.089 237.675ZM477.347 233.119L549.101 304.873C549.846 304.633 550.587 304.378 551.324 304.107L478.113 230.896C477.842 231.633 477.587 232.374 477.347 233.119ZM478.906 228.863L553.357 303.315C554.055 303.027 554.75 302.724 555.439 302.408L479.813 226.782C479.496 227.471 479.193 228.165 478.906 228.863ZM480.733 224.876L557.344 301.488C558 301.156 558.651 300.81 559.296 300.451L481.769 222.924C481.41 223.569 481.065 224.22 480.733 224.876ZM482.806 221.136L561.084 299.414C561.7 299.041 562.311 298.655 562.916 298.257L483.963 219.304C483.565 219.909 483.179 220.52 482.806 221.136ZM485.111 217.627L564.593 297.109C565.172 296.697 565.745 296.274 566.311 295.838L486.382 215.909C485.946 216.476 485.523 217.048 485.111 217.627ZM487.636 214.337L567.883 294.585C568.425 294.136 568.962 293.676 569.491 293.204L489.016 212.729C488.545 213.259 488.084 213.795 487.636 214.337ZM490.372 211.26L570.961 291.848C571.282 291.542 571.6 291.231 571.915 290.915C572.099 290.731 572.281 290.547 572.462 290.361L491.859 209.758C491.674 209.939 491.489 210.121 491.305 210.305C490.99 210.621 490.679 210.939 490.372 211.26ZM493.315 208.389L573.832 288.905C574.308 288.38 574.773 287.849 575.227 287.311L494.909 206.994C494.371 207.447 493.84 207.912 493.315 208.389ZM496.467 205.726L576.494 285.754C576.935 285.192 577.364 284.625 577.78 284.051L498.17 204.44C497.596 204.857 497.028 205.285 496.467 205.726ZM499.832 203.277L578.943 282.388C579.346 281.789 579.737 281.183 580.115 280.572L501.648 202.105C501.037 202.483 500.432 202.874 499.832 203.277ZM503.421 201.052L581.168 278.799C581.533 278.16 581.884 277.514 582.221 276.864L505.357 199.999C504.706 200.337 504.061 200.688 503.421 201.052ZM507.246 199.063L583.158 274.975C583.48 274.292 583.789 273.604 584.083 272.911L509.309 198.137C508.617 198.432 507.928 198.74 507.246 199.063ZM511.324 197.327L584.893 270.896C585.171 270.166 585.433 269.432 585.679 268.693L513.527 196.541C512.789 196.788 512.054 197.05 511.324 197.327ZM515.681 195.87L586.35 266.539C586.577 265.757 586.787 264.97 586.98 264.18L518.04 195.24C517.25 195.433 516.464 195.643 515.681 195.87ZM520.352 194.727L587.494 261.868C587.663 261.025 587.813 260.178 587.943 259.329L522.891 194.277C522.042 194.408 521.195 194.558 520.352 194.727ZM525.388 193.949L588.272 256.832C588.372 255.916 588.45 254.997 588.505 254.077L528.143 193.715C527.223 193.771 526.305 193.849 525.388 193.949ZM530.868 193.615L588.605 251.352C588.618 250.342 588.605 249.332 588.565 248.322L533.898 193.656C532.889 193.616 531.878 193.602 530.868 193.615ZM536.924 193.857L588.363 245.296C588.257 244.156 588.117 243.019 587.943 241.886L540.334 194.278C539.201 194.103 538.064 193.963 536.924 193.857ZM543.804 194.923L587.298 238.416C587.004 237.067 586.66 235.726 586.267 234.397L547.824 195.953C546.494 195.56 545.153 195.217 543.804 194.923ZM552.101 197.405L584.815 230.12C584.112 228.291 583.311 226.491 582.412 224.728L557.492 199.808C555.729 198.909 553.93 198.108 552.101 197.405ZM564.689 204.18L578.041 217.531C576.231 214.998 574.189 212.579 571.915 210.305C569.641 208.031 567.223 205.989 564.689 204.18Z" fill="url(#paint1_linear)"/>
</g>
<defs>
<linearGradient id="paint0_linear" x1="206.695" y1="550.695" x2="288.719" y2="632.719" gradientUnits="userSpaceOnUse">
<stop stop-color="white"/>
<stop offset="1" stop-color="white" stop-opacity="0"/>
</linearGradient>
<linearGradient id="paint1_linear" x1="491.305" y1="210.305" x2="573.329" y2="292.329" gradientUnits="userSpaceOnUse">
<stop stop-color="#F2C94C"/>
<stop offset="1" stop-color="white" stop-opacity="0"/>
</linearGradient>
<clipPath id="clip0">
<rect width="674" height="866" fill="white"/>
</clipPath>
</defs>
</svg>
