<svg width="274" height="209" viewBox="0 0 274 209" fill="none" xmlns="http://www.w3.org/2000/svg">
<g clip-path="url(#clip0)">
<path d="M107.557 43.2001L108.557 43.4448C108.106 43.5096 107.654 43.5715 107.203 43.6276H90.5231C89.2722 43.4684 88.0283 43.2718 86.7913 43.038C79.3398 41.6649 72.2287 38.8501 65.8576 34.7517C61.9429 32.2077 58.2109 29.0801 56.1843 24.8794C53.4319 19.1754 54.3936 11.9533 58.3231 6.98621C59.7538 5.19412 61.5154 3.69306 63.5123 2.56448C63.8102 2.39351 64.1111 2.23138 64.4179 2.07809C67.7443 0.407778 71.4799 -0.275549 75.1828 0.108954C81.4812 0.795795 87.2928 4.63974 90.647 10.0107C94.3552 15.9417 95.0662 23.1992 95.6858 30.1649C96.8098 26.5509 101.028 24.3429 104.731 25.1418C108.43 25.9377 111.286 29.3896 111.746 33.1451C112.197 36.8181 110.528 40.5884 107.746 43.038C107.684 43.091 107.622 43.1471 107.557 43.2001Z" fill="#F2C94C"/>
<path d="M94.6941 43.6275H93.8592C93.7765 43.5616 93.7124 43.4753 93.6734 43.377C93.6261 43.265 93.5819 43.15 93.5316 43.038C91.0508 37.0326 87.9961 31.2804 84.41 25.8611C78.7117 17.2347 71.7314 9.52618 63.7094 3.00076C63.6408 2.952 63.5864 2.88592 63.5516 2.80928C63.5169 2.73264 63.5032 2.64817 63.5118 2.56448C63.5287 2.4528 63.5747 2.34755 63.6454 2.25935C63.716 2.17116 63.8086 2.10314 63.914 2.06218C64.0193 2.02121 64.1336 2.00874 64.2453 2.02603C64.357 2.04331 64.4622 2.08975 64.5502 2.16063C69.7479 6.39049 74.5156 11.122 78.7843 16.2866C83.0554 21.4448 86.8157 27.0049 90.0123 32.8887C91.7959 36.182 93.3982 39.5701 94.812 43.038C94.8149 43.0468 94.8179 43.0527 94.8208 43.0616C94.8681 43.1561 94.8813 43.264 94.8582 43.3671C94.8352 43.4702 94.7772 43.5622 94.6941 43.6275Z" fill="white"/>
<path d="M164.614 43.038H5.60513C4.11897 43.0393 2.69407 43.6298 1.64319 44.6799C0.592316 45.73 0.0013451 47.1538 0 48.6388V65.7361C0.0013451 67.2212 0.592316 68.645 1.64319 69.6951C2.69407 70.7451 4.11897 71.3356 5.60513 71.337H164.614C166.1 71.3356 167.525 70.7451 168.576 69.6951C169.627 68.645 170.218 67.2212 170.219 65.7361V48.6388C170.218 47.1538 169.627 45.73 168.576 44.6799C167.525 43.6298 166.1 43.0393 164.614 43.038ZM169.629 65.7361C169.627 67.0646 169.098 68.3382 168.158 69.2776C167.218 70.217 165.943 70.7455 164.614 70.7474H5.60513C4.27562 70.7455 3.0011 70.217 2.06099 69.2776C1.12088 68.3382 0.591896 67.0646 0.590014 65.7361V48.6388C0.591895 47.3103 1.12088 46.0368 2.06099 45.0974C3.0011 44.158 4.27562 43.6294 5.60513 43.6275H164.614C165.943 43.6294 167.218 44.158 168.158 45.0974C169.098 46.0368 169.627 47.3103 169.629 48.6388V65.7361Z" fill="#3F3D56"/>
<path d="M164.614 111.722H5.60513C4.11908 111.72 2.69438 111.13 1.64357 110.08C0.592773 109.03 0.0016881 107.606 0 106.121V89.0239C0.0016881 87.539 0.592773 86.1154 1.64357 85.0654C2.69438 84.0154 4.11908 83.4248 5.60513 83.4231H164.614C166.1 83.4248 167.525 84.0154 168.576 85.0654C169.626 86.1154 170.217 87.539 170.219 89.0239V106.121C170.217 107.606 169.626 109.03 168.576 110.08C167.525 111.13 166.1 111.72 164.614 111.722ZM5.60513 84.0127C4.2755 84.0141 3.00075 84.5426 2.06056 85.4821C1.12036 86.4215 0.591504 87.6953 0.590014 89.0239V106.121C0.591505 107.45 1.12036 108.724 2.06056 109.663C3.00075 110.603 4.2755 111.131 5.60513 111.133H164.614C165.944 111.131 167.218 110.603 168.159 109.663C169.099 108.724 169.628 107.45 169.629 106.121V89.0239C169.628 87.6953 169.099 86.4215 168.159 85.4821C167.218 84.5426 165.944 84.0142 164.614 84.0127H5.60513Z" fill="#3F3D56"/>
<path d="M164.614 152.107H5.60513C4.11908 152.105 2.69438 151.515 1.64357 150.465C0.592773 149.415 0.0016881 147.991 0 146.506V129.409C0.0016881 127.924 0.592773 126.5 1.64357 125.45C2.69438 124.4 4.11908 123.81 5.60513 123.808H164.614C166.1 123.81 167.525 124.4 168.576 125.45C169.626 126.5 170.217 127.924 170.219 129.409V146.506C170.217 147.991 169.626 149.415 168.576 150.465C167.525 151.515 166.1 152.105 164.614 152.107ZM5.60513 124.398C4.2755 124.399 3.00075 124.928 2.06056 125.867C1.12036 126.807 0.591504 128.08 0.590014 129.409V146.506C0.591505 147.835 1.12036 149.109 2.06056 150.048C3.00075 150.988 4.2755 151.516 5.60513 151.518H164.614C165.944 151.516 167.218 150.988 168.159 150.048C169.099 149.109 169.628 147.835 169.629 146.506V129.409C169.628 128.08 169.099 126.807 168.159 125.867C167.218 124.928 165.944 124.399 164.614 124.398H5.60513Z" fill="#3F3D56"/>
<path d="M31.8108 66.7679H22.3705C21.08 66.7665 19.8428 66.2536 18.9302 65.3417C18.0177 64.4299 17.5044 63.1936 17.5029 61.904V52.471C17.5044 51.1815 18.0177 49.9452 18.9302 49.0333C19.8428 48.1215 21.08 47.6086 22.3705 47.6071H31.8108C33.1013 47.6086 34.3385 48.1215 35.2511 49.0333C36.1636 49.9452 36.6769 51.1815 36.6784 52.471V61.904C36.6769 63.1936 36.1636 64.4299 35.2511 65.3417C34.3385 66.2536 33.1013 66.7665 31.8108 66.7679Z" fill="#F2C94C"/>
<path d="M150.209 65.1466H46.071C45.4451 65.1466 44.8448 64.8982 44.4022 64.4559C43.9596 64.0137 43.7109 63.4138 43.7109 62.7884C43.7109 62.1629 43.9596 61.5631 44.4022 61.1208C44.8448 60.6786 45.4451 60.4301 46.071 60.4301H150.209C150.834 60.4301 151.435 60.6786 151.877 61.1208C152.32 61.5631 152.569 62.1629 152.569 62.7884C152.569 63.4138 152.32 64.0137 151.877 64.4559C151.435 64.8982 150.834 65.1466 150.209 65.1466Z" fill="#20385C"/>
<path d="M116.283 55.124H46.071C45.4451 55.124 44.8448 54.8756 44.4022 54.4333C43.9596 53.9911 43.7109 53.3912 43.7109 52.7658C43.7109 52.1403 43.9596 51.5405 44.4022 51.0982C44.8448 50.656 45.4451 50.4075 46.071 50.4075H116.283C116.909 50.4075 117.509 50.656 117.951 51.0982C118.394 51.5405 118.643 52.1403 118.643 52.7658C118.643 53.3912 118.394 53.9911 117.951 54.4333C117.509 54.8756 116.909 55.124 116.283 55.124Z" fill="#20385C"/>
<path d="M31.8108 107.153H22.3705C21.08 107.152 19.8428 106.639 18.9302 105.727C18.0177 104.815 17.5044 103.579 17.5029 102.289V92.8561C17.5044 91.5665 18.0177 90.3302 18.9302 89.4184C19.8428 88.5066 21.08 87.9936 22.3705 87.9922H31.8108C33.1013 87.9936 34.3385 88.5066 35.2511 89.4184C36.1636 90.3302 36.6769 91.5665 36.6784 92.8561V102.289C36.6769 103.579 36.1636 104.815 35.2511 105.727C34.3385 106.639 33.1013 107.152 31.8108 107.153Z" fill="#F2C94C"/>
<path d="M150.209 105.532H46.071C45.4451 105.532 44.8448 105.283 44.4022 104.841C43.9596 104.399 43.7109 103.799 43.7109 103.173C43.7109 102.548 43.9596 101.948 44.4022 101.506C44.8448 101.064 45.4451 100.815 46.071 100.815H150.209C150.834 100.815 151.435 101.064 151.877 101.506C152.32 101.948 152.569 102.548 152.569 103.173C152.569 103.799 152.32 104.399 151.877 104.841C151.435 105.283 150.834 105.532 150.209 105.532Z" fill="#20385C"/>
<path d="M116.283 95.5091H46.071C45.4451 95.5091 44.8448 95.2607 44.4022 94.8184C43.9596 94.3761 43.7109 93.7763 43.7109 93.1509C43.7109 92.5254 43.9596 91.9256 44.4022 91.4833C44.8448 91.0411 45.4451 90.7926 46.071 90.7926H116.283C116.909 90.7926 117.509 91.0411 117.951 91.4833C118.394 91.9256 118.643 92.5254 118.643 93.1509C118.643 93.7763 118.394 94.3761 117.951 94.8184C117.509 95.2607 116.909 95.5091 116.283 95.5091Z" fill="#20385C"/>
<path d="M31.8108 147.538H22.3705C21.08 147.537 19.8428 147.024 18.9302 146.112C18.0177 145.2 17.5044 143.964 17.5029 142.674V133.241C17.5044 131.952 18.0177 130.715 18.9302 129.803C19.8428 128.892 21.08 128.379 22.3705 128.377H31.8108C33.1013 128.379 34.3385 128.892 35.2511 129.803C36.1636 130.715 36.6769 131.952 36.6784 133.241V142.674C36.6769 143.964 36.1636 145.2 35.2511 146.112C34.3385 147.024 33.1013 147.537 31.8108 147.538Z" fill="#F2C94C"/>
<path d="M150.209 145.917H46.071C45.4451 145.917 44.8448 145.668 44.4022 145.226C43.9596 144.784 43.7109 144.184 43.7109 143.559C43.7109 142.933 43.9596 142.333 44.4022 141.891C44.8448 141.449 45.4451 141.2 46.071 141.2H150.209C150.834 141.2 151.435 141.449 151.877 141.891C152.32 142.333 152.569 142.933 152.569 143.559C152.569 144.184 152.32 144.784 151.877 145.226C151.435 145.668 150.834 145.917 150.209 145.917Z" fill="#20385C"/>
<path d="M116.283 135.894H46.071C45.4451 135.894 44.8448 135.646 44.4022 135.203C43.9596 134.761 43.7109 134.161 43.7109 133.536C43.7109 132.91 43.9596 132.311 44.4022 131.868C44.8448 131.426 45.4451 131.178 46.071 131.178H116.283C116.909 131.178 117.509 131.426 117.951 131.868C118.394 132.311 118.643 132.91 118.643 133.536C118.643 134.161 118.394 134.761 117.951 135.203C117.509 135.646 116.909 135.894 116.283 135.894Z" fill="#20385C"/>
<path d="M168.154 51.5866C171.901 51.5866 174.939 48.5511 174.939 44.8066C174.939 41.0622 171.901 38.0267 168.154 38.0267C164.406 38.0267 161.369 41.0622 161.369 44.8066C161.369 48.5511 164.406 51.5866 168.154 51.5866Z" fill="#3F3D56"/>
<path d="M170.809 47.6071C170.77 47.6071 170.732 47.5995 170.696 47.5847C170.661 47.5699 170.628 47.5481 170.601 47.5207L165.29 42.2147C165.235 42.1594 165.204 42.0844 165.204 42.0062C165.204 41.9281 165.235 41.8531 165.29 41.7978C165.346 41.7425 165.421 41.7115 165.499 41.7115C165.577 41.7115 165.652 41.7425 165.708 41.7978L171.018 47.1039C171.059 47.1451 171.087 47.1976 171.099 47.2548C171.11 47.312 171.104 47.3712 171.082 47.4251C171.059 47.479 171.022 47.525 170.973 47.5574C170.925 47.5898 170.868 47.6071 170.809 47.6071L170.809 47.6071Z" fill="white"/>
<path d="M165.499 47.6071C165.441 47.6071 165.384 47.5898 165.335 47.5574C165.287 47.525 165.249 47.479 165.227 47.4252C165.204 47.3713 165.198 47.312 165.21 47.2549C165.221 47.1977 165.249 47.1452 165.29 47.1039L170.601 41.7979C170.628 41.7705 170.661 41.7488 170.696 41.734C170.732 41.7192 170.77 41.7115 170.809 41.7115C170.848 41.7115 170.886 41.7192 170.922 41.734C170.958 41.7488 170.99 41.7705 171.018 41.7979C171.045 41.8252 171.067 41.8577 171.082 41.8935C171.097 41.9293 171.104 41.9676 171.104 42.0063C171.104 42.045 171.097 42.0833 171.082 42.1191C171.067 42.1549 171.045 42.1873 171.018 42.2147L165.708 47.5208C165.68 47.5482 165.648 47.57 165.612 47.5848C165.576 47.5996 165.538 47.6072 165.499 47.6071Z" fill="white"/>
<path d="M236.451 125.131C245.171 125.131 252.24 118.067 252.24 109.354C252.24 100.641 245.171 93.5779 236.451 93.5779C227.731 93.5779 220.663 100.641 220.663 109.354C220.663 118.067 227.731 125.131 236.451 125.131Z" fill="#F2C94C"/>
<path d="M237.611 206.882V170.619C237.612 170.111 237.814 169.624 238.174 169.265C238.533 168.906 239.02 168.704 239.529 168.703H243.883C244.391 168.704 244.879 168.906 245.238 169.265C245.598 169.624 245.8 170.111 245.801 170.619V206.882C245.8 207.39 245.598 207.877 245.238 208.236C244.879 208.595 244.391 208.797 243.883 208.798H239.529C239.02 208.797 238.533 208.595 238.174 208.236C237.814 207.877 237.612 207.39 237.611 206.882Z" fill="#20385C"/>
<path d="M228.409 206.882V170.619C228.41 170.111 228.612 169.624 228.971 169.265C229.331 168.906 229.818 168.704 230.327 168.703H234.681C235.189 168.704 235.677 168.906 236.036 169.265C236.396 169.624 236.598 170.111 236.599 170.619V206.882C236.598 207.39 236.396 207.877 236.036 208.236C235.677 208.595 235.189 208.797 234.681 208.798H230.327C229.818 208.797 229.331 208.595 228.971 208.236C228.612 207.877 228.41 207.39 228.409 206.882Z" fill="#20385C"/>
<path d="M246.523 174.882H226.739C226.191 174.882 225.667 174.664 225.279 174.277C224.892 173.89 224.674 173.366 224.674 172.819V140.704C224.674 137.535 225.934 134.496 228.176 132.256C230.418 130.015 233.46 128.756 236.631 128.756C239.802 128.756 242.843 130.015 245.086 132.256C247.328 134.496 248.588 137.535 248.588 140.704V172.819C248.587 173.366 248.369 173.89 247.982 174.277C247.595 174.664 247.07 174.882 246.523 174.882Z" fill="#20385C"/>
<path d="M223.118 116.328L223.134 115.739C222.037 115.708 221.069 115.64 220.342 115.109C220.136 114.95 219.966 114.748 219.845 114.518C219.724 114.287 219.654 114.034 219.639 113.774C219.626 113.615 219.65 113.455 219.709 113.307C219.768 113.159 219.861 113.027 219.979 112.921C220.462 112.513 221.239 112.645 221.805 112.904L222.293 113.128L221.357 106.292L220.772 106.372L221.569 112.187C220.799 111.961 220.087 112.058 219.598 112.47C219.411 112.634 219.264 112.838 219.169 113.068C219.074 113.298 219.033 113.546 219.05 113.795C219.067 114.144 219.16 114.485 219.323 114.794C219.486 115.103 219.715 115.373 219.994 115.585C220.928 116.267 222.142 116.301 223.118 116.328Z" fill="#20385C"/>
<path d="M227.912 106.873H224.734V107.463H227.912V106.873Z" fill="#20385C"/>
<path d="M242.697 172.797C242.511 172.627 242.361 172.421 242.255 172.193C242.149 171.965 242.089 171.718 242.08 171.466L240.576 135.235C240.566 134.984 240.605 134.733 240.692 134.496C240.778 134.26 240.911 134.043 241.081 133.858C241.252 133.673 241.457 133.523 241.686 133.417C241.914 133.311 242.161 133.252 242.413 133.241L246.763 133.061C247.271 133.04 247.767 133.222 248.141 133.566C248.515 133.91 248.737 134.388 248.758 134.896L250.262 171.127C250.282 171.635 250.1 172.13 249.756 172.504C249.412 172.877 248.933 173.099 248.425 173.121L244.075 173.301C243.936 173.307 243.797 173.298 243.66 173.274C243.3 173.211 242.965 173.045 242.697 172.797Z" fill="#F2C94C"/>
<path d="M248.248 148.275H241.168C240.66 148.274 240.172 148.072 239.813 147.713C239.453 147.354 239.251 146.867 239.25 146.359V136.336C239.25 134.89 239.825 133.503 240.849 132.48C241.872 131.457 243.261 130.883 244.708 130.883C246.156 130.883 247.544 131.457 248.567 132.48C249.591 133.503 250.166 134.89 250.166 136.336V146.359C250.165 146.867 249.963 147.354 249.603 147.713C249.244 148.072 248.757 148.274 248.248 148.275Z" fill="#20385C"/>
<path d="M202.782 161.702L200.006 158.35C199.682 157.958 199.528 157.454 199.575 156.948C199.623 156.442 199.87 155.976 200.261 155.652L228.222 132.536C228.614 132.213 229.119 132.058 229.625 132.106C230.131 132.153 230.597 132.4 230.922 132.791L233.697 136.143C233.858 136.337 233.979 136.561 234.053 136.801C234.127 137.042 234.153 137.295 234.129 137.545C234.105 137.796 234.033 138.039 233.915 138.261C233.797 138.484 233.636 138.681 233.442 138.841L205.482 161.957C205.145 162.235 204.723 162.39 204.286 162.396C203.85 162.403 203.424 162.26 203.079 161.992C202.97 161.906 202.87 161.809 202.782 161.702Z" fill="#F2C94C"/>
<path d="M223.402 146.646L218.917 141.171C218.595 140.778 218.443 140.273 218.493 139.768C218.544 139.262 218.793 138.797 219.186 138.475L226.947 132.126C227.502 131.672 228.14 131.332 228.826 131.125C229.512 130.918 230.233 130.847 230.946 130.918C231.659 130.989 232.352 131.2 232.983 131.538C233.615 131.877 234.174 132.336 234.628 132.89C235.082 133.445 235.422 134.083 235.63 134.769C235.837 135.454 235.907 136.174 235.836 136.887C235.765 137.599 235.554 138.291 235.215 138.922C234.876 139.554 234.416 140.112 233.861 140.566L226.1 146.914C225.707 147.236 225.201 147.388 224.695 147.338C224.19 147.287 223.724 147.038 223.402 146.646Z" fill="#20385C"/>
<path d="M204.348 147.977L204.268 148.046L202.361 145.869C202.216 145.704 202.04 145.569 201.843 145.471C201.646 145.374 201.431 145.316 201.211 145.302C200.992 145.287 200.772 145.316 200.563 145.386C200.355 145.457 200.162 145.568 199.997 145.712L195.381 149.749C195.046 150.042 194.842 150.455 194.812 150.898C194.783 151.341 194.931 151.778 195.223 152.112L205.685 164.055C205.83 164.221 206.006 164.356 206.203 164.453C206.4 164.551 206.615 164.609 206.834 164.623C207.054 164.638 207.274 164.609 207.483 164.539C207.691 164.468 207.884 164.357 208.049 164.212L212.665 160.175C213 159.883 213.204 159.47 213.234 159.027C213.263 158.583 213.115 158.147 212.823 157.813L205.625 149.596L205.705 149.527L204.348 147.977Z" fill="#3F3D56"/>
<path d="M200.506 146.408L199.932 146.91C200.015 146.952 200.086 147.014 200.14 147.089C200.194 147.165 200.228 147.253 200.24 147.345C200.252 147.437 200.241 147.531 200.208 147.618C200.175 147.705 200.121 147.782 200.051 147.843L197.529 150.049C197.459 150.111 197.375 150.154 197.284 150.175C197.194 150.196 197.099 150.195 197.009 150.171C196.92 150.147 196.837 150.101 196.769 150.038C196.701 149.975 196.649 149.895 196.619 149.808L196.082 150.277C195.964 150.38 195.868 150.506 195.798 150.646C195.729 150.786 195.688 150.939 195.677 151.095C195.667 151.252 195.688 151.408 195.738 151.557C195.788 151.705 195.867 151.842 195.97 151.96L205.934 163.335C206.143 163.573 206.437 163.719 206.753 163.74C207.069 163.761 207.38 163.656 207.619 163.447L212.043 159.578C212.281 159.37 212.426 159.075 212.447 158.76C212.468 158.444 212.363 158.133 212.155 157.895L202.191 146.52C201.982 146.282 201.688 146.136 201.372 146.115C201.056 146.094 200.744 146.2 200.506 146.408Z" fill="white"/>
<path d="M240.409 112.025C241.231 110.653 241.875 109.141 241.569 107.515C241.296 106.063 240.251 104.932 238.747 104.783C237.841 104.694 236.94 104.936 236.056 105.093C235.331 105.22 234.594 105.268 233.858 105.235C232.379 105.168 230.928 104.8 229.595 104.155C228.242 103.522 227.04 102.607 226.071 101.472C225.101 100.337 224.386 99.0067 223.973 97.5721C223.076 94.3077 223.742 90.6009 225.873 87.9438L225.134 87.7486L226.097 90.91C226.116 90.9748 226.149 91.0345 226.194 91.0847C226.239 91.1348 226.295 91.1741 226.358 91.1995C226.42 91.225 226.488 91.2359 226.555 91.2315C226.623 91.2271 226.688 91.2075 226.747 91.1742C228.492 90.0723 230.443 89.3361 232.482 89.0105C234.521 88.6848 236.604 88.7763 238.606 89.2796C239.738 89.5636 240.83 89.9836 241.861 90.5303C242.363 90.7973 242.811 90.0342 242.307 89.7667C240.372 88.758 238.253 88.1521 236.077 87.9856C233.9 87.819 231.713 88.0952 229.647 88.7976C228.47 89.1983 227.347 89.74 226.3 90.4106L226.95 90.6749L225.987 87.5135C225.966 87.4396 225.926 87.3725 225.87 87.3188C225.815 87.265 225.747 87.2264 225.673 87.2068C225.598 87.1871 225.52 87.1871 225.445 87.2067C225.371 87.2262 225.303 87.2647 225.248 87.3184C224.256 88.5747 223.53 90.0185 223.112 91.5628C222.694 93.1071 222.594 94.72 222.816 96.3042C223.032 97.8656 223.575 99.3639 224.41 100.701C225.245 102.038 226.354 103.184 227.663 104.062C228.971 104.945 230.441 105.559 231.988 105.87C233.535 106.181 235.129 106.182 236.676 105.873C237.543 105.707 238.525 105.469 239.375 105.831C239.683 105.979 239.955 106.194 240.17 106.459C240.386 106.725 240.541 107.034 240.624 107.366C241.105 108.997 240.286 110.545 239.449 111.901L240.409 112.025Z" fill="#20385C"/>
<path d="M232.5 143.043L232.489 143.043C232.324 143.043 232.164 142.986 232.036 142.883C231.907 142.78 231.817 142.636 231.781 142.475L231.839 130.192C231.802 130.026 231.822 129.852 231.897 129.699C231.972 129.546 232.098 129.423 232.252 129.351C234.392 128.347 236.603 128.212 239.012 128.939C239.196 128.994 239.352 129.118 239.446 129.285C239.54 129.453 239.565 129.65 239.515 129.836L233.212 142.495C233.172 142.653 233.08 142.793 232.951 142.892C232.822 142.992 232.663 143.045 232.5 143.043Z" fill="#20385C"/>
<path d="M273.705 209H200.543C200.465 209 200.39 208.969 200.334 208.914C200.279 208.858 200.248 208.783 200.248 208.705C200.248 208.627 200.279 208.552 200.334 208.497C200.39 208.441 200.465 208.41 200.543 208.41H273.705C273.783 208.41 273.858 208.441 273.913 208.497C273.969 208.552 274 208.627 274 208.705C274 208.783 273.969 208.858 273.913 208.914C273.858 208.969 273.783 209 273.705 209Z" fill="#3F3D56"/>
</g>
<defs>
<clipPath id="clip0">
<rect width="274" height="209" fill="white"/>
</clipPath>
</defs>
</svg>
