<svg width="296" height="229" viewBox="0 0 296 229" fill="none" xmlns="http://www.w3.org/2000/svg">
<g clip-path="url(#clip0)">
<path d="M214.535 149.059L176.21 129.254C175.632 128.955 175.196 128.438 174.998 127.817C174.8 127.195 174.856 126.521 175.153 125.941L177.524 121.332C177.823 120.753 178.338 120.316 178.958 120.118C179.578 119.919 180.251 119.975 180.829 120.273L219.154 140.078C219.732 140.378 220.168 140.895 220.366 141.516C220.564 142.137 220.508 142.811 220.211 143.391L217.84 148C217.693 148.287 217.49 148.543 217.244 148.751C216.998 148.96 216.713 149.117 216.406 149.214C216.163 149.293 215.909 149.332 215.654 149.333C215.264 149.332 214.881 149.238 214.535 149.059Z" fill="#F2C94C"/>
<path d="M202.85 130.532C203.153 130.414 203.476 130.357 203.8 130.366C204.125 130.374 204.445 130.448 204.741 130.582L217.3 137.542C218.675 138.303 219.705 139.564 220.178 141.065C220.651 142.566 220.531 144.191 219.843 145.606L219.685 145.529L219.843 145.606C219.185 146.957 218.055 148.02 216.668 148.593C215.28 149.165 213.732 149.208 212.315 148.712L198.694 143.94C198.399 143.81 198.133 143.622 197.91 143.389C197.687 143.155 197.513 142.879 197.397 142.578C197.28 142.277 197.224 141.955 197.232 141.632C197.24 141.309 197.311 140.991 197.442 140.695L201.491 131.831C201.562 131.671 201.649 131.518 201.752 131.376C202.029 130.994 202.41 130.701 202.85 130.532Z" fill="#20385C"/>
<path d="M231.748 128.406C242.108 128.406 250.507 119.987 250.507 109.603C250.507 99.2183 242.108 90.8 231.748 90.8C221.387 90.8 212.988 99.2183 212.988 109.603C212.988 119.987 221.387 128.406 231.748 128.406Z" fill="#F2C94C"/>
<path d="M229.446 226.541V183.323C229.447 182.671 229.706 182.045 230.166 181.584C230.626 181.123 231.249 180.864 231.9 180.863H237.073C237.724 180.864 238.348 181.123 238.808 181.584C239.268 182.045 239.526 182.671 239.527 183.323V226.541C239.526 227.193 239.268 227.818 238.808 228.279C238.348 228.74 237.724 228.999 237.073 229H231.9C231.249 228.999 230.626 228.74 230.166 228.279C229.706 227.818 229.447 227.193 229.446 226.541Z" fill="#F2C94C"/>
<path d="M218.229 226.541V183.323C218.23 182.671 218.489 182.045 218.949 181.584C219.409 181.123 220.033 180.864 220.683 180.863H225.857C226.507 180.864 227.131 181.123 227.591 181.584C228.051 182.045 228.309 182.671 228.31 183.323V226.541C228.309 227.193 228.051 227.818 227.591 228.279C227.131 228.74 226.507 228.999 225.857 229H220.683C220.033 228.999 219.409 228.74 218.949 228.279C218.489 227.818 218.23 227.193 218.229 226.541Z" fill="#F2C94C"/>
<path d="M232.142 116.572L232.162 115.869C230.858 115.833 229.708 115.751 228.844 115.118C228.599 114.929 228.398 114.688 228.254 114.414C228.11 114.139 228.026 113.837 228.009 113.527C227.994 113.338 228.023 113.148 228.093 112.971C228.163 112.795 228.272 112.637 228.413 112.51C228.987 112.025 229.91 112.182 230.582 112.491L231.162 112.758L230.05 104.61L229.355 104.706L230.302 111.636C229.388 111.367 228.541 111.483 227.961 111.974C227.738 112.169 227.563 112.412 227.45 112.686C227.337 112.96 227.289 113.256 227.309 113.552C227.329 113.968 227.44 114.375 227.634 114.743C227.828 115.112 228.099 115.433 228.43 115.686C229.54 116.499 230.983 116.539 232.142 116.572Z" fill="#20385C"/>
<path d="M225.92 105.303H222.145V106.006H225.92V105.303Z" fill="#20385C"/>
<path d="M237.838 105.303H234.062V106.006H237.838V105.303Z" fill="#20385C"/>
<path d="M249.7 190.474L243.211 147.748C243.114 147.103 243.276 146.446 243.661 145.921C244.047 145.396 244.625 145.046 245.268 144.947L250.382 144.166C251.025 144.069 251.681 144.231 252.205 144.618C252.729 145.004 253.078 145.583 253.177 146.228L259.665 188.954C259.763 189.598 259.601 190.255 259.215 190.781C258.83 191.306 258.252 191.656 257.609 191.755L252.494 192.535C252.176 192.584 251.851 192.57 251.538 192.492C251.225 192.415 250.93 192.277 250.671 192.086C250.411 191.894 250.192 191.653 250.025 191.377C249.858 191.1 249.748 190.793 249.7 190.474V190.474Z" fill="#F2C94C"/>
<path d="M244.685 163.05C244.412 162.874 244.177 162.645 243.993 162.377C243.809 162.109 243.68 161.806 243.614 161.488L241.855 147.212C241.662 145.65 242.075 144.073 243.008 142.808C243.942 141.542 245.325 140.685 246.871 140.412L246.902 140.585L246.871 140.412C248.349 140.151 249.871 140.443 251.149 141.232C252.426 142.021 253.37 143.252 253.802 144.692L257.952 158.543C258.02 158.859 258.025 159.186 257.967 159.503C257.909 159.821 257.79 160.125 257.615 160.396C257.44 160.667 257.213 160.902 256.948 161.085C256.682 161.269 256.383 161.398 256.068 161.466L246.532 163.389C246.361 163.426 246.187 163.445 246.012 163.445C245.541 163.445 245.08 163.307 244.685 163.05Z" fill="#20385C"/>
<path d="M245.188 193.933H195.056C194.548 193.933 194.048 193.802 193.604 193.554C193.16 193.305 192.787 192.947 192.52 192.513C192.253 192.08 192.101 191.585 192.079 191.076C192.057 190.566 192.166 190.06 192.394 189.605L216.632 141.293C218.316 137.936 221.081 135.247 224.479 133.661C227.877 132.074 231.71 131.683 235.357 132.55C239.005 133.418 242.254 135.493 244.578 138.44C246.903 141.388 248.168 145.036 248.168 148.793V190.946C248.167 191.738 247.853 192.497 247.294 193.057C246.736 193.617 245.978 193.932 245.188 193.933Z" fill="#20385C"/>
<path d="M232.413 94.0901C228.573 94.9495 225.334 97.4583 221.472 98.2383C219.713 98.5938 217.775 98.5792 216.159 97.7111C214.962 97.0597 214.047 95.9891 213.588 94.704C213.134 93.3896 213.017 91.9819 213.248 90.6103C213.479 89.2388 214.05 87.9474 214.909 86.8548C217.076 84.1955 220.532 82.97 223.847 82.6246C230.483 81.9334 237.299 84.125 242.699 87.9427C248.276 91.8846 252.554 97.8036 253.989 104.54C254.756 108.141 254.68 111.971 253.371 115.439C252.111 118.757 249.631 121.466 246.441 123.008C245.68 123.377 244.886 123.673 244.07 123.893C243.94 123.934 243.83 124.024 243.765 124.144C243.7 124.264 243.684 124.405 243.72 124.537C243.756 124.669 243.842 124.781 243.959 124.851C244.077 124.92 244.217 124.941 244.349 124.91C247.936 123.928 251.031 121.644 253.031 118.502C255.085 115.208 255.774 111.176 255.458 107.344C254.846 99.9312 250.779 93.118 245.093 88.4538C239.631 83.9728 232.566 81.2465 225.462 81.4631C221.899 81.5717 218.201 82.4782 215.43 84.8314C214.236 85.8434 213.312 87.1369 212.74 88.5956C212.169 90.0543 211.968 91.6325 212.156 93.1884C212.315 94.6439 212.891 96.0221 213.816 97.1562C214.946 98.4359 216.512 99.2466 218.207 99.4294C222.408 99.9775 226.05 97.5909 229.762 96.0568C230.71 95.6565 231.69 95.3386 232.692 95.1065C233.353 94.9587 233.073 93.9424 232.413 94.0901Z" fill="#20385C"/>
<path d="M242.964 86.6413C241.455 80.9824 245.391 75.0927 250.739 73.3255C253.808 72.3677 257.1 72.4045 260.147 73.4307C263.118 74.438 265.785 76.1835 267.9 78.504C272.588 83.5028 274.665 90.2496 275.637 96.9015C276.64 103.77 276.074 111.292 279.58 117.533C281.034 120.121 283.192 122.387 285.98 123.501C288.58 124.54 291.696 124.545 294.188 123.194C294.788 122.865 295.343 122.459 295.838 121.987C296.331 121.52 295.586 120.776 295.094 121.241C293.008 123.215 289.897 123.587 287.216 122.813C284.29 121.968 282.039 119.715 280.555 117.12C278.839 114.119 278.125 110.69 277.735 107.287C277.31 103.572 277.146 99.837 276.578 96.1373C275.554 89.4645 273.34 82.7663 268.644 77.7587C266.496 75.4201 263.818 73.6342 260.836 72.5518C257.766 71.4501 254.44 71.2818 251.275 72.0679C248.398 72.8148 245.862 74.5241 244.087 76.9127C242.362 79.1798 241.484 81.9816 241.608 84.8302C241.653 85.5369 241.767 86.2374 241.949 86.9215C241.99 87.052 242.08 87.1615 242.2 87.2269C242.32 87.2924 242.46 87.3086 242.592 87.2723C242.723 87.2359 242.835 87.1499 242.905 87.0321C242.974 86.9144 242.995 86.7743 242.963 86.6413L242.964 86.6413Z" fill="#20385C"/>
<path d="M36.5451 134.558H5.95884C4.379 134.557 2.86438 133.927 1.74727 132.807C0.630154 131.687 0.00177849 130.169 0 128.586V5.97257C0.00177849 4.38909 0.630154 2.87098 1.74727 1.75129C2.86438 0.631608 4.379 0.00178259 5.95884 0H88.9202L104.104 13.5887V38.2947H103.403V13.9033L88.6527 0.702655H5.95884C4.56487 0.704236 3.22844 1.25996 2.24275 2.24792C1.25707 3.23588 0.702617 4.57539 0.70104 5.97257V128.586C0.702617 129.983 1.25707 131.323 2.24275 132.31C3.22844 133.298 4.56487 133.854 5.95884 133.856H36.5451V134.558Z" fill="#CCCCCC"/>
<path d="M103.754 14.0531H94.2899C92.7101 14.0513 91.1954 13.4215 90.0783 12.3018C88.9612 11.1821 88.3328 9.66401 88.3311 8.08053V0.351327C88.3311 0.25815 88.368 0.168788 88.4337 0.102901C88.4994 0.0370145 88.5886 0 88.6816 0C88.7745 0 88.8637 0.0370145 88.9294 0.102901C88.9952 0.168788 89.0321 0.25815 89.0321 0.351327V8.08053C89.0337 9.47771 89.5881 10.8172 90.5738 11.8052C91.5595 12.7931 92.8959 13.3489 94.2899 13.3504H103.754C103.847 13.3504 103.936 13.3875 104.002 13.4533C104.068 13.5192 104.104 13.6086 104.104 13.7018C104.104 13.7949 104.068 13.8843 104.002 13.9502C103.936 14.0161 103.847 14.0531 103.754 14.0531Z" fill="#CCCCCC"/>
<path d="M92.0255 31.7952H12.1069C11.3632 31.7952 10.6499 32.0913 10.1241 32.6184C9.59817 33.1455 9.30273 33.8604 9.30273 34.6058C9.30273 35.3512 9.59817 36.0661 10.1241 36.5932C10.6499 37.1203 11.3632 37.4164 12.1069 37.4164H92.0255C92.7692 37.4164 93.4824 37.1203 94.0083 36.5932C94.5342 36.0661 94.8296 35.3512 94.8296 34.6058C94.8296 33.8604 94.5342 33.1455 94.0083 32.6184C93.4824 32.0913 92.7692 31.7952 92.0255 31.7952Z" fill="#E6E6E6"/>
<path d="M51.7156 19.85H12.1069C11.3632 19.85 10.6499 20.1461 10.1241 20.6732C9.59817 21.2003 9.30273 21.9152 9.30273 22.6606C9.30273 23.406 9.59817 24.1209 10.1241 24.648C10.6499 25.1751 11.3632 25.4712 12.1069 25.4712H51.7156C52.4594 25.4712 53.1726 25.1751 53.6985 24.648C54.2244 24.1209 54.5198 23.406 54.5198 22.6606C54.5198 21.9152 54.2244 21.2003 53.6985 20.6732C53.1726 20.1461 52.4594 19.85 51.7156 19.85Z" fill="#E6E6E6"/>
<path d="M12.1069 55.3341C11.3632 55.3341 10.6499 55.6302 10.1241 56.1573C9.59817 56.6844 9.30273 57.3993 9.30273 58.1447C9.30273 58.8901 9.59817 59.605 10.1241 60.1321C10.6499 60.6592 11.3632 60.9553 12.1069 60.9553H37.1551V55.3341H12.1069Z" fill="#E6E6E6"/>
<path d="M12.1069 43.3889C11.7386 43.3889 11.374 43.4616 11.0338 43.6029C10.6936 43.7441 10.3844 43.9511 10.1241 44.2121C9.86366 44.4731 9.65711 44.783 9.51619 45.124C9.37527 45.465 9.30273 45.8304 9.30273 46.1995C9.30273 46.5686 9.37527 46.9341 9.51619 47.2751C9.65711 47.6161 9.86366 47.9259 10.1241 48.1869C10.3844 48.4479 10.6936 48.655 11.0338 48.7962C11.374 48.9374 11.7386 49.0101 12.1069 49.0101H37.1551V43.3889H12.1069Z" fill="#E6E6E6"/>
<path d="M37.3305 114.884H14.8832C13.3498 114.882 11.8797 114.271 10.7955 113.184C9.71124 112.097 9.10134 110.624 9.09961 109.087V79.5756C9.10134 78.0387 9.71124 76.5652 10.7955 75.4785C11.8798 74.3917 13.3498 73.7804 14.8832 73.7787H37.3305V114.884Z" fill="#E6E6E6"/>
<path d="M73.5251 172.326H42.9388C41.359 172.324 39.8444 171.695 38.7272 170.575C37.6101 169.455 36.9818 167.937 36.98 166.354V43.7403C36.9818 42.1568 37.6101 40.6387 38.7272 39.519C39.8444 38.3993 41.359 37.7695 42.9388 37.7677H125.9L141.084 51.3564V74.6571H140.383V51.671L125.633 38.4704H42.9388C41.5448 38.4719 40.2084 39.0277 39.2227 40.0156C38.2371 41.0036 37.6826 42.3431 37.681 43.7403V166.354C37.6826 167.751 38.2371 169.09 39.2227 170.078C40.2084 171.066 41.5448 171.622 42.9388 171.623H73.5251V172.326Z" fill="#CCCCCC"/>
<path d="M140.734 51.8208H131.27C129.69 51.819 128.175 51.1892 127.058 50.0695C125.941 48.9498 125.313 47.4317 125.311 45.8482V38.119C125.311 38.0258 125.348 37.9365 125.414 37.8706C125.479 37.8047 125.569 37.7677 125.662 37.7677C125.755 37.7677 125.844 37.8047 125.909 37.8706C125.975 37.9365 126.012 38.0258 126.012 38.119V45.8482C126.014 47.2454 126.568 48.5849 127.554 49.5729C128.539 50.5608 129.876 51.1166 131.27 51.1181H140.734C140.827 51.1181 140.916 51.1552 140.982 51.221C141.048 51.2869 141.084 51.3763 141.084 51.4695C141.084 51.5626 141.048 51.652 140.982 51.7179C140.916 51.7838 140.827 51.8208 140.734 51.8208Z" fill="#CCCCCC"/>
<path d="M129.005 69.5629H49.0869C48.3432 69.5629 47.6299 69.859 47.104 70.3861C46.5782 70.9132 46.2827 71.6281 46.2827 72.3735C46.2827 73.1189 46.5782 73.8338 47.104 74.3609C47.6299 74.888 48.3432 75.1841 49.0869 75.1841H129.005C129.749 75.1841 130.462 74.888 130.988 74.3609C131.514 73.8338 131.81 73.1189 131.81 72.3735C131.81 71.6281 131.514 70.9132 130.988 70.3861C130.462 69.859 129.749 69.5629 129.005 69.5629Z" fill="#E6E6E6"/>
<path d="M88.6956 57.6177H49.0869C48.3432 57.6177 47.6299 57.9138 47.104 58.4409C46.5782 58.968 46.2827 59.6829 46.2827 60.4283C46.2827 61.1737 46.5782 61.8886 47.104 62.4157C47.6299 62.9428 48.3432 63.2389 49.0869 63.2389H88.6956C89.4394 63.2389 90.1526 62.9428 90.6785 62.4157C91.2044 61.8886 91.4998 61.1737 91.4998 60.4283C91.4998 59.6829 91.2044 58.968 90.6785 58.4409C90.1526 57.9138 89.4394 57.6177 88.6956 57.6177Z" fill="#E6E6E6"/>
<path d="M129.005 69.5629H49.0869C48.3432 69.5629 47.6299 69.859 47.104 70.3861C46.5782 70.9132 46.2827 71.6281 46.2827 72.3735C46.2827 73.1189 46.5782 73.8338 47.104 74.3609C47.6299 74.888 48.3432 75.1841 49.0869 75.1841H129.005C129.749 75.1841 130.462 74.888 130.988 74.3609C131.514 73.8338 131.81 73.1189 131.81 72.3735C131.81 71.6281 131.514 70.9132 130.988 70.3861C130.462 69.859 129.749 69.5629 129.005 69.5629Z" fill="#E6E6E6"/>
<path d="M88.6956 57.6177H49.0869C48.3432 57.6177 47.6299 57.9138 47.104 58.4409C46.5782 58.968 46.2827 59.6829 46.2827 60.4283C46.2827 61.1737 46.5782 61.8886 47.104 62.4157C47.6299 62.9428 48.3432 63.2389 49.0869 63.2389H88.6956C89.4394 63.2389 90.1526 62.9428 90.6785 62.4157C91.2044 61.8886 91.4998 61.1737 91.4998 60.4283C91.4998 59.6829 91.2044 58.968 90.6785 58.4409C90.1526 57.9138 89.4394 57.6177 88.6956 57.6177Z" fill="#E6E6E6"/>
<path d="M49.0869 93.1018C48.3432 93.1018 47.6299 93.3979 47.104 93.925C46.5782 94.4521 46.2827 95.167 46.2827 95.9124C46.2827 96.6578 46.5782 97.3727 47.104 97.8998C47.6299 98.4269 48.3432 98.723 49.0869 98.723H74.135V93.1018H49.0869Z" fill="#E6E6E6"/>
<path d="M49.0869 81.1566C48.3432 81.1566 47.6299 81.4527 47.104 81.9798C46.5782 82.5069 46.2827 83.2218 46.2827 83.9672C46.2827 84.7127 46.5782 85.4276 47.104 85.9547C47.6299 86.4817 48.3432 86.7779 49.0869 86.7779H74.135V81.1566H49.0869Z" fill="#E6E6E6"/>
<path d="M49.0869 93.1018C48.3432 93.1018 47.6299 93.3979 47.104 93.925C46.5782 94.4521 46.2827 95.167 46.2827 95.9124C46.2827 96.6578 46.5782 97.3727 47.104 97.8998C47.6299 98.4269 48.3432 98.723 49.0869 98.723H74.135V93.1018H49.0869Z" fill="#E6E6E6"/>
<path d="M49.0869 81.1566C48.3432 81.1566 47.6299 81.4527 47.104 81.9798C46.5782 82.5069 46.2827 83.2218 46.2827 83.9672C46.2827 84.7127 46.5782 85.4276 47.104 85.9547C47.6299 86.4817 48.3432 86.7779 49.0869 86.7779H74.135V81.1566H49.0869Z" fill="#E6E6E6"/>
<path d="M74.3105 152.652H51.8632C50.3298 152.65 48.8597 152.039 47.7755 150.952C46.6912 149.865 46.0813 148.392 46.0796 146.855V117.343C46.0813 115.806 46.6912 114.333 47.7755 113.246C48.8597 112.159 50.3298 111.548 51.8632 111.546H74.3105V152.652Z" fill="#E6E6E6"/>
<path d="M76.2874 75.8867C75.4162 76.4197 74.6963 77.1681 74.1966 78.0602C73.697 78.9522 73.4344 79.958 73.4341 80.981V81.8593H74.1351V80.981C74.1366 79.8192 74.5203 78.6902 75.2269 77.7692C75.9335 76.8482 76.9235 76.1865 78.0434 75.8867H76.2874ZM162.354 75.0084H79.3929C77.8131 75.0103 76.2985 75.6401 75.1814 76.7598C74.0643 77.8795 73.4359 79.3975 73.4341 80.981V203.594C73.4363 205.178 74.0649 206.695 75.1819 207.815C76.2989 208.935 77.8132 209.565 79.3929 209.567H171.58C173.159 209.565 174.674 208.935 175.791 207.815C176.908 206.695 177.536 205.178 177.539 203.594V88.5978L162.354 75.0084ZM176.837 203.594C176.836 204.991 176.281 206.331 175.296 207.319C174.31 208.307 172.974 208.862 171.58 208.864H79.3929C77.999 208.862 76.6626 208.307 75.677 207.319C74.6913 206.331 74.1368 204.991 74.1351 203.594V80.981C74.1365 79.8192 74.5203 78.6902 75.2269 77.7692C75.9335 76.8482 76.9235 76.1865 78.0434 75.8867C78.4836 75.7692 78.9373 75.7101 79.3929 75.7111H162.088L176.837 88.9104V203.594ZM76.2874 75.8867C75.4162 76.4197 74.6962 77.1681 74.1966 78.0602C73.697 78.9522 73.4344 79.958 73.4341 80.981V81.8593H74.1351V80.981C74.1365 79.8192 74.5203 78.6902 75.2269 77.7692C75.9335 76.8482 76.9235 76.1865 78.0434 75.8867H76.2874Z" fill="#3F3D56"/>
<path d="M177.188 89.0615H167.724C166.144 89.0597 164.63 88.4299 163.512 87.3102C162.395 86.1905 161.767 84.6724 161.765 83.089V75.3598C161.765 75.2666 161.802 75.1772 161.868 75.1113C161.934 75.0454 162.023 75.0084 162.116 75.0084C162.209 75.0084 162.298 75.0454 162.364 75.1113C162.429 75.1772 162.466 75.2666 162.466 75.3598V83.089C162.468 84.4861 163.022 85.8256 164.008 86.8136C164.994 87.8016 166.33 88.3573 167.724 88.3589H177.188C177.281 88.3589 177.37 88.3959 177.436 88.4618C177.502 88.5277 177.539 88.617 177.539 88.7102C177.539 88.8034 177.502 88.8927 177.436 88.9586C177.37 89.0245 177.281 89.0615 177.188 89.0615Z" fill="#3F3D56"/>
<path d="M165.46 112.425H85.5415C84.7978 112.425 84.0845 112.129 83.5586 111.602C83.0327 111.074 82.7373 110.36 82.7373 109.614C82.7373 108.869 83.0327 108.154 83.5586 107.627C84.0845 107.1 84.7978 106.803 85.5415 106.803H165.46C166.204 106.803 166.917 107.1 167.443 107.627C167.969 108.154 168.264 108.869 168.264 109.614C168.264 110.36 167.969 111.074 167.443 111.602C166.917 112.129 166.204 112.425 165.46 112.425Z" fill="#CCCCCC"/>
<path d="M125.15 100.48H85.5415C84.7978 100.48 84.0845 100.184 83.5586 99.6564C83.0327 99.1293 82.7373 98.4144 82.7373 97.669C82.7373 96.9236 83.0327 96.2087 83.5586 95.6816C84.0845 95.1545 84.7978 94.8584 85.5415 94.8584H125.15C125.894 94.8584 126.607 95.1545 127.133 95.6816C127.659 96.2087 127.954 96.9236 127.954 97.669C127.954 98.4144 127.659 99.1293 127.133 99.6564C126.607 100.184 125.894 100.48 125.15 100.48Z" fill="#CCCCCC"/>
<path d="M165.46 135.964H85.5415C84.7978 135.964 84.0845 135.668 83.5586 135.141C83.0327 134.613 82.7373 133.899 82.7373 133.153C82.7373 132.408 83.0327 131.693 83.5586 131.166C84.0845 130.639 84.7978 130.343 85.5415 130.343H165.46C166.204 130.343 166.917 130.639 167.443 131.166C167.969 131.693 168.264 132.408 168.264 133.153C168.264 133.899 167.969 134.613 167.443 135.141C166.917 135.668 166.204 135.964 165.46 135.964Z" fill="#CCCCCC"/>
<path d="M125.15 124.019H85.5415C84.7978 124.019 84.0845 123.722 83.5586 123.195C83.0327 122.668 82.7373 121.953 82.7373 121.208C82.7373 120.463 83.0327 119.748 83.5586 119.221C84.0845 118.693 84.7978 118.397 85.5415 118.397H125.15C125.894 118.397 126.607 118.693 127.133 119.221C127.659 119.748 127.954 120.463 127.954 121.208C127.954 121.953 127.659 122.668 127.133 123.195C126.607 123.722 125.894 124.019 125.15 124.019Z" fill="#CCCCCC"/>
<path d="M162.627 189.893H88.3163C86.7829 189.891 85.3129 189.279 84.2286 188.193C83.1443 187.106 82.5344 185.633 82.5327 184.096V154.584C82.5344 153.047 83.1443 151.574 84.2286 150.487C85.3129 149.4 86.7829 148.789 88.3163 148.787H162.627C164.16 148.789 165.63 149.4 166.714 150.487C167.798 151.574 168.408 153.047 168.41 154.584V184.096C168.408 185.633 167.799 187.106 166.714 188.193C165.63 189.279 164.16 189.891 162.627 189.893Z" fill="#F2C94C"/>
</g>
<defs>
<clipPath id="clip0">
<rect width="296" height="229" fill="white"/>
</clipPath>
</defs>
</svg>
